<svg id="Layer_2" data-name="Layer 2" xmlns="http://www.w3.org/2000/svg" viewBox="0 0 598.06 195.03"><defs><style>.cls-1,.cls-3{fill:#239b95;}.cls-2,.cls-3{isolation:isolate;}.cls-3{font-size:165px;font-family:SairaExtraCondensed-Light, Saira ExtraCondensed;font-weight:300;}.cls-4{letter-spacing:-0.01em;}</style></defs><g id="Layer_1-2" data-name="Layer 1-2"><g id="Layer_3" data-name="Layer 3"><path class="cls-1" d="M35.82,63.55c-.11-6.19-.28-12.38-.9-18.51A57.52,57.52,0,0,0,31.2,28.41c-1.8-4.31-4.79-8.49-9-10.44-4.68-2.18-9.91-.67-13.63,2.85C5.23,24,3.43,28.89,2.3,33.5a82.27,82.27,0,0,0-2,15.78C.05,55.65,0,62,0,68.39S.05,81.8.22,88.47q.51,20,2.2,40.05c.11,1.64.28,3.22.45,4.85.06.49.79.73,1.13.79a4,4,0,0,0,2-.24c1-.36,2.31-1.15,2.2-2.43C7.1,118.87,6.31,106.13,5.86,93.44c-.45-12.92-.51-25.91-.23-38.83a137,137,0,0,1,1-16C7.26,34,8.22,29.31,10.41,25.3A10.14,10.14,0,0,1,11.2,24a4.33,4.33,0,0,1,.39-.55c-.23.36.23-.3.34-.42.28-.36.62-.73,1-1.09l.28-.3h0l.68-.55c.06-.06.28-.24.28-.18s-.56.36-.11.12a2,2,0,0,0,.62-.3l-.28.12c.11-.06.23-.06.34-.12s.23-.06.34-.12c.34-.12-.68.12-.17.06a1.9,1.9,0,0,0,.62-.12c-.06,0-.68.06-.23,0h.34a2.15,2.15,0,0,1,.62,0s-.51-.06-.23,0a.89.89,0,0,1,.39.06c.23.06.45.06.62.12s.23.06.34.06c-.39-.12-.11-.06-.06,0,.45.18.9.36,1.3.55a7,7,0,0,1,1.13.67,2.9,2.9,0,0,1,.34.24l.68.55a18,18,0,0,1,4.06,5c2.53,4.55,3.72,10,4.45,15.11a149.13,149.13,0,0,1,1.24,17.35c.06,1.46.06,2.91.11,4.37,0,1.27,1.52,1.4,2.42,1.15a5.42,5.42,0,0,0,2-.91c.23-.3.79-.79.79-1.33h0Z" transform="translate(0.01 0)"/><path class="cls-1" d="M47.32,99.53c.06,5.76.06,11.53-.39,17.23-.45,5.28-1.24,10.68-3.27,15.53a20.71,20.71,0,0,1-1.58,3.16,9.68,9.68,0,0,1-.9,1.33c-.23.3.17-.24-.06.06-.06.06-.11.18-.17.24a9.25,9.25,0,0,1-.68.79,7.81,7.81,0,0,1-1,1c-.17.18-.39.36-.56.55.39-.36-.23.18-.34.3l-1.13.85c-.23.18-.06.18.11-.06a.94.94,0,0,1-.34.18c-.23.12-.39.24-.62.36l-.34.18c-.45.24.17-.06.23-.06a4.71,4.71,0,0,0-.68.24c-.11.06-.79.24-.28.12s.06,0-.06,0a.89.89,0,0,1-.39.06c-.11,0-.23.06-.34.06-.34.06,0-.12.17,0-.11-.06-.51.06-.56.06h-.45c-.17,0-.34-.06-.51-.06a8.23,8.23,0,0,1-1.18-.24c.39.12-.17-.06-.34-.12s-.51-.18-.73-.3a8.79,8.79,0,0,1-2.25-1.58c-3-2.79-4.73-6.74-5.91-10.86A72.6,72.6,0,0,1,20.5,114.2c-.45-6-.73-12-.9-17.9-.23-6.37-.34-12.8-.34-19.17,0-12.62.34-25.18,1.13-37.74.11-1.52.23-3.09.34-4.61.17-2.37-5.24-1-5.41,1-1,13-1.41,26.09-1.46,39.2s.28,26.09,1.18,39.14a85,85,0,0,0,2.14,15c1.13,4.43,2.87,8.92,6,12.14a12,12,0,0,0,12.11,3.46,20,20,0,0,0,11.55-9c2.82-4.49,4.17-10,5-15.29a125.31,125.31,0,0,0,1-17.72V98.44c0-1.27-1.52-1.33-2.42-1.15a5.42,5.42,0,0,0-2,.91c-.34.3-1,.79-1,1.33Z" transform="translate(0.01 0)"/><ellipse class="cls-1" cx="33.36" cy="99.29" rx="8.9" ry="18.51" transform="translate(-26.19 13.12) rotate(-16.08)"/></g><g class="cls-2"><text class="cls-3" transform="translate(55.21 139.26)">Ren</text><text class="cls-3" transform="translate(246.11 139.26)"><tspan class="cls-4">o</tspan><tspan x="60.39" y="0">v</tspan></text><text class="cls-3" transform="translate(360.79 139.26)">aVi</text><text class="cls-3" transform="translate(504.83 139.26)">t</text><text class="cls-3" transform="translate(538.66 139.26)">a</text></g></g></svg>