<svg width="59" height="97" viewBox="0 0 59 97" fill="none" xmlns="http://www.w3.org/2000/svg">
<g filter="url(#filter0_d_7_368)">
<path d="M38.2461 32.1927C38.1384 27.9411 37.9769 23.6896 37.3846 19.4797C36.8461 15.6033 35.9307 11.6435 33.8307 8.05887C32.1076 5.09946 29.2538 2.22342 25.2692 0.889596C20.7999 -0.61095 15.7923 0.431095 12.2384 2.84864C9.00763 5.05778 7.28455 8.39233 6.20763 11.5601C5.02301 15.1031 4.5384 18.7711 4.32301 22.3974C4.05378 26.774 3.99994 31.1506 3.99994 35.5272C3.99994 40.1122 4.05378 44.7389 4.21532 49.3239C4.5384 58.4939 5.2384 67.6639 6.31533 76.8339C6.42302 77.9593 6.58455 79.0431 6.74609 80.1685C6.79993 80.5019 7.49993 80.6687 7.82301 80.7103C8.41532 80.7937 9.16917 80.7103 9.76148 80.5436C10.7307 80.2935 11.9692 79.7517 11.8615 78.8763C10.7846 70.2065 10.0307 61.4533 9.59994 52.7418C9.16917 43.8636 9.11532 34.9437 9.38456 26.0654C9.49225 22.3974 9.65379 18.7294 10.3538 15.1031C10.9461 11.8936 11.8615 8.6841 13.9615 5.9331C14.1769 5.59964 14.4461 5.30787 14.7153 5.0161C14.823 4.89105 14.9307 4.76601 15.0922 4.64096C14.8769 4.89105 15.3076 4.43255 15.4153 4.34919C15.6846 4.0991 16.0076 3.84901 16.3307 3.59892C16.4384 3.51555 16.4922 3.47387 16.5999 3.39051C16.3307 3.55723 16.8692 3.22378 16.5999 3.39051C16.8153 3.26546 17.0307 3.14042 17.2461 3.01537C17.2999 2.97369 17.5153 2.84864 17.5153 2.89033C17.5153 2.89033 16.9769 3.14042 17.4076 2.97369C17.5692 2.93201 17.8922 2.84864 17.9999 2.76528C17.9999 2.76528 17.4615 2.93201 17.7307 2.84864C17.8384 2.80696 17.9461 2.80696 18.0538 2.76528C18.1615 2.7236 18.2692 2.7236 18.3769 2.68192C18.6999 2.59855 17.7307 2.76528 18.2153 2.7236C18.3769 2.7236 18.6999 2.68191 18.8076 2.64023C18.7538 2.64023 18.1615 2.68191 18.5922 2.64023C18.6999 2.64023 18.8076 2.64023 18.9153 2.64023C19.023 2.64023 19.3999 2.59855 19.5076 2.64023C19.5076 2.64023 19.023 2.59855 19.2922 2.64023C19.3999 2.64023 19.5615 2.64024 19.6692 2.68192C19.8846 2.7236 20.0999 2.7236 20.2615 2.76528C20.3692 2.76528 20.4769 2.80696 20.5846 2.80696C20.2076 2.7236 20.4769 2.76528 20.5307 2.80696C20.9615 2.93201 21.3923 3.05705 21.7692 3.1821C22.1461 3.30714 22.523 3.47387 22.8461 3.6406C22.6845 3.55723 23.1153 3.76564 23.1692 3.80733C23.3846 3.93237 23.5999 4.05742 23.8153 4.18246C25.3769 5.14115 26.6692 6.30824 27.6922 7.64205C30.1153 10.7682 31.2461 14.4779 31.9461 18.0208C32.7538 21.9389 32.9692 25.9404 33.1307 29.9418C33.1846 30.9422 33.1846 31.9426 33.2384 32.9429C33.2384 33.8183 34.6922 33.9016 35.5538 33.7349C36.1999 33.6098 36.8999 33.4431 37.4922 33.1097C37.7076 32.9013 38.2461 32.5678 38.2461 32.1927Z" fill="white"/>
<path d="M49.2306 56.91C49.2844 60.8698 49.2844 64.8295 48.8536 68.7476C48.4229 72.3739 47.669 76.0836 45.7306 79.4182C45.2998 80.1684 44.8152 80.9187 44.2229 81.5856C43.9536 81.9191 43.6844 82.2109 43.3613 82.5026C43.1459 82.711 43.5229 82.3359 43.3075 82.5443C43.2536 82.586 43.1998 82.6694 43.146 82.711C42.9306 82.9194 42.7152 83.0862 42.4998 83.2529C42.2306 83.503 41.9075 83.7531 41.5844 83.9615C41.4229 84.0865 41.2075 84.2116 41.046 84.3366C41.4229 84.0865 40.8306 84.4617 40.7229 84.5451C40.346 84.7535 40.0229 84.9202 39.646 85.1286C39.4306 85.2536 39.5921 85.2536 39.7537 85.0869C39.6998 85.1286 39.4844 85.212 39.4306 85.212C39.2152 85.2953 39.0536 85.3787 38.8383 85.462C38.7306 85.5037 38.6229 85.5454 38.5152 85.5871C38.0844 85.7538 38.6767 85.5454 38.7306 85.5454C38.569 85.5454 38.2998 85.6705 38.0844 85.7121C37.9767 85.7538 37.3306 85.8789 37.8152 85.7955C38.246 85.7121 37.869 85.7955 37.7613 85.7955C37.6536 85.8372 37.4921 85.8372 37.3844 85.8372C37.2767 85.8372 37.169 85.8789 37.0613 85.8789C36.7383 85.9205 37.0613 85.7955 37.2229 85.8789C37.1152 85.8372 36.7383 85.9205 36.6844 85.9205C36.5229 85.9205 36.3075 85.9205 36.146 85.9205C35.769 85.9205 36.1998 85.9205 36.2537 85.9205C36.0921 85.9205 35.9306 85.8789 35.769 85.8789C35.3921 85.8372 35.0152 85.7955 34.6383 85.7121C35.0152 85.7955 34.4767 85.6704 34.3152 85.6288C34.0998 85.5454 33.8306 85.5037 33.6152 85.4204C32.7536 85.1286 32.269 84.8368 31.4613 84.3366C28.5536 82.4193 26.9383 79.7099 25.8075 76.8756C24.5152 73.6661 23.9767 70.3315 23.5998 66.997C23.169 62.9122 22.8998 58.7857 22.7383 54.7008C22.5229 50.3242 22.4152 45.906 22.4152 41.5294C22.4152 32.8596 22.7383 24.2314 23.4921 15.6033C23.5998 14.5612 23.7075 13.4775 23.8152 12.4354C23.9767 10.8099 18.8075 11.7269 18.6459 13.144C17.7306 22.1056 17.2998 31.0672 17.2459 40.0705C17.1921 49.0321 17.5152 57.9937 18.3767 66.9553C18.6998 70.4149 19.2383 73.9162 20.4229 77.2924C21.4998 80.3352 23.169 83.4196 26.1306 85.6288C29.1998 87.963 33.5075 88.8383 37.7075 88.0046C42.2844 87.1293 46.1075 84.8368 48.7459 81.8357C51.4383 78.7513 52.7306 74.9582 53.4844 71.3319C54.2921 67.2888 54.3998 63.2039 54.3998 59.1608C54.3998 58.1604 54.3998 57.1601 54.3998 56.1597C54.3998 55.2844 52.946 55.2427 52.0844 55.3678C51.4383 55.4928 50.7383 55.6595 50.146 55.993C49.8229 56.2014 49.2306 56.5348 49.2306 56.91Z" fill="white"/>
<path d="M41.004 68.915C45.4433 67.795 46.7484 61.4398 43.9191 54.7202C41.0898 48.0007 35.1975 43.4615 30.7583 44.5815C26.319 45.7015 25.0139 52.0567 27.8432 58.7762C30.6725 65.4958 36.5648 70.035 41.004 68.915Z" fill="white"/>
</g>
<defs>
<filter id="filter0_d_7_368" x="-6.10352e-05" y="0.191895" width="58.3998" height="96.1215" filterUnits="userSpaceOnUse" color-interpolation-filters="sRGB">
<feFlood flood-opacity="0" result="BackgroundImageFix"/>
<feColorMatrix in="SourceAlpha" type="matrix" values="0 0 0 0 0 0 0 0 0 0 0 0 0 0 0 0 0 0 127 0" result="hardAlpha"/>
<feOffset dy="4"/>
<feGaussianBlur stdDeviation="2"/>
<feComposite in2="hardAlpha" operator="out"/>
<feColorMatrix type="matrix" values="0 0 0 0 0 0 0 0 0 0 0 0 0 0 0 0 0 0 0.25 0"/>
<feBlend mode="normal" in2="BackgroundImageFix" result="effect1_dropShadow_7_368"/>
<feBlend mode="normal" in="SourceGraphic" in2="effect1_dropShadow_7_368" result="shape"/>
</filter>
</defs>
</svg>
