<?xml version="1.0" encoding="UTF-8"?>
<svg id="Layer_2" data-name="Layer 2" xmlns="http://www.w3.org/2000/svg" viewBox="0 0 93.6 211.41">
  <defs>
    <style>
      .cls-1 {
        fill: #239b95;
        stroke-width: 0px;
      }
    </style>
  </defs>
  <g id="Layer_1-2" data-name="Layer 1">
    <g id="Layer_3" data-name="Layer 3">
      <g>
        <path class="cls-1" d="m63.6,76.77c-.2-10.2-.5-20.4-1.6-30.5-1-9.3-2.7-18.8-6.6-27.4-3.2-7.1-8.5-14-15.9-17.2C31.2-1.93,21.9.57,15.3,6.37c-6,5.3-9.2,13.3-11.2,20.9-2.2,8.5-3.1,17.3-3.5,26-.5,10.5-.6,21-.6,31.5s.1,22.1.4,33.1c.6,22,1.9,44,3.9,66,.2,2.7.5,5.3.8,8,.1.8,1.4,1.2,2,1.3,1.1.2,2.5,0,3.6-.4,1.8-.6,4.1-1.9,3.9-4-2-20.8-3.4-41.8-4.2-62.7-.8-21.3-.9-42.7-.4-64,.2-8.8.5-17.6,1.8-26.3,1.1-7.7,2.8-15.4,6.7-22,.4-.8.9-1.5,1.4-2.2.2-.3.4-.6.7-.9-.4.6.4-.5.6-.7.5-.6,1.1-1.2,1.7-1.8l.5-.5c.5-.4-.5.4,0,0,.4-.3.8-.6,1.2-.9.1-.1.5-.4.5-.3,0,0-1,.6-.2.2.3-.1.9-.3,1.1-.5,0,0-1,.4-.5.2.2-.1.4-.1.6-.2.2-.1.4-.1.6-.2.6-.2-1.2.2-.3.1.3,0,.9-.1,1.1-.2-.1,0-1.2.1-.4,0h.6c.2,0,.9-.1,1.1,0,0,0-.9-.1-.4,0,.2,0,.5,0,.7.1.4.1.8.1,1.1.2.2,0,.4.1.6.1-.7-.2-.2-.1-.1,0,.8.3,1.6.6,2.3.9s1.4.7,2,1.1c-.3-.2.5.3.6.4.4.3.8.6,1.2.9,2.9,2.3,5.3,5.1,7.2,8.3,4.5,7.5,6.6,16.4,7.9,24.9,1.5,9.4,1.9,19,2.2,28.6.1,2.4.1,4.8.2,7.2,0,2.1,2.7,2.3,4.3,1.9,1.2-.3,2.5-.7,3.6-1.5.4-.5,1.4-1.3,1.4-2.2h0Z"/>
        <path class="cls-1" d="m84,136.07c.1,9.5.1,19-.7,28.4-.8,8.7-2.2,17.6-5.8,25.6-.8,1.8-1.7,3.6-2.8,5.2-.5.8-1,1.5-1.6,2.2-.4.5.3-.4-.1.1-.1.1-.2.3-.3.4-.4.5-.8.9-1.2,1.3-.5.6-1.1,1.2-1.7,1.7-.3.3-.7.6-1,.9.7-.6-.4.3-.6.5-.7.5-1.3.9-2,1.4-.4.3-.1.3.2-.1-.1.1-.5.3-.6.3-.4.2-.7.4-1.1.6-.2.1-.4.2-.6.3-.8.4.3-.1.4-.1-.3,0-.8.3-1.2.4-.2.1-1.4.4-.5.2.8-.2.1,0-.1,0-.2.1-.5.1-.7.1s-.4.1-.6.1c-.6.1,0-.2.3,0-.2-.1-.9.1-1,.1h-1c-.7,0,.1,0,.2,0-.3,0-.6-.1-.9-.1-.7-.1-1.4-.2-2.1-.4.7.2-.3-.1-.6-.2-.4-.2-.9-.3-1.3-.5-1.6-.7-2.5-1.4-4-2.6-5.4-4.6-8.4-11.1-10.5-17.9-2.4-7.7-3.4-15.7-4.1-23.7-.8-9.8-1.3-19.7-1.6-29.5-.4-10.5-.6-21.1-.6-31.6,0-20.8.6-41.5,2-62.2.2-2.5.4-5.1.6-7.6.3-3.9-9.3-1.7-9.6,1.7-1.7,21.5-2.5,43-2.6,64.6-.1,21.5.5,43,2.1,64.5.6,8.3,1.6,16.7,3.8,24.8,2,7.3,5.1,14.7,10.6,20,5.7,5.6,13.7,7.7,21.5,5.7,8.5-2.1,15.6-7.6,20.5-14.8,5-7.4,7.4-16.5,8.8-25.2,1.5-9.7,1.7-19.5,1.7-29.2v-7.2c0-2.1-2.7-2.2-4.3-1.9-1.2.3-2.5.7-3.6,1.5-.6.5-1.7,1.3-1.7,2.2h0Z"/>
        <ellipse class="cls-1" cx="59.21" cy="135.69" rx="15.7" ry="30.7" transform="translate(-39.13 25.03) rotate(-18.05)"/>
      </g>
    </g>
  </g>
</svg>