<?xml version="1.0" encoding="UTF-8"?>
<svg id="Layer_2" data-name="Layer 2" xmlns="http://www.w3.org/2000/svg" viewBox="0 0 605.06 192.94">
  <defs>
    <style>
      .cls-1 {
        letter-spacing: 0em;
      }

      .cls-2 {
        letter-spacing: 0em;
      }

      .cls-3 {
        letter-spacing: 0em;
      }

      .cls-4 {
        stroke-width: 0px;
      }

      .cls-4, .cls-5 {
        fill: #239b95;
      }

      .cls-5 {
        font-family: SairaExtraCondensed-Thin, 'Saira ExtraCondensed';
        font-size: 165px;
        font-weight: 200;
      }
    </style>
  </defs>
  <g id="Layer_1-2" data-name="Layer 1">
    <g id="Layer_3" data-name="Layer 3">
      <g>
        <path class="cls-4" d="m35.82,63.55c-.11-6.19-.28-12.38-.9-18.51-.56-5.64-1.52-11.41-3.72-16.63-1.8-4.31-4.79-8.49-8.96-10.44-4.68-2.18-9.91-.67-13.63,2.85-3.38,3.22-5.18,8.07-6.31,12.68-1.24,5.16-1.75,10.5-1.97,15.78-.28,6.37-.34,12.74-.34,19.11s.06,13.41.23,20.08c.34,13.35,1.07,26.7,2.2,40.05.11,1.64.28,3.22.45,4.85.06.49.79.73,1.13.79.62.12,1.41,0,2.03-.24,1.01-.36,2.31-1.15,2.2-2.43-1.13-12.62-1.92-25.36-2.37-38.05-.45-12.92-.51-25.91-.23-38.83.11-5.34.28-10.68,1.01-15.96.62-4.67,1.58-9.34,3.77-13.35.23-.49.51-.91.79-1.33.11-.18.23-.36.39-.55-.23.36.23-.3.34-.42.28-.36.62-.73.96-1.09l.28-.3c.28-.24-.28.24,0,0,.23-.18.45-.36.68-.55.06-.06.28-.24.28-.18,0,0-.56.36-.11.12.17-.06.51-.18.62-.3,0,0-.56.24-.28.12.11-.06.23-.06.34-.12.11-.06.23-.06.34-.12.34-.12-.68.12-.17.06.17,0,.51-.06.62-.12-.06,0-.68.06-.23,0h.34c.11,0,.51-.06.62,0,0,0-.51-.06-.23,0,.11,0,.28,0,.39.06.23.06.45.06.62.12.11,0,.23.06.34.06-.39-.12-.11-.06-.06,0,.45.18.9.36,1.3.55s.79.42,1.13.67c-.17-.12.28.18.34.24.23.18.45.36.68.55,1.63,1.4,2.99,3.09,4.06,5.04,2.53,4.55,3.72,9.95,4.45,15.11.84,5.7,1.07,11.53,1.24,17.35.06,1.46.06,2.91.11,4.37,0,1.27,1.52,1.4,2.42,1.15.68-.18,1.41-.42,2.03-.91.23-.3.79-.79.79-1.33h0Z"/>
        <path class="cls-4" d="m47.32,99.53c.06,5.76.06,11.53-.39,17.23-.45,5.28-1.24,10.68-3.27,15.53-.45,1.09-.96,2.18-1.58,3.16-.28.49-.56.91-.9,1.33-.23.3.17-.24-.06.06-.06.06-.11.18-.17.24-.23.3-.45.55-.68.79-.28.36-.62.73-.96,1.03-.17.18-.39.36-.56.55.39-.36-.23.18-.34.3-.39.3-.73.55-1.13.85-.23.18-.06.18.11-.06-.06.06-.28.18-.34.18-.23.12-.39.24-.62.36-.11.06-.23.12-.34.18-.45.24.17-.06.23-.06-.17,0-.45.18-.68.24-.11.06-.79.24-.28.12.45-.12.06,0-.06,0-.11.06-.28.06-.39.06s-.23.06-.34.06c-.34.06,0-.12.17,0-.11-.06-.51.06-.56.06h-.56c-.39,0,.06,0,.11,0-.17,0-.34-.06-.51-.06-.39-.06-.79-.12-1.18-.24.39.12-.17-.06-.34-.12-.23-.12-.51-.18-.73-.3-.9-.42-1.41-.85-2.25-1.58-3.04-2.79-4.73-6.74-5.91-10.86-1.35-4.67-1.92-9.53-2.31-14.38-.45-5.95-.73-11.95-.9-17.9-.23-6.37-.34-12.8-.34-19.17,0-12.62.34-25.18,1.13-37.74.11-1.52.23-3.09.34-4.61.17-2.37-5.24-1.03-5.41,1.03-.96,13.05-1.41,26.09-1.46,39.2-.06,13.05.28,26.09,1.18,39.14.34,5.04.9,10.13,2.14,15.05,1.13,4.43,2.87,8.92,5.97,12.14,3.21,3.4,7.72,4.67,12.11,3.46,4.79-1.27,8.79-4.61,11.55-8.98,2.82-4.49,4.17-10.01,4.96-15.29.84-5.89.96-11.83.96-17.72v-4.37c0-1.27-1.52-1.33-2.42-1.15-.68.18-1.41.42-2.03.91-.34.3-.96.79-.96,1.33h0Z"/>
        <ellipse class="cls-4" cx="33.35" cy="99.29" rx="8.9" ry="18.51" transform="translate(-26.19 13.12) rotate(-16.08)"/>
      </g>
    </g>
    <text class="cls-5" transform="translate(55.2 139.26)"><tspan x="0" y="0">Ren</tspan><tspan class="cls-2" x="190.9" y="0">ov</tspan><tspan class="cls-1" x="305.58" y="0">aVi</tspan><tspan class="cls-3" x="449.62" y="0">t</tspan><tspan x="483.45" y="0">a</tspan></text>
  </g>
</svg>