<svg width="730" height="302" viewBox="0 0 730 302" fill="none" xmlns="http://www.w3.org/2000/svg">
<g filter="url(#filter0_d_159_1293)">
<rect x="6" y="4" width="718" height="290" rx="14" fill="white" shape-rendering="crispEdges"/>
<path d="M63.6249 38C66.1104 38 68.1249 35.9855 68.1249 33.5C68.1249 31.0145 66.1104 29 63.6249 29C61.1394 29 59.1249 31.0145 59.1249 33.5C59.1249 35.9855 61.1394 38 63.6249 38ZM59.4062 43.9062C59.4062 44.3738 59.7823 44.75 60.2499 44.75C60.7175 44.75 61.0937 44.3738 61.0937 43.9062C61.0937 43.4387 60.7175 43.0625 60.2499 43.0625C59.7823 43.0625 59.4062 43.4387 59.4062 43.9062ZM68.2093 38.5766L66.9999 38.3762V40.3098C68.2831 40.5699 69.2499 41.709 69.2499 43.066V45.0348C69.2499 45.302 69.0601 45.534 68.7964 45.5867L67.6644 45.8117C67.5132 45.8434 67.3655 45.7449 67.3339 45.5902L67.2249 45.0383C67.1933 44.8871 67.2917 44.7359 67.4464 44.7078L68.1249 44.5707V43.0625C68.1249 42.0219 67.1792 41.1992 66.0999 41.4066C65.2983 41.5613 64.7499 42.3137 64.7499 43.1293V44.5707L65.4284 44.7078C65.5796 44.7395 65.678 44.8871 65.6499 45.0383L65.5409 45.5902C65.5093 45.7414 65.3616 45.8398 65.2104 45.8117L64.1136 45.6641C63.8358 45.6254 63.6284 45.3898 63.6284 45.1051V43.066C63.6284 41.709 64.5952 40.5734 65.8784 40.3098V38.6504C65.1894 38.9527 64.43 39.1285 63.6284 39.1285C62.5983 39.1285 61.6456 38.8297 60.8159 38.3445V42.0324C61.628 42.275 62.2222 43.0203 62.2222 43.9098C62.2222 44.9961 61.3397 45.8785 60.2534 45.8785C59.1671 45.8785 58.2847 44.9961 58.2847 43.9098C58.2847 43.0203 58.8788 42.275 59.6909 42.0324V38.4676L59.044 38.5766C57.1456 38.893 55.7534 40.5348 55.7534 42.4613V45.875C55.7534 46.4973 56.2562 47 56.8784 47H70.3784C71.0007 47 71.5034 46.4973 71.5034 45.875V42.4613C71.4999 40.5348 70.1077 38.893 68.2093 38.5766Z" fill="#239B95"/>
<path d="M85.9785 32.6875C85.4629 32.6875 85.123 32.8398 84.959 33.1445C84.8066 33.4492 84.7246 33.7656 84.7129 34.0938C84.7012 34.3984 84.4434 34.5449 83.9395 34.5332C83.4473 34.5215 83.2012 34.334 83.2012 33.9707L83.2891 31.2285H92.8516L92.957 33.9707C92.957 34.334 92.7051 34.5215 92.2012 34.5332C91.6973 34.5449 91.4336 34.3633 91.4102 33.9883C91.3984 33.7188 91.3105 33.4375 91.1465 33.1445C90.9824 32.8398 90.6309 32.6875 90.0918 32.6875H89.1777V44.1836H86.9629V32.6875H85.9785ZM100.217 44.1836H98.0371V43.2871L97.8613 43.4629C97.2871 44.0254 96.5488 44.3066 95.6465 44.3066C94.8379 44.3066 94.1641 44.0254 93.625 43.4629C93.0859 42.8887 92.8164 41.9688 92.8164 40.7031V37.1172C92.8164 36.7539 92.7871 36.5137 92.7285 36.3965C92.6816 36.2793 92.6289 36.209 92.5703 36.1855C92.3828 36.1152 92.2246 36.0449 92.0957 35.9746C91.9785 35.8926 91.9199 35.7461 91.9199 35.5352C91.9199 35.1602 92.166 34.9727 92.6582 34.9727H94.2402C94.7441 34.9727 94.9961 35.166 94.9961 35.5527V40.5977C94.9961 41.418 95.1016 41.9688 95.3125 42.25C95.5234 42.5195 95.7812 42.6543 96.0859 42.6543C96.6484 42.6543 97.1641 42.373 97.6328 41.8105C97.7852 41.623 97.9199 41.377 98.0371 41.0723V37.1348C98.0371 36.7598 98.0137 36.5137 97.9668 36.3965C97.9199 36.2793 97.832 36.1914 97.7031 36.1328C97.5273 36.0859 97.3867 36.0215 97.2812 35.9395C97.1758 35.8574 97.123 35.7344 97.123 35.5703C97.123 35.1719 97.375 34.9727 97.8789 34.9727H99.4609C99.9648 34.9727 100.217 35.1836 100.217 35.6055V44.1836ZM102.01 37.1348C102.01 36.7598 101.98 36.5137 101.922 36.3965C101.875 36.2676 101.811 36.1855 101.729 36.1504C101.541 36.1035 101.383 36.0391 101.254 35.957C101.137 35.8633 101.078 35.7227 101.078 35.5352C101.078 35.1602 101.33 34.9727 101.834 34.9727H103.381C103.896 34.9727 104.154 35.1836 104.154 35.6055V35.7461C104.236 35.6641 104.324 35.5879 104.418 35.5176C104.945 35.0605 105.637 34.832 106.492 34.832H107.389V36.8008C106.264 36.5547 105.361 36.6895 104.682 37.2051C104.482 37.3457 104.307 37.5449 104.154 37.8027V44.1836H102.01V37.1348ZM110.324 44.1836H108.18V37.1348C108.18 36.7598 108.156 36.5195 108.109 36.4141C108.074 36.2969 108.01 36.2207 107.916 36.1855C107.705 36.1035 107.535 36.0273 107.406 35.957C107.277 35.8867 107.213 35.7461 107.213 35.5352C107.213 35.1602 107.459 34.9727 107.951 34.9727H109.568C110.072 34.9727 110.324 35.1836 110.324 35.6055V35.9219C110.453 35.7812 110.605 35.6465 110.781 35.5176C111.332 35.0605 111.994 34.832 112.768 34.832C113.611 34.832 114.291 35.1191 114.807 35.6934C115.334 36.2676 115.598 37.2344 115.598 38.5938V44.1836H113.418V38.5586C113.418 37.7383 113.312 37.1934 113.102 36.9238C112.891 36.6426 112.656 36.502 112.398 36.502C111.871 36.5137 111.35 36.8477 110.834 37.5039C110.635 37.7617 110.465 38.0547 110.324 38.3828V44.1836ZM116.477 39.543C116.477 38.1367 116.84 36.9883 117.566 36.0977C118.305 35.1953 119.371 34.7441 120.766 34.7441C122.172 34.7441 123.244 35.1953 123.982 36.0977C124.721 36.9883 125.09 38.1367 125.09 39.543C125.09 40.9375 124.721 42.0801 123.982 42.9707C123.244 43.8613 122.172 44.3066 120.766 44.3066C119.371 44.3066 118.305 43.8613 117.566 42.9707C116.84 42.0801 116.477 40.9375 116.477 39.543ZM118.779 39.543C118.779 40.6914 118.984 41.5352 119.395 42.0742C119.805 42.6016 120.262 42.8652 120.766 42.8652C121.281 42.8652 121.744 42.6016 122.154 42.0742C122.576 41.5352 122.787 40.6914 122.787 39.543C122.787 38.3828 122.576 37.5332 122.154 36.9941C121.744 36.4551 121.281 36.1855 120.766 36.1855C120.262 36.1855 119.805 36.4551 119.395 36.9941C118.984 37.5332 118.779 38.3828 118.779 39.543ZM128.518 40.0527C127.662 39.7598 126.971 39.3906 126.443 38.9453C125.928 38.4883 125.67 37.9375 125.67 37.293C125.67 36.5078 125.951 35.8809 126.514 35.4121C127.076 34.9316 127.908 34.6738 129.01 34.6387C129.49 34.6152 129.965 34.6562 130.434 34.7617C130.914 34.8555 131.383 35.0137 131.84 35.2363V37.3633C131.16 36.7773 130.609 36.4199 130.188 36.291C129.777 36.1504 129.408 36.0859 129.08 36.0977C128.693 36.0977 128.383 36.1797 128.148 36.3438C127.926 36.5078 127.803 36.7598 127.779 37.0996C127.768 37.3926 127.932 37.6621 128.271 37.9082C128.623 38.1426 129.115 38.3828 129.748 38.6289C130.697 38.9805 131.377 39.3789 131.787 39.8242C132.209 40.2695 132.42 40.791 132.42 41.3887C132.42 42.291 132.092 43.0059 131.436 43.5332C130.791 44.0488 129.883 44.3066 128.711 44.3066C128.137 44.3066 127.598 44.2305 127.094 44.0781C126.602 43.9141 126.232 43.7207 125.986 43.498C125.729 43.2754 125.594 43.0762 125.582 42.9004C125.57 42.7129 125.605 42.5547 125.688 42.4258C125.863 42.1797 126.086 42.0508 126.355 42.0391C126.625 42.0156 126.877 42.1094 127.111 42.3203C127.322 42.4727 127.58 42.6016 127.885 42.707C128.189 42.8008 128.465 42.8477 128.711 42.8477C129.285 42.8242 129.701 42.6719 129.959 42.3906C130.229 42.1094 130.328 41.7637 130.258 41.3535C130.234 41.1543 130.105 40.9434 129.871 40.7207C129.637 40.498 129.186 40.2754 128.518 40.0527Z" fill="#363636"/>
<path d="M672.516 38.9297L665.079 46.3672C664.565 46.8813 663.734 46.8813 663.225 46.3672L661.989 45.1313C661.475 44.6172 661.475 43.786 661.989 43.2774L667.261 38.0055L661.989 32.7336C661.475 32.2196 661.475 31.3883 661.989 30.8797L663.22 29.6329C663.734 29.1188 664.565 29.1188 665.073 29.6329L672.511 37.0704C673.03 37.5844 673.03 38.4157 672.516 38.9297Z" fill="#239B95"/>
<path d="M674.25 67H55.75V69H674.25V67Z" fill="#BCBCBD" mask="url(#path-2-inside-1_159_1293)"/>
<path d="M63.375 102.799V113.5H61.6099V104.894L58.9951 105.78V104.323L63.1626 102.799H63.375ZM68.9341 108.542L67.5278 108.197L68.1064 102.836H73.856V104.33H69.5713L69.2783 106.945C69.4443 106.847 69.6738 106.752 69.9668 106.659C70.2598 106.562 70.5942 106.513 70.9702 106.513C71.4731 106.513 71.9224 106.596 72.3179 106.762C72.7183 106.923 73.0576 107.16 73.3359 107.472C73.6143 107.78 73.8267 108.156 73.9731 108.6C74.1196 109.04 74.1929 109.535 74.1929 110.087C74.1929 110.58 74.1196 111.042 73.9731 111.471C73.8315 111.901 73.6167 112.279 73.3286 112.606C73.0405 112.934 72.6768 113.19 72.2373 113.375C71.8027 113.556 71.2876 113.646 70.6919 113.646C70.2476 113.646 69.8203 113.583 69.4102 113.456C69.0049 113.324 68.6411 113.131 68.3188 112.877C67.9966 112.619 67.7378 112.301 67.5425 111.925C67.3472 111.544 67.2349 111.107 67.2056 110.614H68.9341C68.978 110.961 69.0732 111.256 69.2197 111.5C69.3711 111.74 69.5713 111.923 69.8203 112.05C70.0693 112.177 70.3574 112.24 70.6846 112.24C70.9824 112.24 71.2388 112.189 71.4536 112.086C71.6685 111.979 71.8467 111.828 71.9883 111.632C72.1348 111.432 72.2422 111.198 72.3105 110.929C72.3838 110.661 72.4204 110.363 72.4204 110.036C72.4204 109.723 72.3789 109.438 72.2959 109.179C72.2178 108.92 72.0981 108.695 71.937 108.505C71.7808 108.314 71.583 108.168 71.3438 108.065C71.1045 107.958 70.8286 107.904 70.5161 107.904C70.0962 107.904 69.7739 107.965 69.5493 108.087C69.3296 108.209 69.1245 108.361 68.9341 108.542ZM75.731 112.621C75.731 112.348 75.8237 112.118 76.0093 111.933C76.1948 111.742 76.4463 111.647 76.7637 111.647C77.0859 111.647 77.3374 111.742 77.5181 111.933C77.7036 112.118 77.7964 112.348 77.7964 112.621C77.7964 112.895 77.7036 113.124 77.5181 113.31C77.3374 113.495 77.0859 113.588 76.7637 113.588C76.4463 113.588 76.1948 113.495 76.0093 113.31C75.8237 113.124 75.731 112.895 75.731 112.621ZM75.7383 106.381C75.7383 106.107 75.8311 105.878 76.0166 105.692C76.2021 105.502 76.4536 105.407 76.771 105.407C77.0933 105.407 77.3447 105.502 77.5254 105.692C77.7109 105.878 77.8037 106.107 77.8037 106.381C77.8037 106.654 77.7109 106.884 77.5254 107.069C77.3447 107.255 77.0933 107.348 76.771 107.348C76.4536 107.348 76.2021 107.255 76.0166 107.069C75.8311 106.884 75.7383 106.654 75.7383 106.381ZM86.5122 107.274V109.018C86.5122 109.853 86.4292 110.565 86.2632 111.156C86.1021 111.742 85.8677 112.218 85.5601 112.584C85.2524 112.951 84.8838 113.219 84.4541 113.39C84.0293 113.561 83.5532 113.646 83.0259 113.646C82.606 113.646 82.2153 113.593 81.854 113.485C81.4976 113.378 81.1753 113.209 80.8872 112.98C80.5991 112.75 80.3525 112.455 80.1475 112.094C79.9473 111.728 79.791 111.291 79.6787 110.783C79.5713 110.275 79.5176 109.687 79.5176 109.018V107.274C79.5176 106.435 79.6006 105.727 79.7666 105.15C79.9326 104.569 80.1694 104.098 80.4771 103.737C80.7847 103.371 81.1509 103.104 81.5757 102.938C82.0054 102.772 82.4839 102.689 83.0112 102.689C83.436 102.689 83.8267 102.743 84.1831 102.851C84.5444 102.953 84.8667 103.117 85.1499 103.341C85.438 103.566 85.6821 103.859 85.8823 104.22C86.0874 104.577 86.2437 105.009 86.3511 105.517C86.4585 106.02 86.5122 106.605 86.5122 107.274ZM84.7471 109.267V107.011C84.7471 106.586 84.7227 106.212 84.6738 105.89C84.625 105.563 84.5518 105.287 84.4541 105.062C84.3613 104.833 84.2441 104.647 84.1025 104.506C83.9609 104.359 83.7998 104.254 83.6191 104.191C83.4385 104.123 83.2358 104.088 83.0112 104.088C82.7378 104.088 82.4937 104.142 82.2788 104.25C82.064 104.352 81.8833 104.518 81.7368 104.748C81.5903 104.977 81.478 105.28 81.3999 105.656C81.3267 106.027 81.29 106.479 81.29 107.011V109.267C81.29 109.696 81.3145 110.075 81.3633 110.402C81.4121 110.729 81.4854 111.01 81.583 111.244C81.6807 111.474 81.7979 111.664 81.9346 111.815C82.0762 111.962 82.2373 112.069 82.418 112.138C82.6035 112.206 82.8062 112.24 83.0259 112.24C83.3042 112.24 83.5508 112.187 83.7656 112.079C83.9805 111.972 84.1611 111.801 84.3076 111.566C84.4541 111.327 84.564 111.017 84.6372 110.636C84.7104 110.255 84.7471 109.799 84.7471 109.267ZM95.0376 107.274V109.018C95.0376 109.853 94.9546 110.565 94.7886 111.156C94.6274 111.742 94.3931 112.218 94.0854 112.584C93.7778 112.951 93.4092 113.219 92.9795 113.39C92.5547 113.561 92.0786 113.646 91.5513 113.646C91.1313 113.646 90.7407 113.593 90.3794 113.485C90.0229 113.378 89.7007 113.209 89.4126 112.98C89.1245 112.75 88.8779 112.455 88.6729 112.094C88.4727 111.728 88.3164 111.291 88.2041 110.783C88.0967 110.275 88.043 109.687 88.043 109.018V107.274C88.043 106.435 88.126 105.727 88.292 105.15C88.458 104.569 88.6948 104.098 89.0024 103.737C89.3101 103.371 89.6763 103.104 90.1011 102.938C90.5308 102.772 91.0093 102.689 91.5366 102.689C91.9614 102.689 92.3521 102.743 92.7085 102.851C93.0698 102.953 93.3921 103.117 93.6753 103.341C93.9634 103.566 94.2075 103.859 94.4077 104.22C94.6128 104.577 94.769 105.009 94.8765 105.517C94.9839 106.02 95.0376 106.605 95.0376 107.274ZM93.2725 109.267V107.011C93.2725 106.586 93.248 106.212 93.1992 105.89C93.1504 105.563 93.0771 105.287 92.9795 105.062C92.8867 104.833 92.7695 104.647 92.6279 104.506C92.4863 104.359 92.3252 104.254 92.1445 104.191C91.9639 104.123 91.7612 104.088 91.5366 104.088C91.2632 104.088 91.019 104.142 90.8042 104.25C90.5894 104.352 90.4087 104.518 90.2622 104.748C90.1157 104.977 90.0034 105.28 89.9253 105.656C89.8521 106.027 89.8154 106.479 89.8154 107.011V109.267C89.8154 109.696 89.8398 110.075 89.8887 110.402C89.9375 110.729 90.0107 111.01 90.1084 111.244C90.2061 111.474 90.3232 111.664 90.46 111.815C90.6016 111.962 90.7627 112.069 90.9434 112.138C91.1289 112.206 91.3315 112.24 91.5513 112.24C91.8296 112.24 92.0762 112.187 92.291 112.079C92.5059 111.972 92.6865 111.801 92.833 111.566C92.9795 111.327 93.0894 111.017 93.1626 110.636C93.2358 110.255 93.2725 109.799 93.2725 109.267ZM102.193 102.25V113.5H100.436V102.25H102.193ZM101.886 109.245L101.314 109.237C101.319 108.69 101.395 108.185 101.542 107.721C101.693 107.257 101.903 106.854 102.171 106.513C102.445 106.166 102.772 105.9 103.153 105.714C103.534 105.524 103.956 105.429 104.42 105.429C104.811 105.429 105.162 105.482 105.475 105.59C105.792 105.697 106.065 105.871 106.295 106.11C106.524 106.344 106.698 106.652 106.815 107.033C106.937 107.409 106.998 107.868 106.998 108.41V113.5H105.226V108.395C105.226 108.014 105.169 107.711 105.057 107.487C104.95 107.262 104.791 107.101 104.581 107.003C104.371 106.901 104.115 106.85 103.812 106.85C103.495 106.85 103.214 106.913 102.97 107.04C102.73 107.167 102.53 107.34 102.369 107.56C102.208 107.78 102.086 108.034 102.003 108.322C101.925 108.61 101.886 108.917 101.886 109.245ZM113.231 111.354C113.231 111.178 113.187 111.02 113.099 110.878C113.011 110.731 112.843 110.6 112.594 110.482C112.35 110.365 111.988 110.258 111.51 110.16C111.09 110.067 110.704 109.958 110.353 109.831C110.006 109.699 109.708 109.54 109.459 109.354C109.21 109.169 109.017 108.949 108.88 108.695C108.744 108.441 108.675 108.148 108.675 107.816C108.675 107.494 108.746 107.189 108.888 106.901C109.029 106.613 109.232 106.359 109.496 106.139C109.759 105.919 110.079 105.746 110.455 105.619C110.836 105.492 111.261 105.429 111.729 105.429C112.394 105.429 112.962 105.541 113.436 105.766C113.915 105.985 114.281 106.286 114.535 106.667C114.789 107.042 114.916 107.467 114.916 107.941H113.15C113.15 107.731 113.097 107.536 112.989 107.355C112.887 107.169 112.73 107.021 112.521 106.908C112.311 106.791 112.047 106.732 111.729 106.732C111.427 106.732 111.175 106.781 110.975 106.879C110.78 106.972 110.633 107.094 110.536 107.245C110.443 107.396 110.396 107.562 110.396 107.743C110.396 107.875 110.421 107.995 110.47 108.102C110.523 108.205 110.611 108.3 110.733 108.388C110.855 108.471 111.021 108.549 111.231 108.622C111.446 108.695 111.715 108.766 112.037 108.834C112.643 108.961 113.163 109.125 113.597 109.325C114.037 109.521 114.374 109.774 114.608 110.087C114.842 110.395 114.959 110.785 114.959 111.259C114.959 111.61 114.884 111.933 114.732 112.226C114.586 112.514 114.371 112.765 114.088 112.98C113.805 113.19 113.465 113.354 113.07 113.471C112.679 113.588 112.24 113.646 111.751 113.646C111.034 113.646 110.426 113.52 109.928 113.266C109.43 113.007 109.051 112.677 108.792 112.277C108.539 111.872 108.412 111.452 108.412 111.017H110.118C110.138 111.344 110.228 111.605 110.389 111.801C110.555 111.991 110.76 112.13 111.004 112.218C111.253 112.301 111.51 112.343 111.773 112.343C112.091 112.343 112.357 112.301 112.572 112.218C112.787 112.13 112.95 112.013 113.062 111.867C113.175 111.715 113.231 111.544 113.231 111.354ZM116.578 112.621C116.578 112.348 116.671 112.118 116.856 111.933C117.042 111.742 117.293 111.647 117.611 111.647C117.933 111.647 118.185 111.742 118.365 111.933C118.551 112.118 118.644 112.348 118.644 112.621C118.644 112.895 118.551 113.124 118.365 113.31C118.185 113.495 117.933 113.588 117.611 113.588C117.293 113.588 117.042 113.495 116.856 113.31C116.671 113.124 116.578 112.895 116.578 112.621Z" fill="#363636"/>
<path d="M59.071 126.091H60.6477L64.3551 135.146H64.483L68.1903 126.091H69.767V137H68.5312V128.712H68.4247L65.0156 137H63.8224L60.4134 128.712H60.3068V137H59.071V126.091ZM72.2453 137V128.818H73.5024V137H72.2453ZM72.8845 127.455C72.6395 127.455 72.4282 127.371 72.2506 127.204C72.0766 127.037 71.9896 126.837 71.9896 126.602C71.9896 126.368 72.0766 126.167 72.2506 126C72.4282 125.833 72.6395 125.75 72.8845 125.75C73.1295 125.75 73.339 125.833 73.5131 126C73.6906 126.167 73.7794 126.368 73.7794 126.602C73.7794 126.837 73.6906 127.037 73.5131 127.204C73.339 127.371 73.1295 127.455 72.8845 127.455ZM79.2353 137.17C78.4469 137.17 77.7669 136.996 77.1951 136.648C76.627 136.297 76.1884 135.807 75.8794 135.178C75.574 134.546 75.4213 133.811 75.4213 132.973C75.4213 132.135 75.574 131.396 75.8794 130.757C76.1884 130.114 76.6181 129.614 77.1685 129.255C77.7225 128.893 78.3688 128.712 79.1074 128.712C79.5336 128.712 79.9544 128.783 80.3699 128.925C80.7853 129.067 81.1635 129.298 81.5044 129.617C81.8453 129.933 82.117 130.352 82.3194 130.874C82.5218 131.396 82.623 132.039 82.623 132.803V133.335H76.3162V132.249H81.3446C81.3446 131.787 81.2523 131.375 81.0676 131.013C80.8865 130.651 80.6273 130.365 80.29 130.155C79.9561 129.946 79.562 129.841 79.1074 129.841C78.6067 129.841 78.1735 129.965 77.8077 130.214C77.4455 130.459 77.1667 130.778 76.9714 131.173C76.7761 131.567 76.6784 131.989 76.6784 132.44V133.165C76.6784 133.783 76.785 134.306 76.998 134.736C77.2147 135.162 77.5147 135.487 77.8983 135.711C78.2818 135.931 78.7275 136.041 79.2353 136.041C79.5655 136.041 79.8638 135.995 80.1301 135.903C80.4 135.807 80.6326 135.665 80.8279 135.477C81.0233 135.285 81.1742 135.047 81.2807 134.763L82.4952 135.104C82.3674 135.516 82.1525 135.878 81.8507 136.19C81.5488 136.499 81.176 136.741 80.7321 136.915C80.2882 137.085 79.7892 137.17 79.2353 137.17ZM78.4682 127.71L79.7679 125.239H81.2381L79.5762 127.71H78.4682ZM84.5353 137V128.818H85.7498V130.054H85.835C85.9842 129.649 86.2541 129.321 86.6447 129.069C87.0353 128.816 87.4757 128.69 87.9657 128.69C88.0581 128.69 88.1735 128.692 88.312 128.696C88.4505 128.699 88.5552 128.705 88.6262 128.712V129.99C88.5836 129.979 88.486 129.963 88.3333 129.942C88.1841 129.917 88.0261 129.905 87.8592 129.905C87.4615 129.905 87.1064 129.988 86.7939 130.155C86.4849 130.319 86.2399 130.546 86.0588 130.837C85.8812 131.125 85.7924 131.453 85.7924 131.822V137H84.5353ZM93.1912 137.17C92.4242 137.17 91.7637 136.989 91.2097 136.627C90.6557 136.265 90.2296 135.766 89.9313 135.13C89.633 134.495 89.4838 133.768 89.4838 132.952C89.4838 132.121 89.6365 131.387 89.9419 130.752C90.2509 130.113 90.6806 129.614 91.231 129.255C91.785 128.893 92.4313 128.712 93.1699 128.712C93.7452 128.712 94.2637 128.818 94.7253 129.031C95.187 129.244 95.5652 129.543 95.8599 129.926C96.1547 130.31 96.3375 130.757 96.4086 131.268H95.1515C95.0556 130.896 94.8425 130.565 94.5123 130.278C94.1855 129.987 93.7452 129.841 93.1912 129.841C92.7012 129.841 92.2715 129.969 91.9022 130.224C91.5364 130.477 91.2505 130.833 91.0446 131.295C90.8422 131.753 90.7409 132.291 90.7409 132.909C90.7409 133.541 90.8404 134.092 91.0392 134.56C91.2417 135.029 91.5257 135.393 91.8915 135.652C92.2608 135.912 92.6941 136.041 93.1912 136.041C93.5179 136.041 93.8145 135.984 94.0808 135.871C94.3471 135.757 94.5726 135.594 94.7573 135.381C94.9419 135.168 95.0733 134.912 95.1515 134.614H96.4086C96.3375 135.097 96.1618 135.532 95.8812 135.919C95.6042 136.302 95.2367 136.608 94.7786 136.835C94.324 137.059 93.7949 137.17 93.1912 137.17ZM101.57 137.17C100.831 137.17 100.183 136.995 99.6259 136.643C99.0719 136.292 98.6387 135.8 98.3262 135.168C98.0172 134.536 97.8627 133.797 97.8627 132.952C97.8627 132.099 98.0172 131.355 98.3262 130.72C98.6387 130.084 99.0719 129.591 99.6259 129.239C100.183 128.887 100.831 128.712 101.57 128.712C102.309 128.712 102.955 128.887 103.509 129.239C104.067 129.591 104.5 130.084 104.809 130.72C105.121 131.355 105.278 132.099 105.278 132.952C105.278 133.797 105.121 134.536 104.809 135.168C104.5 135.8 104.067 136.292 103.509 136.643C102.955 136.995 102.309 137.17 101.57 137.17ZM101.57 136.041C102.131 136.041 102.593 135.897 102.955 135.61C103.317 135.322 103.585 134.944 103.759 134.475C103.933 134.006 104.02 133.499 104.02 132.952C104.02 132.405 103.933 131.895 103.759 131.423C103.585 130.951 103.317 130.569 102.955 130.278C102.593 129.987 102.131 129.841 101.57 129.841C101.009 129.841 100.547 129.987 100.185 130.278C99.823 130.569 99.5549 130.951 99.3809 131.423C99.2069 131.895 99.1199 132.405 99.1199 132.952C99.1199 133.499 99.2069 134.006 99.3809 134.475C99.5549 134.944 99.823 135.322 100.185 135.61C100.547 135.897 101.009 136.041 101.57 136.041ZM108.454 126.091V137H107.196V126.091H108.454ZM114.186 137.17C113.398 137.17 112.718 136.996 112.146 136.648C111.578 136.297 111.14 135.807 110.831 135.178C110.525 134.546 110.373 133.811 110.373 132.973C110.373 132.135 110.525 131.396 110.831 130.757C111.14 130.114 111.569 129.614 112.12 129.255C112.674 128.893 113.32 128.712 114.059 128.712C114.485 128.712 114.906 128.783 115.321 128.925C115.737 129.067 116.115 129.298 116.456 129.617C116.797 129.933 117.068 130.352 117.271 130.874C117.473 131.396 117.574 132.039 117.574 132.803V133.335H111.267V132.249H116.296C116.296 131.787 116.203 131.375 116.019 131.013C115.838 130.651 115.578 130.365 115.241 130.155C114.907 129.946 114.513 129.841 114.059 129.841C113.558 129.841 113.125 129.965 112.759 130.214C112.397 130.459 112.118 130.778 111.923 131.173C111.727 131.567 111.63 131.989 111.63 132.44V133.165C111.63 133.783 111.736 134.306 111.949 134.736C112.166 135.162 112.466 135.487 112.849 135.711C113.233 135.931 113.679 136.041 114.186 136.041C114.517 136.041 114.815 135.995 115.081 135.903C115.351 135.807 115.584 135.665 115.779 135.477C115.974 135.285 116.125 135.047 116.232 134.763L117.446 135.104C117.319 135.516 117.104 135.878 116.802 136.19C116.5 136.499 116.127 136.741 115.683 136.915C115.239 137.085 114.74 137.17 114.186 137.17ZM125.282 130.651L124.153 130.97C124.082 130.782 123.977 130.599 123.838 130.422C123.703 130.24 123.519 130.091 123.284 129.974C123.05 129.857 122.75 129.798 122.384 129.798C121.884 129.798 121.466 129.914 121.132 130.145C120.802 130.372 120.637 130.661 120.637 131.013C120.637 131.325 120.751 131.572 120.978 131.753C121.205 131.934 121.56 132.085 122.043 132.206L123.258 132.504C123.989 132.682 124.534 132.953 124.893 133.319C125.252 133.681 125.431 134.148 125.431 134.72C125.431 135.189 125.296 135.608 125.026 135.977C124.76 136.347 124.387 136.638 123.908 136.851C123.428 137.064 122.871 137.17 122.235 137.17C121.401 137.17 120.71 136.989 120.163 136.627C119.616 136.265 119.27 135.736 119.124 135.04L120.317 134.741C120.431 135.182 120.646 135.512 120.962 135.732C121.282 135.952 121.699 136.062 122.214 136.062C122.8 136.062 123.265 135.938 123.609 135.69C123.957 135.437 124.131 135.136 124.131 134.784C124.131 134.5 124.032 134.262 123.833 134.07C123.634 133.875 123.329 133.729 122.917 133.634L121.553 133.314C120.804 133.136 120.254 132.861 119.902 132.488C119.554 132.112 119.38 131.641 119.38 131.077C119.38 130.615 119.51 130.207 119.769 129.852C120.032 129.496 120.388 129.218 120.839 129.015C121.294 128.813 121.809 128.712 122.384 128.712C123.194 128.712 123.83 128.889 124.291 129.244C124.756 129.599 125.087 130.068 125.282 130.651ZM128.436 135.389V136.48C128.436 136.924 128.324 137.393 128.099 137.886C127.875 138.384 127.56 138.799 127.154 139.131L126.385 138.597C126.542 138.382 126.673 138.162 126.781 137.938C126.888 137.718 126.969 137.488 127.022 137.249C127.081 137.015 127.11 136.766 127.11 136.502V135.389H128.436ZM140.433 130.818V132.444C140.433 133.318 140.355 134.056 140.199 134.656C140.042 135.257 139.818 135.74 139.525 136.106C139.232 136.473 138.878 136.739 138.463 136.905C138.053 137.066 137.589 137.146 137.071 137.146C136.661 137.146 136.283 137.095 135.936 136.993C135.589 136.89 135.277 136.727 134.999 136.502C134.725 136.272 134.491 135.975 134.295 135.608C134.1 135.242 133.951 134.798 133.849 134.275C133.746 133.753 133.695 133.143 133.695 132.444V130.818C133.695 129.944 133.773 129.212 133.929 128.621C134.09 128.03 134.317 127.557 134.61 127.2C134.903 126.839 135.255 126.58 135.665 126.424C136.08 126.268 136.544 126.189 137.057 126.189C137.472 126.189 137.853 126.241 138.199 126.343C138.551 126.441 138.863 126.6 139.137 126.819C139.41 127.034 139.642 127.322 139.833 127.684C140.028 128.04 140.177 128.477 140.279 128.995C140.382 129.512 140.433 130.12 140.433 130.818ZM139.071 132.664V130.591C139.071 130.113 139.042 129.693 138.983 129.332C138.929 128.965 138.849 128.653 138.741 128.394C138.634 128.135 138.497 127.925 138.331 127.764C138.17 127.603 137.982 127.486 137.767 127.413C137.557 127.334 137.32 127.295 137.057 127.295C136.734 127.295 136.449 127.356 136.2 127.479C135.951 127.596 135.741 127.784 135.57 128.042C135.404 128.301 135.277 128.641 135.189 129.061C135.101 129.48 135.057 129.991 135.057 130.591V132.664C135.057 133.143 135.084 133.565 135.138 133.931C135.196 134.297 135.282 134.615 135.394 134.883C135.506 135.147 135.643 135.364 135.804 135.535C135.965 135.706 136.151 135.833 136.361 135.916C136.576 135.994 136.812 136.033 137.071 136.033C137.403 136.033 137.694 135.97 137.943 135.843C138.192 135.716 138.399 135.518 138.565 135.25C138.736 134.976 138.863 134.627 138.946 134.202C139.029 133.772 139.071 133.26 139.071 132.664ZM147.376 126.321H147.494V127.471H147.376C146.659 127.471 146.058 127.588 145.575 127.823C145.091 128.052 144.708 128.362 144.425 128.753C144.142 129.139 143.937 129.573 143.81 130.057C143.688 130.54 143.626 131.031 143.626 131.529V133.096C143.626 133.57 143.683 133.99 143.795 134.356C143.907 134.717 144.061 135.022 144.256 135.271C144.452 135.521 144.671 135.708 144.916 135.835C145.165 135.962 145.423 136.026 145.692 136.026C146.004 136.026 146.283 135.967 146.527 135.85C146.771 135.728 146.976 135.56 147.142 135.345C147.313 135.125 147.442 134.866 147.53 134.568C147.618 134.271 147.662 133.943 147.662 133.587C147.662 133.27 147.623 132.964 147.545 132.671C147.467 132.374 147.347 132.11 147.186 131.88C147.025 131.646 146.822 131.463 146.578 131.331C146.339 131.194 146.053 131.126 145.721 131.126C145.345 131.126 144.994 131.219 144.667 131.404C144.344 131.585 144.078 131.824 143.868 132.122C143.663 132.415 143.546 132.735 143.517 133.082L142.799 133.074C142.867 132.527 142.994 132.061 143.18 131.675C143.37 131.285 143.604 130.967 143.883 130.723C144.166 130.474 144.481 130.293 144.828 130.181C145.179 130.064 145.55 130.005 145.941 130.005C146.473 130.005 146.932 130.105 147.318 130.306C147.704 130.506 148.021 130.774 148.27 131.111C148.519 131.443 148.702 131.819 148.819 132.239C148.941 132.654 149.002 133.082 149.002 133.521C149.002 134.024 148.932 134.495 148.79 134.935C148.648 135.374 148.436 135.76 148.153 136.092C147.875 136.424 147.53 136.683 147.12 136.868C146.71 137.054 146.234 137.146 145.692 137.146C145.116 137.146 144.613 137.029 144.183 136.795C143.753 136.556 143.397 136.238 143.114 135.843C142.831 135.447 142.618 135.008 142.477 134.524C142.335 134.041 142.264 133.55 142.264 133.052V132.415C142.264 131.663 142.34 130.926 142.491 130.203C142.643 129.48 142.904 128.826 143.275 128.24C143.651 127.654 144.171 127.188 144.835 126.841C145.499 126.495 146.346 126.321 147.376 126.321ZM159.476 135.462V125.75H160.838V137H159.593L159.476 135.462ZM154.144 133.125V132.972C154.144 132.366 154.217 131.817 154.364 131.324C154.515 130.826 154.728 130.398 155.001 130.042C155.279 129.686 155.609 129.412 155.99 129.222C156.375 129.026 156.805 128.929 157.279 128.929C157.777 128.929 158.211 129.017 158.583 129.192C158.958 129.363 159.276 129.615 159.535 129.947C159.798 130.274 160.006 130.669 160.157 131.133C160.309 131.597 160.414 132.122 160.472 132.708V133.382C160.418 133.963 160.313 134.485 160.157 134.949C160.006 135.413 159.798 135.809 159.535 136.136C159.276 136.463 158.958 136.714 158.583 136.89C158.207 137.061 157.767 137.146 157.264 137.146C156.8 137.146 156.375 137.046 155.99 136.846C155.609 136.646 155.279 136.365 155.001 136.004C154.728 135.643 154.515 135.218 154.364 134.729C154.217 134.236 154.144 133.702 154.144 133.125ZM155.506 132.972V133.125C155.506 133.521 155.545 133.892 155.624 134.239C155.707 134.585 155.833 134.891 156.004 135.154C156.175 135.418 156.393 135.625 156.656 135.777C156.92 135.923 157.235 135.997 157.601 135.997C158.05 135.997 158.419 135.901 158.707 135.711C159 135.521 159.234 135.269 159.41 134.957C159.586 134.644 159.723 134.305 159.82 133.938V132.173C159.762 131.905 159.676 131.646 159.564 131.397C159.457 131.143 159.315 130.918 159.139 130.723C158.968 130.523 158.756 130.364 158.502 130.247C158.253 130.13 157.958 130.071 157.616 130.071C157.245 130.071 156.925 130.149 156.656 130.306C156.393 130.457 156.175 130.667 156.004 130.936C155.833 131.199 155.707 131.507 155.624 131.858C155.545 132.205 155.506 132.576 155.506 132.972ZM166.236 137.146C165.685 137.146 165.184 137.054 164.735 136.868C164.291 136.678 163.907 136.412 163.585 136.07C163.268 135.728 163.023 135.323 162.853 134.854C162.682 134.385 162.596 133.873 162.596 133.316V133.008C162.596 132.364 162.691 131.79 162.882 131.287C163.072 130.779 163.331 130.35 163.658 129.998C163.985 129.646 164.356 129.38 164.771 129.2C165.187 129.019 165.616 128.929 166.061 128.929C166.627 128.929 167.115 129.026 167.525 129.222C167.94 129.417 168.28 129.69 168.543 130.042C168.807 130.389 169.002 130.799 169.129 131.272C169.256 131.741 169.32 132.254 169.32 132.811V133.418H163.402V132.312H167.965V132.21C167.945 131.858 167.872 131.517 167.745 131.185C167.623 130.853 167.428 130.579 167.159 130.364C166.891 130.149 166.524 130.042 166.061 130.042C165.753 130.042 165.47 130.108 165.211 130.24C164.952 130.367 164.73 130.557 164.544 130.811C164.359 131.065 164.215 131.375 164.112 131.741C164.01 132.107 163.958 132.53 163.958 133.008V133.316C163.958 133.692 164.01 134.046 164.112 134.378C164.22 134.705 164.374 134.993 164.574 135.242C164.779 135.491 165.025 135.687 165.313 135.828C165.606 135.97 165.938 136.041 166.31 136.041C166.788 136.041 167.193 135.943 167.525 135.748C167.857 135.552 168.148 135.291 168.397 134.964L169.217 135.616C169.046 135.875 168.829 136.121 168.565 136.355C168.302 136.59 167.977 136.78 167.591 136.927C167.21 137.073 166.759 137.146 166.236 137.146ZM180.511 134.305C180.511 134.056 180.472 133.836 180.394 133.646C180.321 133.45 180.189 133.274 179.999 133.118C179.813 132.962 179.554 132.813 179.222 132.671C178.895 132.53 178.48 132.386 177.977 132.239C177.45 132.083 176.974 131.91 176.549 131.719C176.124 131.524 175.76 131.302 175.458 131.053C175.155 130.804 174.923 130.518 174.762 130.196C174.601 129.874 174.52 129.505 174.52 129.09C174.52 128.675 174.605 128.292 174.776 127.94C174.947 127.588 175.191 127.283 175.509 127.024C175.831 126.761 176.214 126.556 176.659 126.409C177.103 126.263 177.599 126.189 178.146 126.189C178.946 126.189 179.625 126.343 180.182 126.651C180.743 126.954 181.17 127.352 181.463 127.845C181.756 128.333 181.903 128.855 181.903 129.412H180.497C180.497 129.012 180.411 128.658 180.24 128.35C180.069 128.038 179.811 127.793 179.464 127.618C179.117 127.437 178.678 127.347 178.146 127.347C177.643 127.347 177.228 127.422 176.9 127.574C176.573 127.725 176.329 127.93 176.168 128.189C176.012 128.448 175.934 128.743 175.934 129.075C175.934 129.3 175.98 129.505 176.073 129.69C176.17 129.871 176.319 130.04 176.52 130.196C176.725 130.352 176.983 130.496 177.296 130.628C177.613 130.76 177.992 130.887 178.431 131.009C179.037 131.18 179.559 131.37 179.999 131.58C180.438 131.79 180.799 132.027 181.083 132.291C181.371 132.549 181.583 132.845 181.72 133.177C181.861 133.504 181.932 133.875 181.932 134.29C181.932 134.725 181.844 135.118 181.668 135.469C181.493 135.821 181.241 136.121 180.914 136.37C180.587 136.619 180.194 136.812 179.735 136.949C179.281 137.081 178.773 137.146 178.211 137.146C177.718 137.146 177.232 137.078 176.754 136.941C176.28 136.805 175.848 136.6 175.458 136.326C175.072 136.053 174.762 135.716 174.527 135.315C174.298 134.91 174.183 134.441 174.183 133.909H175.589C175.589 134.275 175.66 134.59 175.802 134.854C175.943 135.113 176.136 135.328 176.38 135.499C176.629 135.669 176.91 135.796 177.223 135.879C177.54 135.958 177.87 135.997 178.211 135.997C178.705 135.997 179.122 135.928 179.464 135.792C179.806 135.655 180.064 135.459 180.24 135.206C180.421 134.952 180.511 134.651 180.511 134.305ZM186.817 137.146C186.266 137.146 185.765 137.054 185.316 136.868C184.872 136.678 184.488 136.412 184.166 136.07C183.849 135.728 183.604 135.323 183.434 134.854C183.263 134.385 183.177 133.873 183.177 133.316V133.008C183.177 132.364 183.272 131.79 183.463 131.287C183.653 130.779 183.912 130.35 184.239 129.998C184.566 129.646 184.938 129.38 185.353 129.2C185.768 129.019 186.197 128.929 186.642 128.929C187.208 128.929 187.696 129.026 188.106 129.222C188.521 129.417 188.861 129.69 189.125 130.042C189.388 130.389 189.583 130.799 189.71 131.272C189.837 131.741 189.901 132.254 189.901 132.811V133.418H183.983V132.312H188.546V132.21C188.526 131.858 188.453 131.517 188.326 131.185C188.204 130.853 188.009 130.579 187.74 130.364C187.472 130.149 187.105 130.042 186.642 130.042C186.334 130.042 186.051 130.108 185.792 130.24C185.533 130.367 185.311 130.557 185.125 130.811C184.94 131.065 184.796 131.375 184.693 131.741C184.591 132.107 184.54 132.53 184.54 133.008V133.316C184.54 133.692 184.591 134.046 184.693 134.378C184.801 134.705 184.955 134.993 185.155 135.242C185.36 135.491 185.606 135.687 185.895 135.828C186.188 135.97 186.52 136.041 186.891 136.041C187.369 136.041 187.774 135.943 188.106 135.748C188.438 135.552 188.729 135.291 188.978 134.964L189.798 135.616C189.627 135.875 189.41 136.121 189.146 136.355C188.883 136.59 188.558 136.78 188.172 136.927C187.792 137.073 187.34 137.146 186.817 137.146ZM192.838 130.599V140.047H191.476V129.075H192.721L192.838 130.599ZM198.177 132.972V133.125C198.177 133.702 198.109 134.236 197.972 134.729C197.835 135.218 197.635 135.643 197.372 136.004C197.113 136.365 196.793 136.646 196.412 136.846C196.031 137.046 195.594 137.146 195.101 137.146C194.598 137.146 194.154 137.063 193.768 136.897C193.382 136.731 193.055 136.49 192.787 136.172C192.518 135.855 192.303 135.474 192.142 135.03C191.986 134.585 191.878 134.085 191.82 133.528V132.708C191.878 132.122 191.988 131.597 192.149 131.133C192.311 130.669 192.523 130.274 192.787 129.947C193.055 129.615 193.38 129.363 193.761 129.192C194.142 129.017 194.581 128.929 195.079 128.929C195.577 128.929 196.019 129.026 196.405 129.222C196.791 129.412 197.115 129.686 197.379 130.042C197.643 130.398 197.84 130.826 197.972 131.324C198.109 131.817 198.177 132.366 198.177 132.972ZM196.815 133.125V132.972C196.815 132.576 196.773 132.205 196.69 131.858C196.607 131.507 196.478 131.199 196.302 130.936C196.131 130.667 195.912 130.457 195.643 130.306C195.375 130.149 195.055 130.071 194.684 130.071C194.342 130.071 194.044 130.13 193.79 130.247C193.541 130.364 193.329 130.523 193.153 130.723C192.977 130.918 192.833 131.143 192.721 131.397C192.613 131.646 192.533 131.905 192.479 132.173V134.07C192.577 134.412 192.713 134.734 192.889 135.037C193.065 135.335 193.299 135.577 193.592 135.762C193.885 135.943 194.254 136.033 194.698 136.033C195.064 136.033 195.379 135.958 195.643 135.806C195.912 135.65 196.131 135.438 196.302 135.169C196.478 134.9 196.607 134.593 196.69 134.246C196.773 133.895 196.815 133.521 196.815 133.125ZM199.928 136.282C199.928 136.053 199.999 135.86 200.14 135.704C200.287 135.542 200.497 135.462 200.77 135.462C201.043 135.462 201.251 135.542 201.393 135.704C201.539 135.86 201.612 136.053 201.612 136.282C201.612 136.507 201.539 136.697 201.393 136.854C201.251 137.01 201.043 137.088 200.77 137.088C200.497 137.088 200.287 137.01 200.14 136.854C199.999 136.697 199.928 136.507 199.928 136.282Z" fill="#797979"/>
<path d="M59.071 159.5V148.591H65.6122V149.763H60.392V153.449H65.1222V154.621H60.392V159.5H59.071ZM67.7043 159.5V151.318H68.9614V159.5H67.7043ZM68.3435 149.955C68.0985 149.955 67.8872 149.871 67.7096 149.704C67.5356 149.537 67.4486 149.337 67.4486 149.102C67.4486 148.868 67.5356 148.667 67.7096 148.5C67.8872 148.333 68.0985 148.25 68.3435 148.25C68.5885 148.25 68.798 148.333 68.972 148.5C69.1496 148.667 69.2384 148.868 69.2384 149.102C69.2384 149.337 69.1496 149.537 68.972 149.704C68.798 149.871 68.5885 149.955 68.3435 149.955ZM77.0593 153.151L75.93 153.47C75.859 153.282 75.7543 153.099 75.6158 152.922C75.4808 152.74 75.2962 152.591 75.0618 152.474C74.8274 152.357 74.5273 152.298 74.1616 152.298C73.6609 152.298 73.2436 152.414 72.9098 152.645C72.5795 152.872 72.4144 153.161 72.4144 153.513C72.4144 153.825 72.5281 154.072 72.7553 154.253C72.9826 154.434 73.3377 154.585 73.8207 154.706L75.0352 155.004C75.7667 155.182 76.3118 155.453 76.6705 155.819C77.0291 156.181 77.2085 156.648 77.2085 157.22C77.2085 157.689 77.0735 158.108 76.8036 158.477C76.5373 158.847 76.1644 159.138 75.685 159.351C75.2056 159.564 74.6481 159.67 74.0124 159.67C73.1779 159.67 72.4872 159.489 71.9403 159.127C71.3935 158.765 71.0472 158.236 70.9016 157.54L72.0948 157.241C72.2085 157.682 72.4233 158.012 72.7393 158.232C73.0589 158.452 73.4762 158.562 73.9911 158.562C74.5771 158.562 75.0423 158.438 75.3867 158.19C75.7347 157.937 75.9087 157.636 75.9087 157.284C75.9087 157 75.8093 156.762 75.6104 156.57C75.4116 156.375 75.1062 156.229 74.6942 156.134L73.3306 155.814C72.5813 155.636 72.0309 155.361 71.6793 154.988C71.3313 154.612 71.1573 154.141 71.1573 153.577C71.1573 153.115 71.2869 152.707 71.5462 152.352C71.8089 151.996 72.1658 151.718 72.6168 151.515C73.0714 151.313 73.5863 151.212 74.1616 151.212C74.9712 151.212 75.6069 151.389 76.0685 151.744C76.5337 152.099 76.864 152.568 77.0593 153.151ZM79.1008 159.5V151.318H80.3579V159.5H79.1008ZM79.74 149.955C79.4949 149.955 79.2836 149.871 79.1061 149.704C78.9321 149.537 78.8451 149.337 78.8451 149.102C78.8451 148.868 78.9321 148.667 79.1061 148.5C79.2836 148.333 79.4949 148.25 79.74 148.25C79.985 148.25 80.1945 148.333 80.3685 148.5C80.5461 148.667 80.6349 148.868 80.6349 149.102C80.6349 149.337 80.5461 149.537 80.3685 149.704C80.1945 149.871 79.985 149.955 79.74 149.955ZM85.9842 159.67C85.2456 159.67 84.5975 159.495 84.04 159.143C83.486 158.792 83.0527 158.3 82.7402 157.668C82.4313 157.036 82.2768 156.297 82.2768 155.452C82.2768 154.599 82.4313 153.855 82.7402 153.22C83.0527 152.584 83.486 152.091 84.04 151.739C84.5975 151.387 85.2456 151.212 85.9842 151.212C86.7228 151.212 87.3691 151.387 87.9231 151.739C88.4806 152.091 88.9139 152.584 89.2228 153.22C89.5353 153.855 89.6916 154.599 89.6916 155.452C89.6916 156.297 89.5353 157.036 89.2228 157.668C88.9139 158.3 88.4806 158.792 87.9231 159.143C87.3691 159.495 86.7228 159.67 85.9842 159.67ZM85.9842 158.541C86.5453 158.541 87.0069 158.397 87.3691 158.11C87.7314 157.822 87.9995 157.444 88.1735 156.975C88.3475 156.506 88.4345 155.999 88.4345 155.452C88.4345 154.905 88.3475 154.395 88.1735 153.923C87.9995 153.451 87.7314 153.069 87.3691 152.778C87.0069 152.487 86.5453 152.341 85.9842 152.341C85.4231 152.341 84.9615 152.487 84.5993 152.778C84.237 153.069 83.9689 153.451 83.7949 153.923C83.6209 154.395 83.5339 154.905 83.5339 155.452C83.5339 155.999 83.6209 156.506 83.7949 156.975C83.9689 157.444 84.237 157.822 84.5993 158.11C84.9615 158.397 85.4231 158.541 85.9842 158.541ZM92.8676 148.591V159.5H91.6105V148.591H92.8676ZM98.494 159.67C97.7553 159.67 97.1072 159.495 96.5497 159.143C95.9957 158.792 95.5625 158.3 95.25 157.668C94.9411 157.036 94.7866 156.297 94.7866 155.452C94.7866 154.599 94.9411 153.855 95.25 153.22C95.5625 152.584 95.9957 152.091 96.5497 151.739C97.1072 151.387 97.7553 151.212 98.494 151.212C99.2326 151.212 99.8789 151.387 100.433 151.739C100.99 152.091 101.424 152.584 101.733 153.22C102.045 153.855 102.201 154.599 102.201 155.452C102.201 156.297 102.045 157.036 101.733 157.668C101.424 158.3 100.99 158.792 100.433 159.143C99.8789 159.495 99.2326 159.67 98.494 159.67ZM98.494 158.541C99.055 158.541 99.5167 158.397 99.8789 158.11C100.241 157.822 100.509 157.444 100.683 156.975C100.857 156.506 100.944 155.999 100.944 155.452C100.944 154.905 100.857 154.395 100.683 153.923C100.509 153.451 100.241 153.069 99.8789 152.778C99.5167 152.487 99.055 152.341 98.494 152.341C97.9329 152.341 97.4712 152.487 97.109 152.778C96.7468 153.069 96.4787 153.451 96.3047 153.923C96.1307 154.395 96.0437 154.905 96.0437 155.452C96.0437 155.999 96.1307 156.506 96.3047 156.975C96.4787 157.444 96.7468 157.822 97.109 158.11C97.4712 158.397 97.9329 158.541 98.494 158.541ZM107.423 162.739C106.816 162.739 106.294 162.661 105.857 162.504C105.42 162.352 105.056 162.149 104.765 161.897C104.477 161.648 104.248 161.382 104.078 161.098L105.079 160.395C105.193 160.544 105.337 160.714 105.511 160.906C105.685 161.102 105.922 161.27 106.224 161.412C106.53 161.558 106.929 161.631 107.423 161.631C108.083 161.631 108.628 161.471 109.058 161.151C109.488 160.832 109.703 160.331 109.703 159.649V157.987H109.596C109.504 158.136 109.372 158.321 109.202 158.541C109.035 158.758 108.794 158.951 108.478 159.122C108.165 159.289 107.742 159.372 107.21 159.372C106.549 159.372 105.956 159.216 105.431 158.903C104.909 158.591 104.495 158.136 104.19 157.54C103.888 156.943 103.737 156.219 103.737 155.366C103.737 154.528 103.884 153.799 104.179 153.177C104.474 152.552 104.884 152.069 105.409 151.728C105.935 151.384 106.542 151.212 107.231 151.212C107.764 151.212 108.186 151.3 108.499 151.478C108.815 151.652 109.056 151.851 109.223 152.075C109.394 152.295 109.525 152.476 109.617 152.618H109.745V151.318H110.96V159.734C110.96 160.438 110.8 161.009 110.48 161.45C110.164 161.893 109.738 162.218 109.202 162.424C108.669 162.634 108.076 162.739 107.423 162.739ZM107.38 158.243C107.884 158.243 108.311 158.127 108.659 157.897C109.007 157.666 109.271 157.334 109.452 156.901C109.633 156.467 109.724 155.949 109.724 155.345C109.724 154.756 109.635 154.235 109.458 153.784C109.28 153.333 109.017 152.98 108.669 152.724C108.321 152.469 107.892 152.341 107.38 152.341C106.848 152.341 106.404 152.476 106.049 152.746C105.697 153.016 105.432 153.378 105.255 153.832C105.081 154.287 104.994 154.791 104.994 155.345C104.994 155.913 105.083 156.416 105.26 156.853C105.441 157.286 105.708 157.627 106.059 157.875C106.414 158.12 106.855 158.243 107.38 158.243ZM113.261 159.5V151.318H114.518V159.5H113.261ZM113.325 150.21L114.625 147.739H116.095L114.433 150.21H113.325ZM119.228 159.692C118.71 159.692 118.239 159.594 117.817 159.399C117.394 159.2 117.058 158.914 116.81 158.541C116.561 158.165 116.437 157.71 116.437 157.178C116.437 156.709 116.529 156.329 116.714 156.038C116.899 155.743 117.145 155.512 117.454 155.345C117.763 155.178 118.104 155.054 118.477 154.972C118.854 154.887 119.232 154.82 119.612 154.77C120.109 154.706 120.512 154.658 120.821 154.626C121.133 154.591 121.361 154.532 121.503 154.45C121.648 154.369 121.721 154.227 121.721 154.024V153.982C121.721 153.456 121.577 153.048 121.29 152.756C121.006 152.465 120.574 152.32 119.995 152.32C119.395 152.32 118.925 152.451 118.584 152.714C118.243 152.977 118.003 153.257 117.865 153.555L116.671 153.129C116.884 152.632 117.169 152.245 117.524 151.968C117.882 151.687 118.273 151.492 118.695 151.382C119.122 151.268 119.541 151.212 119.953 151.212C120.215 151.212 120.517 151.244 120.858 151.308C121.203 151.368 121.535 151.494 121.854 151.686C122.177 151.877 122.445 152.167 122.659 152.554C122.872 152.941 122.978 153.46 122.978 154.109V159.5H121.721V158.392H121.657C121.572 158.57 121.43 158.76 121.231 158.962C121.032 159.164 120.768 159.337 120.437 159.479C120.107 159.621 119.704 159.692 119.228 159.692ZM119.42 158.562C119.917 158.562 120.336 158.465 120.677 158.27C121.021 158.074 121.281 157.822 121.455 157.513C121.632 157.204 121.721 156.879 121.721 156.538V155.388C121.668 155.452 121.551 155.51 121.369 155.564C121.192 155.613 120.986 155.658 120.752 155.697C120.521 155.732 120.295 155.764 120.075 155.793C119.858 155.817 119.683 155.839 119.548 155.857C119.221 155.899 118.916 155.968 118.632 156.064C118.351 156.157 118.124 156.297 117.95 156.485C117.779 156.67 117.694 156.922 117.694 157.241C117.694 157.678 117.856 158.009 118.179 158.232C118.506 158.452 118.919 158.562 119.42 158.562Z" fill="#363636"/>
<path d="M634.925 130.596C633.273 127.793 630.191 125.919 626.68 125.919C623.168 125.919 620.087 127.794 618.435 130.596C618.307 130.812 618.24 131.059 618.24 131.31C618.24 131.561 618.307 131.808 618.435 132.024C620.087 134.827 623.169 136.701 626.68 136.701C630.193 136.701 633.274 134.826 634.925 132.024C635.053 131.808 635.12 131.561 635.12 131.31C635.12 131.059 635.053 130.812 634.925 130.596ZM626.68 135.294C624.478 135.294 622.695 133.512 622.695 131.31C622.695 129.108 624.477 127.326 626.68 127.326C628.883 127.326 630.666 129.108 630.666 131.31C630.666 133.512 628.883 135.294 626.68 135.294ZM629.728 131.31C629.728 132.993 628.364 134.357 626.68 134.357C624.997 134.357 623.632 132.993 623.632 131.31C623.632 130.791 623.762 130.303 623.991 129.875L623.991 129.876C623.991 130.569 624.553 131.131 625.246 131.131C625.939 131.131 626.501 130.569 626.501 129.876C626.501 129.183 625.939 128.622 625.246 128.622L625.245 128.622C625.673 128.393 626.161 128.263 626.68 128.263C628.364 128.263 629.728 129.627 629.728 131.31Z" fill="#363636"/>
<path d="M659.12 126.271V125.451C659.12 125.061 659.434 124.748 659.824 124.748H663.106L663.382 124.2C663.499 123.959 663.742 123.81 664.009 123.81H667.359C667.625 123.81 667.869 123.959 667.989 124.2L668.264 124.748H671.547C671.937 124.748 672.25 125.061 672.25 125.451V126.271C672.25 126.464 672.092 126.623 671.898 126.623H659.472C659.278 126.623 659.12 126.464 659.12 126.271ZM671.289 127.932L670.691 137.492C670.644 138.233 670.029 138.81 669.287 138.81H662.083C661.342 138.81 660.726 138.233 660.679 137.492L660.081 127.932C660.07 127.73 660.231 127.56 660.433 127.56H670.94C671.139 127.56 671.301 127.73 671.289 127.932Z" fill="#363636"/>
<path d="M684.25 176.5H45.75V178.5H684.25V176.5Z" fill="#E8E9EC" mask="url(#path-7-inside-2_159_1293)"/>
<path d="M63.375 195.299V206H61.6099V197.394L58.9951 198.28V196.823L63.1626 195.299H63.375ZM74.2295 204.594V206H67.0811V204.792L70.5527 201.005C70.9336 200.575 71.2339 200.204 71.4536 199.892C71.6733 199.579 71.8271 199.298 71.915 199.049C72.0078 198.795 72.0542 198.549 72.0542 198.31C72.0542 197.973 71.9907 197.677 71.8638 197.423C71.7417 197.165 71.561 196.962 71.3218 196.815C71.0825 196.664 70.792 196.588 70.4502 196.588C70.0547 196.588 69.7227 196.674 69.4541 196.845C69.1855 197.016 68.9829 197.252 68.8462 197.555C68.7095 197.853 68.6411 198.195 68.6411 198.581H66.876C66.876 197.96 67.0176 197.394 67.3008 196.881C67.584 196.364 67.9941 195.954 68.5312 195.651C69.0684 195.343 69.7153 195.189 70.4722 195.189C71.1851 195.189 71.7905 195.309 72.2886 195.548C72.7866 195.788 73.165 196.127 73.4238 196.566C73.6875 197.006 73.8193 197.526 73.8193 198.126C73.8193 198.458 73.7656 198.788 73.6582 199.115C73.5508 199.442 73.397 199.77 73.1968 200.097C73.0015 200.419 72.7695 200.744 72.501 201.071C72.2324 201.393 71.937 201.72 71.6147 202.052L69.3076 204.594H74.2295ZM75.731 205.121C75.731 204.848 75.8237 204.618 76.0093 204.433C76.1948 204.242 76.4463 204.147 76.7637 204.147C77.0859 204.147 77.3374 204.242 77.5181 204.433C77.7036 204.618 77.7964 204.848 77.7964 205.121C77.7964 205.395 77.7036 205.624 77.5181 205.81C77.3374 205.995 77.0859 206.088 76.7637 206.088C76.4463 206.088 76.1948 205.995 76.0093 205.81C75.8237 205.624 75.731 205.395 75.731 205.121ZM75.7383 198.881C75.7383 198.607 75.8311 198.378 76.0166 198.192C76.2021 198.002 76.4536 197.907 76.771 197.907C77.0933 197.907 77.3447 198.002 77.5254 198.192C77.7109 198.378 77.8037 198.607 77.8037 198.881C77.8037 199.154 77.7109 199.384 77.5254 199.569C77.3447 199.755 77.0933 199.848 76.771 199.848C76.4536 199.848 76.2021 199.755 76.0166 199.569C75.8311 199.384 75.7383 199.154 75.7383 198.881ZM86.5122 199.774V201.518C86.5122 202.353 86.4292 203.065 86.2632 203.656C86.1021 204.242 85.8677 204.718 85.5601 205.084C85.2524 205.451 84.8838 205.719 84.4541 205.89C84.0293 206.061 83.5532 206.146 83.0259 206.146C82.606 206.146 82.2153 206.093 81.854 205.985C81.4976 205.878 81.1753 205.709 80.8872 205.48C80.5991 205.25 80.3525 204.955 80.1475 204.594C79.9473 204.228 79.791 203.791 79.6787 203.283C79.5713 202.775 79.5176 202.187 79.5176 201.518V199.774C79.5176 198.935 79.6006 198.227 79.7666 197.65C79.9326 197.069 80.1694 196.598 80.4771 196.237C80.7847 195.871 81.1509 195.604 81.5757 195.438C82.0054 195.272 82.4839 195.189 83.0112 195.189C83.436 195.189 83.8267 195.243 84.1831 195.351C84.5444 195.453 84.8667 195.617 85.1499 195.841C85.438 196.066 85.6821 196.359 85.8823 196.72C86.0874 197.077 86.2437 197.509 86.3511 198.017C86.4585 198.52 86.5122 199.105 86.5122 199.774ZM84.7471 201.767V199.511C84.7471 199.086 84.7227 198.712 84.6738 198.39C84.625 198.063 84.5518 197.787 84.4541 197.562C84.3613 197.333 84.2441 197.147 84.1025 197.006C83.9609 196.859 83.7998 196.754 83.6191 196.691C83.4385 196.623 83.2358 196.588 83.0112 196.588C82.7378 196.588 82.4937 196.642 82.2788 196.75C82.064 196.852 81.8833 197.018 81.7368 197.248C81.5903 197.477 81.478 197.78 81.3999 198.156C81.3267 198.527 81.29 198.979 81.29 199.511V201.767C81.29 202.196 81.3145 202.575 81.3633 202.902C81.4121 203.229 81.4854 203.51 81.583 203.744C81.6807 203.974 81.7979 204.164 81.9346 204.315C82.0762 204.462 82.2373 204.569 82.418 204.638C82.6035 204.706 82.8062 204.74 83.0259 204.74C83.3042 204.74 83.5508 204.687 83.7656 204.579C83.9805 204.472 84.1611 204.301 84.3076 204.066C84.4541 203.827 84.564 203.517 84.6372 203.136C84.7104 202.755 84.7471 202.299 84.7471 201.767ZM95.0376 199.774V201.518C95.0376 202.353 94.9546 203.065 94.7886 203.656C94.6274 204.242 94.3931 204.718 94.0854 205.084C93.7778 205.451 93.4092 205.719 92.9795 205.89C92.5547 206.061 92.0786 206.146 91.5513 206.146C91.1313 206.146 90.7407 206.093 90.3794 205.985C90.0229 205.878 89.7007 205.709 89.4126 205.48C89.1245 205.25 88.8779 204.955 88.6729 204.594C88.4727 204.228 88.3164 203.791 88.2041 203.283C88.0967 202.775 88.043 202.187 88.043 201.518V199.774C88.043 198.935 88.126 198.227 88.292 197.65C88.458 197.069 88.6948 196.598 89.0024 196.237C89.3101 195.871 89.6763 195.604 90.1011 195.438C90.5308 195.272 91.0093 195.189 91.5366 195.189C91.9614 195.189 92.3521 195.243 92.7085 195.351C93.0698 195.453 93.3921 195.617 93.6753 195.841C93.9634 196.066 94.2075 196.359 94.4077 196.72C94.6128 197.077 94.769 197.509 94.8765 198.017C94.9839 198.52 95.0376 199.105 95.0376 199.774ZM93.2725 201.767V199.511C93.2725 199.086 93.248 198.712 93.1992 198.39C93.1504 198.063 93.0771 197.787 92.9795 197.562C92.8867 197.333 92.7695 197.147 92.6279 197.006C92.4863 196.859 92.3252 196.754 92.1445 196.691C91.9639 196.623 91.7612 196.588 91.5366 196.588C91.2632 196.588 91.019 196.642 90.8042 196.75C90.5894 196.852 90.4087 197.018 90.2622 197.248C90.1157 197.477 90.0034 197.78 89.9253 198.156C89.8521 198.527 89.8154 198.979 89.8154 199.511V201.767C89.8154 202.196 89.8398 202.575 89.8887 202.902C89.9375 203.229 90.0107 203.51 90.1084 203.744C90.2061 203.974 90.3232 204.164 90.46 204.315C90.6016 204.462 90.7627 204.569 90.9434 204.638C91.1289 204.706 91.3315 204.74 91.5513 204.74C91.8296 204.74 92.0762 204.687 92.291 204.579C92.5059 204.472 92.6865 204.301 92.833 204.066C92.9795 203.827 93.0894 203.517 93.1626 203.136C93.2358 202.755 93.2725 202.299 93.2725 201.767ZM102.193 194.75V206H100.436V194.75H102.193ZM101.886 201.745L101.314 201.737C101.319 201.19 101.395 200.685 101.542 200.221C101.693 199.757 101.903 199.354 102.171 199.013C102.445 198.666 102.772 198.4 103.153 198.214C103.534 198.024 103.956 197.929 104.42 197.929C104.811 197.929 105.162 197.982 105.475 198.09C105.792 198.197 106.065 198.371 106.295 198.61C106.524 198.844 106.698 199.152 106.815 199.533C106.937 199.909 106.998 200.368 106.998 200.91V206H105.226V200.895C105.226 200.514 105.169 200.211 105.057 199.987C104.95 199.762 104.791 199.601 104.581 199.503C104.371 199.401 104.115 199.35 103.812 199.35C103.495 199.35 103.214 199.413 102.97 199.54C102.73 199.667 102.53 199.84 102.369 200.06C102.208 200.28 102.086 200.534 102.003 200.822C101.925 201.11 101.886 201.417 101.886 201.745ZM113.231 203.854C113.231 203.678 113.187 203.52 113.099 203.378C113.011 203.231 112.843 203.1 112.594 202.982C112.35 202.865 111.988 202.758 111.51 202.66C111.09 202.567 110.704 202.458 110.353 202.331C110.006 202.199 109.708 202.04 109.459 201.854C109.21 201.669 109.017 201.449 108.88 201.195C108.744 200.941 108.675 200.648 108.675 200.316C108.675 199.994 108.746 199.689 108.888 199.401C109.029 199.113 109.232 198.859 109.496 198.639C109.759 198.419 110.079 198.246 110.455 198.119C110.836 197.992 111.261 197.929 111.729 197.929C112.394 197.929 112.962 198.041 113.436 198.266C113.915 198.485 114.281 198.786 114.535 199.167C114.789 199.542 114.916 199.967 114.916 200.441H113.15C113.15 200.231 113.097 200.036 112.989 199.855C112.887 199.669 112.73 199.521 112.521 199.408C112.311 199.291 112.047 199.232 111.729 199.232C111.427 199.232 111.175 199.281 110.975 199.379C110.78 199.472 110.633 199.594 110.536 199.745C110.443 199.896 110.396 200.062 110.396 200.243C110.396 200.375 110.421 200.495 110.47 200.602C110.523 200.705 110.611 200.8 110.733 200.888C110.855 200.971 111.021 201.049 111.231 201.122C111.446 201.195 111.715 201.266 112.037 201.334C112.643 201.461 113.163 201.625 113.597 201.825C114.037 202.021 114.374 202.274 114.608 202.587C114.842 202.895 114.959 203.285 114.959 203.759C114.959 204.11 114.884 204.433 114.732 204.726C114.586 205.014 114.371 205.265 114.088 205.48C113.805 205.69 113.465 205.854 113.07 205.971C112.679 206.088 112.24 206.146 111.751 206.146C111.034 206.146 110.426 206.02 109.928 205.766C109.43 205.507 109.051 205.177 108.792 204.777C108.539 204.372 108.412 203.952 108.412 203.517H110.118C110.138 203.844 110.228 204.105 110.389 204.301C110.555 204.491 110.76 204.63 111.004 204.718C111.253 204.801 111.51 204.843 111.773 204.843C112.091 204.843 112.357 204.801 112.572 204.718C112.787 204.63 112.95 204.513 113.062 204.367C113.175 204.215 113.231 204.044 113.231 203.854ZM116.578 205.121C116.578 204.848 116.671 204.618 116.856 204.433C117.042 204.242 117.293 204.147 117.611 204.147C117.933 204.147 118.185 204.242 118.365 204.433C118.551 204.618 118.644 204.848 118.644 205.121C118.644 205.395 118.551 205.624 118.365 205.81C118.185 205.995 117.933 206.088 117.611 206.088C117.293 206.088 117.042 205.995 116.856 205.81C116.671 205.624 116.578 205.395 116.578 205.121Z" fill="#363636"/>
<path d="M63.4629 225.387V217.836H64.8691V225.387C64.8691 226.09 64.7251 226.684 64.437 227.167C64.1489 227.65 63.751 228.019 63.2432 228.273C62.7402 228.522 62.1616 228.646 61.5073 228.646C60.853 228.646 60.272 228.534 59.7642 228.31C59.2563 228.085 58.8584 227.743 58.5703 227.284C58.2822 226.825 58.1382 226.247 58.1382 225.548H59.5518C59.5518 225.998 59.6348 226.366 59.8008 226.654C59.9668 226.942 60.1963 227.155 60.4893 227.292C60.7871 227.428 61.1265 227.497 61.5073 227.497C61.8784 227.497 62.2104 227.418 62.5034 227.262C62.8013 227.101 63.0356 226.864 63.2065 226.552C63.3774 226.234 63.4629 225.846 63.4629 225.387ZM71.9077 226.669V220.575H73.27V228.5H71.9736L71.9077 226.669ZM72.1641 224.999L72.728 224.984C72.728 225.512 72.6719 226 72.5596 226.449C72.4521 226.894 72.2764 227.279 72.0322 227.606C71.7881 227.934 71.4683 228.19 71.0728 228.375C70.6772 228.556 70.1963 228.646 69.6299 228.646C69.2441 228.646 68.8901 228.59 68.5679 228.478C68.2505 228.366 67.9771 228.192 67.7476 227.958C67.5181 227.724 67.3398 227.418 67.2129 227.042C67.0908 226.667 67.0298 226.215 67.0298 225.688V220.575H68.3848V225.702C68.3848 226.059 68.4238 226.354 68.502 226.588C68.585 226.818 68.6948 227.001 68.8315 227.138C68.9731 227.27 69.1294 227.362 69.3003 227.416C69.4761 227.47 69.6567 227.497 69.8423 227.497C70.4185 227.497 70.875 227.387 71.2119 227.167C71.5488 226.942 71.7905 226.642 71.937 226.266C72.0884 225.885 72.1641 225.463 72.1641 224.999ZM78.624 228.646C78.0723 228.646 77.5718 228.554 77.1226 228.368C76.6782 228.178 76.2949 227.912 75.9727 227.57C75.6553 227.228 75.4111 226.823 75.2402 226.354C75.0693 225.885 74.9839 225.373 74.9839 224.816V224.508C74.9839 223.864 75.0791 223.29 75.2695 222.787C75.46 222.279 75.7188 221.85 76.0459 221.498C76.373 221.146 76.7441 220.88 77.1592 220.7C77.5742 220.519 78.0039 220.429 78.4482 220.429C79.0146 220.429 79.5029 220.526 79.9131 220.722C80.3281 220.917 80.6675 221.19 80.9312 221.542C81.1948 221.889 81.3901 222.299 81.5171 222.772C81.644 223.241 81.7075 223.754 81.7075 224.311V224.918H75.7896V223.812H80.3525V223.71C80.333 223.358 80.2598 223.017 80.1328 222.685C80.0107 222.353 79.8154 222.079 79.5469 221.864C79.2783 221.649 78.9121 221.542 78.4482 221.542C78.1406 221.542 77.8574 221.608 77.5986 221.74C77.3398 221.867 77.1177 222.057 76.9321 222.311C76.7466 222.565 76.6025 222.875 76.5 223.241C76.3975 223.607 76.3462 224.03 76.3462 224.508V224.816C76.3462 225.192 76.3975 225.546 76.5 225.878C76.6074 226.205 76.7612 226.493 76.9614 226.742C77.1665 226.991 77.4131 227.187 77.7012 227.328C77.9941 227.47 78.3262 227.541 78.6973 227.541C79.1758 227.541 79.5811 227.443 79.9131 227.248C80.2451 227.052 80.5356 226.791 80.7847 226.464L81.605 227.116C81.4341 227.375 81.2168 227.621 80.9531 227.855C80.6895 228.09 80.3647 228.28 79.979 228.427C79.5981 228.573 79.1465 228.646 78.624 228.646ZM85.5967 227.277L87.7646 220.575H89.1489L86.2998 228.5H85.3916L85.5967 227.277ZM83.7876 220.575L86.0215 227.313L86.1753 228.5H85.2671L82.396 220.575H83.7876ZM93.6387 228.646C93.0869 228.646 92.5864 228.554 92.1372 228.368C91.6929 228.178 91.3096 227.912 90.9873 227.57C90.6699 227.228 90.4258 226.823 90.2549 226.354C90.084 225.885 89.9985 225.373 89.9985 224.816V224.508C89.9985 223.864 90.0938 223.29 90.2842 222.787C90.4746 222.279 90.7334 221.85 91.0605 221.498C91.3877 221.146 91.7588 220.88 92.1738 220.7C92.5889 220.519 93.0186 220.429 93.4629 220.429C94.0293 220.429 94.5176 220.526 94.9277 220.722C95.3428 220.917 95.6821 221.19 95.9458 221.542C96.2095 221.889 96.4048 222.299 96.5317 222.772C96.6587 223.241 96.7222 223.754 96.7222 224.311V224.918H90.8042V223.812H95.3672V223.71C95.3477 223.358 95.2744 223.017 95.1475 222.685C95.0254 222.353 94.8301 222.079 94.5615 221.864C94.293 221.649 93.9268 221.542 93.4629 221.542C93.1553 221.542 92.8721 221.608 92.6133 221.74C92.3545 221.867 92.1323 222.057 91.9468 222.311C91.7612 222.565 91.6172 222.875 91.5146 223.241C91.4121 223.607 91.3608 224.03 91.3608 224.508V224.816C91.3608 225.192 91.4121 225.546 91.5146 225.878C91.6221 226.205 91.7759 226.493 91.9761 226.742C92.1812 226.991 92.4277 227.187 92.7158 227.328C93.0088 227.47 93.3408 227.541 93.7119 227.541C94.1904 227.541 94.5957 227.443 94.9277 227.248C95.2598 227.052 95.5503 226.791 95.7993 226.464L96.6196 227.116C96.4487 227.375 96.2314 227.621 95.9678 227.855C95.7041 228.09 95.3794 228.28 94.9937 228.427C94.6128 228.573 94.1611 228.646 93.6387 228.646ZM102.918 226.398C102.918 226.203 102.875 226.022 102.787 225.856C102.704 225.685 102.53 225.531 102.267 225.395C102.008 225.253 101.617 225.131 101.095 225.028C100.655 224.936 100.257 224.826 99.9009 224.699C99.5493 224.572 99.249 224.418 99 224.237C98.7559 224.057 98.5679 223.844 98.436 223.6C98.3042 223.356 98.2383 223.07 98.2383 222.743C98.2383 222.431 98.3066 222.135 98.4434 221.857C98.585 221.579 98.7827 221.332 99.0366 221.117C99.2954 220.902 99.6055 220.734 99.9668 220.612C100.328 220.49 100.731 220.429 101.175 220.429C101.81 220.429 102.352 220.541 102.801 220.766C103.25 220.99 103.595 221.291 103.834 221.667C104.073 222.038 104.193 222.45 104.193 222.904H102.838C102.838 222.685 102.772 222.472 102.64 222.267C102.513 222.057 102.325 221.884 102.076 221.747C101.832 221.61 101.532 221.542 101.175 221.542C100.799 221.542 100.494 221.601 100.26 221.718C100.03 221.83 99.8618 221.974 99.7544 222.15C99.6519 222.326 99.6006 222.511 99.6006 222.707C99.6006 222.853 99.625 222.985 99.6738 223.102C99.7275 223.214 99.8203 223.319 99.9521 223.417C100.084 223.51 100.27 223.598 100.509 223.681C100.748 223.764 101.053 223.847 101.424 223.93C102.074 224.076 102.608 224.252 103.028 224.457C103.448 224.662 103.761 224.914 103.966 225.211C104.171 225.509 104.273 225.871 104.273 226.295C104.273 226.642 104.2 226.959 104.054 227.248C103.912 227.536 103.705 227.785 103.431 227.995C103.163 228.2 102.84 228.361 102.464 228.478C102.093 228.59 101.676 228.646 101.212 228.646C100.514 228.646 99.9229 228.522 99.4395 228.273C98.9561 228.024 98.5898 227.702 98.3408 227.306C98.0918 226.911 97.9673 226.493 97.9673 226.054H99.3296C99.3491 226.425 99.4565 226.72 99.6519 226.94C99.8472 227.155 100.086 227.309 100.37 227.401C100.653 227.489 100.934 227.533 101.212 227.533C101.583 227.533 101.893 227.484 102.142 227.387C102.396 227.289 102.589 227.155 102.721 226.984C102.853 226.813 102.918 226.618 102.918 226.398ZM107.284 226.889V227.98C107.284 228.424 107.171 228.893 106.947 229.386C106.722 229.884 106.407 230.299 106.002 230.631L105.233 230.097C105.389 229.882 105.521 229.662 105.628 229.438C105.736 229.218 105.816 228.988 105.87 228.749C105.929 228.515 105.958 228.266 105.958 228.002V226.889H107.284ZM117.04 217.777V228.5H115.685V219.469L112.953 220.465V219.242L116.827 217.777H117.04ZM128.231 224.911V226.024H120.526V225.226L125.301 217.836H126.407L125.221 219.975L122.064 224.911H128.231ZM126.744 217.836V228.5H125.389V217.836H126.744ZM138.324 226.962V217.25H139.686V228.5H138.441L138.324 226.962ZM132.992 224.625V224.472C132.992 223.866 133.065 223.317 133.211 222.824C133.363 222.326 133.575 221.898 133.849 221.542C134.127 221.186 134.457 220.912 134.837 220.722C135.223 220.526 135.653 220.429 136.126 220.429C136.625 220.429 137.059 220.517 137.43 220.692C137.806 220.863 138.124 221.115 138.382 221.447C138.646 221.774 138.854 222.169 139.005 222.633C139.156 223.097 139.261 223.622 139.32 224.208V224.882C139.266 225.463 139.161 225.985 139.005 226.449C138.854 226.913 138.646 227.309 138.382 227.636C138.124 227.963 137.806 228.214 137.43 228.39C137.054 228.561 136.615 228.646 136.112 228.646C135.648 228.646 135.223 228.546 134.837 228.346C134.457 228.146 134.127 227.865 133.849 227.504C133.575 227.143 133.363 226.718 133.211 226.229C133.065 225.736 132.992 225.202 132.992 224.625ZM134.354 224.472V224.625C134.354 225.021 134.393 225.392 134.471 225.739C134.554 226.085 134.681 226.391 134.852 226.654C135.023 226.918 135.24 227.125 135.504 227.277C135.768 227.423 136.083 227.497 136.449 227.497C136.898 227.497 137.267 227.401 137.555 227.211C137.848 227.021 138.082 226.769 138.258 226.457C138.434 226.144 138.57 225.805 138.668 225.438V223.673C138.609 223.405 138.524 223.146 138.412 222.897C138.304 222.643 138.163 222.418 137.987 222.223C137.816 222.023 137.604 221.864 137.35 221.747C137.101 221.63 136.805 221.571 136.463 221.571C136.092 221.571 135.772 221.649 135.504 221.806C135.24 221.957 135.023 222.167 134.852 222.436C134.681 222.699 134.554 223.007 134.471 223.358C134.393 223.705 134.354 224.076 134.354 224.472ZM145.084 228.646C144.532 228.646 144.032 228.554 143.583 228.368C143.138 228.178 142.755 227.912 142.433 227.57C142.115 227.228 141.871 226.823 141.7 226.354C141.529 225.885 141.444 225.373 141.444 224.816V224.508C141.444 223.864 141.539 223.29 141.729 222.787C141.92 222.279 142.179 221.85 142.506 221.498C142.833 221.146 143.204 220.88 143.619 220.7C144.034 220.519 144.464 220.429 144.908 220.429C145.475 220.429 145.963 220.526 146.373 220.722C146.788 220.917 147.127 221.19 147.391 221.542C147.655 221.889 147.85 222.299 147.977 222.772C148.104 223.241 148.167 223.754 148.167 224.311V224.918H142.25V223.812H146.812V223.71C146.793 223.358 146.72 223.017 146.593 222.685C146.471 222.353 146.275 222.079 146.007 221.864C145.738 221.649 145.372 221.542 144.908 221.542C144.601 221.542 144.317 221.608 144.059 221.74C143.8 221.867 143.578 222.057 143.392 222.311C143.207 222.565 143.062 222.875 142.96 223.241C142.857 223.607 142.806 224.03 142.806 224.508V224.816C142.806 225.192 142.857 225.546 142.96 225.878C143.067 226.205 143.221 226.493 143.421 226.742C143.626 226.991 143.873 227.187 144.161 227.328C144.454 227.47 144.786 227.541 145.157 227.541C145.636 227.541 146.041 227.443 146.373 227.248C146.705 227.052 146.996 226.791 147.245 226.464L148.065 227.116C147.894 227.375 147.677 227.621 147.413 227.855C147.149 228.09 146.825 228.28 146.439 228.427C146.058 228.573 145.606 228.646 145.084 228.646ZM159.359 225.805C159.359 225.556 159.32 225.336 159.242 225.146C159.168 224.95 159.037 224.774 158.846 224.618C158.661 224.462 158.402 224.313 158.07 224.171C157.743 224.03 157.328 223.886 156.825 223.739C156.297 223.583 155.821 223.41 155.396 223.219C154.972 223.024 154.608 222.802 154.305 222.553C154.002 222.304 153.771 222.018 153.609 221.696C153.448 221.374 153.368 221.005 153.368 220.59C153.368 220.175 153.453 219.792 153.624 219.44C153.795 219.088 154.039 218.783 154.356 218.524C154.679 218.261 155.062 218.056 155.506 217.909C155.951 217.763 156.446 217.689 156.993 217.689C157.794 217.689 158.473 217.843 159.029 218.151C159.591 218.454 160.018 218.852 160.311 219.345C160.604 219.833 160.75 220.355 160.75 220.912H159.344C159.344 220.512 159.259 220.158 159.088 219.85C158.917 219.538 158.658 219.293 158.312 219.118C157.965 218.937 157.525 218.847 156.993 218.847C156.49 218.847 156.075 218.922 155.748 219.074C155.421 219.225 155.177 219.43 155.016 219.689C154.859 219.948 154.781 220.243 154.781 220.575C154.781 220.8 154.828 221.005 154.92 221.19C155.018 221.371 155.167 221.54 155.367 221.696C155.572 221.852 155.831 221.996 156.144 222.128C156.461 222.26 156.839 222.387 157.279 222.509C157.884 222.68 158.407 222.87 158.846 223.08C159.286 223.29 159.647 223.527 159.93 223.791C160.218 224.049 160.431 224.345 160.567 224.677C160.709 225.004 160.78 225.375 160.78 225.79C160.78 226.225 160.692 226.618 160.516 226.969C160.34 227.321 160.089 227.621 159.762 227.87C159.435 228.119 159.042 228.312 158.583 228.449C158.128 228.581 157.621 228.646 157.059 228.646C156.566 228.646 156.08 228.578 155.602 228.441C155.128 228.305 154.696 228.1 154.305 227.826C153.919 227.553 153.609 227.216 153.375 226.815C153.146 226.41 153.031 225.941 153.031 225.409H154.437C154.437 225.775 154.508 226.09 154.649 226.354C154.791 226.613 154.984 226.828 155.228 226.999C155.477 227.169 155.758 227.296 156.07 227.379C156.388 227.458 156.717 227.497 157.059 227.497C157.552 227.497 157.97 227.428 158.312 227.292C158.653 227.155 158.912 226.959 159.088 226.706C159.269 226.452 159.359 226.151 159.359 225.805ZM165.665 228.646C165.113 228.646 164.613 228.554 164.164 228.368C163.719 228.178 163.336 227.912 163.014 227.57C162.696 227.228 162.452 226.823 162.281 226.354C162.11 225.885 162.025 225.373 162.025 224.816V224.508C162.025 223.864 162.12 223.29 162.311 222.787C162.501 222.279 162.76 221.85 163.087 221.498C163.414 221.146 163.785 220.88 164.2 220.7C164.615 220.519 165.045 220.429 165.489 220.429C166.056 220.429 166.544 220.526 166.954 220.722C167.369 220.917 167.708 221.19 167.972 221.542C168.236 221.889 168.431 222.299 168.558 222.772C168.685 223.241 168.749 223.754 168.749 224.311V224.918H162.831V223.812H167.394V223.71C167.374 223.358 167.301 223.017 167.174 222.685C167.052 222.353 166.856 222.079 166.588 221.864C166.319 221.649 165.953 221.542 165.489 221.542C165.182 221.542 164.898 221.608 164.64 221.74C164.381 221.867 164.159 222.057 163.973 222.311C163.788 222.565 163.644 222.875 163.541 223.241C163.438 223.607 163.387 224.03 163.387 224.508V224.816C163.387 225.192 163.438 225.546 163.541 225.878C163.648 226.205 163.802 226.493 164.002 226.742C164.208 226.991 164.454 227.187 164.742 227.328C165.035 227.47 165.367 227.541 165.738 227.541C166.217 227.541 166.622 227.443 166.954 227.248C167.286 227.052 167.577 226.791 167.826 226.464L168.646 227.116C168.475 227.375 168.258 227.621 167.994 227.855C167.73 228.09 167.406 228.28 167.02 228.427C166.639 228.573 166.188 228.646 165.665 228.646ZM171.686 222.099V231.547H170.323V220.575H171.568L171.686 222.099ZM177.025 224.472V224.625C177.025 225.202 176.957 225.736 176.82 226.229C176.683 226.718 176.483 227.143 176.219 227.504C175.96 227.865 175.641 228.146 175.26 228.346C174.879 228.546 174.442 228.646 173.949 228.646C173.446 228.646 173.001 228.563 172.616 228.397C172.23 228.231 171.903 227.99 171.634 227.672C171.366 227.355 171.151 226.974 170.99 226.53C170.833 226.085 170.726 225.585 170.667 225.028V224.208C170.726 223.622 170.836 223.097 170.997 222.633C171.158 222.169 171.371 221.774 171.634 221.447C171.903 221.115 172.228 220.863 172.608 220.692C172.989 220.517 173.429 220.429 173.927 220.429C174.425 220.429 174.867 220.526 175.252 220.722C175.638 220.912 175.963 221.186 176.227 221.542C176.49 221.898 176.688 222.326 176.82 222.824C176.957 223.317 177.025 223.866 177.025 224.472ZM175.663 224.625V224.472C175.663 224.076 175.621 223.705 175.538 223.358C175.455 223.007 175.326 222.699 175.15 222.436C174.979 222.167 174.759 221.957 174.491 221.806C174.222 221.649 173.902 221.571 173.531 221.571C173.189 221.571 172.892 221.63 172.638 221.747C172.389 221.864 172.176 222.023 172 222.223C171.825 222.418 171.681 222.643 171.568 222.897C171.461 223.146 171.38 223.405 171.327 223.673V225.57C171.424 225.912 171.561 226.234 171.737 226.537C171.913 226.835 172.147 227.077 172.44 227.262C172.733 227.443 173.102 227.533 173.546 227.533C173.912 227.533 174.227 227.458 174.491 227.306C174.759 227.15 174.979 226.938 175.15 226.669C175.326 226.4 175.455 226.093 175.538 225.746C175.621 225.395 175.663 225.021 175.663 224.625ZM178.775 227.782C178.775 227.553 178.846 227.36 178.988 227.204C179.134 227.042 179.344 226.962 179.618 226.962C179.891 226.962 180.099 227.042 180.24 227.204C180.387 227.36 180.46 227.553 180.46 227.782C180.46 228.007 180.387 228.197 180.24 228.354C180.099 228.51 179.891 228.588 179.618 228.588C179.344 228.588 179.134 228.51 178.988 228.354C178.846 228.197 178.775 228.007 178.775 227.782Z" fill="#797979"/>
<path d="M58.4744 242.263V241.091H66.6562V242.263H63.2259V252H61.9048V242.263H58.4744ZM67.675 252V243.818H68.8895V245.054H68.9747C69.1238 244.649 69.3937 244.321 69.7844 244.069C70.175 243.816 70.6153 243.69 71.1054 243.69C71.1977 243.69 71.3131 243.692 71.4516 243.696C71.5901 243.699 71.6949 243.705 71.7659 243.712V244.99C71.7233 244.979 71.6256 244.963 71.4729 244.942C71.3238 244.917 71.1657 244.905 70.9988 244.905C70.6011 244.905 70.246 244.988 69.9335 245.155C69.6246 245.319 69.3795 245.546 69.1984 245.837C69.0209 246.125 68.9321 246.453 68.9321 246.822V252H67.675ZM75.6637 252.192C75.1452 252.192 74.6747 252.094 74.2521 251.899C73.8295 251.7 73.494 251.414 73.2454 251.041C72.9968 250.665 72.8725 250.21 72.8725 249.678C72.8725 249.209 72.9648 248.829 73.1495 248.538C73.3342 248.243 73.581 248.012 73.8899 247.845C74.1989 247.678 74.5398 247.554 74.9126 247.472C75.2891 247.387 75.6673 247.32 76.0472 247.27C76.5444 247.206 76.9474 247.158 77.2564 247.126C77.5689 247.091 77.7962 247.032 77.9382 246.95C78.0838 246.869 78.1566 246.727 78.1566 246.524V246.482C78.1566 245.956 78.0128 245.548 77.7251 245.256C77.4411 244.965 77.0096 244.82 76.4308 244.82C75.8306 244.82 75.3601 244.951 75.0192 245.214C74.6783 245.477 74.4386 245.757 74.3001 246.055L73.1069 245.629C73.32 245.132 73.604 244.745 73.9592 244.468C74.3178 244.187 74.7085 243.992 75.131 243.882C75.5572 243.768 75.9762 243.712 76.3881 243.712C76.6509 243.712 76.9528 243.744 77.2937 243.808C77.6381 243.868 77.9702 243.994 78.2898 244.186C78.6129 244.377 78.881 244.667 79.0941 245.054C79.3072 245.441 79.4137 245.96 79.4137 246.609V252H78.1566V250.892H78.0927C78.0075 251.07 77.8654 251.26 77.6665 251.462C77.4677 251.664 77.2031 251.837 76.8729 251.979C76.5426 252.121 76.1396 252.192 75.6637 252.192ZM75.8555 251.062C76.3526 251.062 76.7717 250.965 77.1126 250.77C77.457 250.574 77.7163 250.322 77.8903 250.013C78.0678 249.704 78.1566 249.379 78.1566 249.038V247.888C78.1033 247.952 77.9862 248.01 77.805 248.064C77.6275 248.113 77.4215 248.158 77.1871 248.197C76.9563 248.232 76.7308 248.264 76.5107 248.293C76.294 248.317 76.1183 248.339 75.9833 248.357C75.6566 248.399 75.3512 248.468 75.0671 248.564C74.7866 248.657 74.5593 248.797 74.3853 248.985C74.2148 249.17 74.1296 249.422 74.1296 249.741C74.1296 250.178 74.2912 250.509 74.6143 250.732C74.9411 250.952 75.3548 251.062 75.8555 251.062ZM86.8644 248.655V243.818H88.1215V252H86.8644V250.615H86.7792C86.5874 251.031 86.2892 251.384 85.8843 251.675C85.4795 251.963 84.9681 252.107 84.3502 252.107C83.8389 252.107 83.3843 251.995 82.9866 251.771C82.5889 251.544 82.2764 251.203 82.0491 250.748C81.8218 250.29 81.7082 249.713 81.7082 249.017V243.818H82.9653V248.932C82.9653 249.528 83.1322 250.004 83.466 250.359C83.8034 250.714 84.233 250.892 84.7551 250.892C85.0676 250.892 85.3854 250.812 85.7085 250.652C86.0352 250.493 86.3087 250.248 86.5289 249.917C86.7526 249.587 86.8644 249.166 86.8644 248.655ZM90.424 252V243.818H91.6385V245.097H91.745C91.9155 244.66 92.1907 244.321 92.5707 244.079C92.9506 243.834 93.407 243.712 93.9396 243.712C94.4794 243.712 94.9286 243.834 95.2873 244.079C95.6495 244.321 95.9318 244.66 96.1342 245.097H96.2195C96.429 244.674 96.7433 244.338 97.1623 244.09C97.5813 243.838 98.0838 243.712 98.6697 243.712C99.4013 243.712 99.9996 243.941 100.465 244.399C100.93 244.853 101.163 245.562 101.163 246.524V252H99.9055V246.524C99.9055 245.92 99.7404 245.489 99.4102 245.23C99.0799 244.971 98.6911 244.841 98.2436 244.841C97.6683 244.841 97.2227 245.015 96.9066 245.363C96.5906 245.707 96.4325 246.144 96.4325 246.673V252H95.1541V246.396C95.1541 245.931 95.0032 245.556 94.7013 245.272C94.3995 244.985 94.0107 244.841 93.5348 244.841C93.2081 244.841 92.9027 244.928 92.6186 245.102C92.3381 245.276 92.1108 245.517 91.9368 245.826C91.7663 246.132 91.6811 246.485 91.6811 246.886V252H90.424ZM105.869 252.192C105.35 252.192 104.88 252.094 104.457 251.899C104.035 251.7 103.699 251.414 103.45 251.041C103.202 250.665 103.078 250.21 103.078 249.678C103.078 249.209 103.17 248.829 103.355 248.538C103.539 248.243 103.786 248.012 104.095 247.845C104.404 247.678 104.745 247.554 105.118 247.472C105.494 247.387 105.872 247.32 106.252 247.27C106.749 247.206 107.153 247.158 107.461 247.126C107.774 247.091 108.001 247.032 108.143 246.95C108.289 246.869 108.362 246.727 108.362 246.524V246.482C108.362 245.956 108.218 245.548 107.93 245.256C107.646 244.965 107.215 244.82 106.636 244.82C106.036 244.82 105.565 244.951 105.224 245.214C104.883 245.477 104.644 245.757 104.505 246.055L103.312 245.629C103.525 245.132 103.809 244.745 104.164 244.468C104.523 244.187 104.914 243.992 105.336 243.882C105.762 243.768 106.181 243.712 106.593 243.712C106.856 243.712 107.158 243.744 107.499 243.808C107.843 243.868 108.175 243.994 108.495 244.186C108.818 244.377 109.086 244.667 109.299 245.054C109.512 245.441 109.619 245.96 109.619 246.609V252H108.362V250.892H108.298C108.213 251.07 108.07 251.26 107.872 251.462C107.673 251.664 107.408 251.837 107.078 251.979C106.748 252.121 106.345 252.192 105.869 252.192ZM106.061 251.062C106.558 251.062 106.977 250.965 107.318 250.77C107.662 250.574 107.921 250.322 108.095 250.013C108.273 249.704 108.362 249.379 108.362 249.038V247.888C108.308 247.952 108.191 248.01 108.01 248.064C107.833 248.113 107.627 248.158 107.392 248.197C107.161 248.232 106.936 248.264 106.716 248.293C106.499 248.317 106.323 248.339 106.188 248.357C105.862 248.399 105.556 248.468 105.272 248.564C104.992 248.657 104.764 248.797 104.59 248.985C104.42 249.17 104.335 249.422 104.335 249.741C104.335 250.178 104.496 250.509 104.819 250.732C105.146 250.952 105.56 251.062 106.061 251.062ZM115.472 243.818V244.884H111.231V243.818H115.472ZM112.467 241.858H113.724V249.656C113.724 250.011 113.776 250.278 113.879 250.455C113.985 250.629 114.12 250.746 114.284 250.807C114.451 250.864 114.626 250.892 114.811 250.892C114.949 250.892 115.063 250.885 115.152 250.871C115.241 250.853 115.312 250.839 115.365 250.828L115.621 251.957C115.535 251.989 115.416 252.021 115.264 252.053C115.111 252.089 114.918 252.107 114.683 252.107C114.328 252.107 113.98 252.03 113.639 251.877C113.302 251.725 113.021 251.492 112.797 251.18C112.577 250.867 112.467 250.473 112.467 249.997V241.858ZM120.598 252.17C119.86 252.17 119.212 251.995 118.654 251.643C118.1 251.292 117.667 250.8 117.354 250.168C117.046 249.536 116.891 248.797 116.891 247.952C116.891 247.099 117.046 246.355 117.354 245.72C117.667 245.084 118.1 244.591 118.654 244.239C119.212 243.887 119.86 243.712 120.598 243.712C121.337 243.712 121.983 243.887 122.537 244.239C123.095 244.591 123.528 245.084 123.837 245.72C124.15 246.355 124.306 247.099 124.306 247.952C124.306 248.797 124.15 249.536 123.837 250.168C123.528 250.8 123.095 251.292 122.537 251.643C121.983 251.995 121.337 252.17 120.598 252.17ZM120.598 251.041C121.16 251.041 121.621 250.897 121.983 250.61C122.346 250.322 122.614 249.944 122.788 249.475C122.962 249.006 123.049 248.499 123.049 247.952C123.049 247.405 122.962 246.895 122.788 246.423C122.614 245.951 122.346 245.569 121.983 245.278C121.621 244.987 121.16 244.841 120.598 244.841C120.037 244.841 119.576 244.987 119.214 245.278C118.851 245.569 118.583 245.951 118.409 246.423C118.235 246.895 118.148 247.405 118.148 247.952C118.148 248.499 118.235 249.006 118.409 249.475C118.583 249.944 118.851 250.322 119.214 250.61C119.576 250.897 120.037 251.041 120.598 251.041ZM127.482 241.091V252H126.225V241.091H127.482ZM133.108 252.17C132.37 252.17 131.722 251.995 131.164 251.643C130.61 251.292 130.177 250.8 129.864 250.168C129.555 249.536 129.401 248.797 129.401 247.952C129.401 247.099 129.555 246.355 129.864 245.72C130.177 245.084 130.61 244.591 131.164 244.239C131.722 243.887 132.37 243.712 133.108 243.712C133.847 243.712 134.493 243.887 135.047 244.239C135.605 244.591 136.038 245.084 136.347 245.72C136.659 246.355 136.816 247.099 136.816 247.952C136.816 248.797 136.659 249.536 136.347 250.168C136.038 250.8 135.605 251.292 135.047 251.643C134.493 251.995 133.847 252.17 133.108 252.17ZM133.108 251.041C133.669 251.041 134.131 250.897 134.493 250.61C134.855 250.322 135.123 249.944 135.297 249.475C135.472 249.006 135.559 248.499 135.559 247.952C135.559 247.405 135.472 246.895 135.297 246.423C135.123 245.951 134.855 245.569 134.493 245.278C134.131 244.987 133.669 244.841 133.108 244.841C132.547 244.841 132.085 244.987 131.723 245.278C131.361 245.569 131.093 245.951 130.919 246.423C130.745 246.895 130.658 247.405 130.658 247.952C130.658 248.499 130.745 249.006 130.919 249.475C131.093 249.944 131.361 250.322 131.723 250.61C132.085 250.897 132.547 251.041 133.108 251.041ZM142.037 255.239C141.43 255.239 140.908 255.161 140.471 255.004C140.034 254.852 139.67 254.649 139.379 254.397C139.091 254.148 138.862 253.882 138.692 253.598L139.693 252.895C139.807 253.044 139.951 253.214 140.125 253.406C140.299 253.602 140.537 253.77 140.839 253.912C141.144 254.058 141.544 254.131 142.037 254.131C142.698 254.131 143.243 253.971 143.672 253.651C144.102 253.332 144.317 252.831 144.317 252.149V250.487H144.21C144.118 250.636 143.987 250.821 143.816 251.041C143.649 251.258 143.408 251.451 143.092 251.622C142.779 251.789 142.357 251.872 141.824 251.872C141.164 251.872 140.57 251.716 140.045 251.403C139.523 251.091 139.109 250.636 138.804 250.04C138.502 249.443 138.351 248.719 138.351 247.866C138.351 247.028 138.498 246.299 138.793 245.677C139.088 245.052 139.498 244.569 140.024 244.228C140.549 243.884 141.156 243.712 141.845 243.712C142.378 243.712 142.801 243.8 143.113 243.978C143.429 244.152 143.671 244.351 143.838 244.575C144.008 244.795 144.139 244.976 144.232 245.118H144.36V243.818H145.574V252.234C145.574 252.938 145.414 253.509 145.095 253.95C144.779 254.393 144.352 254.718 143.816 254.924C143.284 255.134 142.691 255.239 142.037 255.239ZM141.994 250.743C142.499 250.743 142.925 250.627 143.273 250.397C143.621 250.166 143.885 249.834 144.067 249.401C144.248 248.967 144.338 248.449 144.338 247.845C144.338 247.256 144.249 246.735 144.072 246.284C143.894 245.833 143.632 245.48 143.284 245.224C142.936 244.969 142.506 244.841 141.994 244.841C141.462 244.841 141.018 244.976 140.663 245.246C140.311 245.516 140.047 245.878 139.869 246.332C139.695 246.787 139.608 247.291 139.608 247.845C139.608 248.413 139.697 248.916 139.874 249.353C140.056 249.786 140.322 250.127 140.673 250.375C141.029 250.62 141.469 250.743 141.994 250.743ZM147.875 252V243.818H149.132V252H147.875ZM147.939 242.71L149.239 240.239H150.709L149.047 242.71H147.939ZM153.842 252.192C153.324 252.192 152.853 252.094 152.431 251.899C152.008 251.7 151.673 251.414 151.424 251.041C151.176 250.665 151.051 250.21 151.051 249.678C151.051 249.209 151.144 248.829 151.328 248.538C151.513 248.243 151.76 248.012 152.069 247.845C152.378 247.678 152.718 247.554 153.091 247.472C153.468 247.387 153.846 247.32 154.226 247.27C154.723 247.206 155.126 247.158 155.435 247.126C155.748 247.091 155.975 247.032 156.117 246.95C156.263 246.869 156.335 246.727 156.335 246.524V246.482C156.335 245.956 156.191 245.548 155.904 245.256C155.62 244.965 155.188 244.82 154.609 244.82C154.009 244.82 153.539 244.951 153.198 245.214C152.857 245.477 152.617 245.757 152.479 246.055L151.286 245.629C151.499 245.132 151.783 244.745 152.138 244.468C152.497 244.187 152.887 243.992 153.31 243.882C153.736 243.768 154.155 243.712 154.567 243.712C154.83 243.712 155.131 243.744 155.472 243.808C155.817 243.868 156.149 243.994 156.468 244.186C156.792 244.377 157.06 244.667 157.273 245.054C157.486 245.441 157.592 245.96 157.592 246.609V252H156.335V250.892H156.271C156.186 251.07 156.044 251.26 155.845 251.462C155.646 251.664 155.382 251.837 155.052 251.979C154.721 252.121 154.318 252.192 153.842 252.192ZM154.034 251.062C154.531 251.062 154.95 250.965 155.291 250.77C155.636 250.574 155.895 250.322 156.069 250.013C156.247 249.704 156.335 249.379 156.335 249.038V247.888C156.282 247.952 156.165 248.01 155.984 248.064C155.806 248.113 155.6 248.158 155.366 248.197C155.135 248.232 154.91 248.264 154.689 248.293C154.473 248.317 154.297 248.339 154.162 248.357C153.835 248.399 153.53 248.468 153.246 248.564C152.965 248.657 152.738 248.797 152.564 248.985C152.394 249.17 152.308 249.422 152.308 249.741C152.308 250.178 152.47 250.509 152.793 250.732C153.12 250.952 153.533 251.062 154.034 251.062Z" fill="#363636"/>
<path d="M634.925 223.096C633.273 220.293 630.191 218.419 626.68 218.419C623.168 218.419 620.087 220.294 618.435 223.096C618.307 223.312 618.24 223.559 618.24 223.81C618.24 224.061 618.307 224.308 618.435 224.524C620.087 227.327 623.169 229.201 626.68 229.201C630.193 229.201 633.274 227.326 634.925 224.524C635.053 224.308 635.12 224.061 635.12 223.81C635.12 223.559 635.053 223.312 634.925 223.096ZM626.68 227.794C624.478 227.794 622.695 226.012 622.695 223.81C622.695 221.608 624.477 219.826 626.68 219.826C628.883 219.826 630.666 221.608 630.666 223.81C630.666 226.012 628.883 227.794 626.68 227.794ZM629.728 223.81C629.728 225.493 628.364 226.857 626.68 226.857C624.997 226.857 623.632 225.493 623.632 223.81C623.632 223.291 623.762 222.803 623.991 222.375L623.991 222.376C623.991 223.069 624.553 223.631 625.246 223.631C625.939 223.631 626.501 223.069 626.501 222.376C626.501 221.683 625.939 221.122 625.246 221.122L625.245 221.122C625.673 220.893 626.161 220.763 626.68 220.763C628.364 220.763 629.728 222.127 629.728 223.81Z" fill="#363636"/>
<path d="M659.12 218.771V217.951C659.12 217.561 659.434 217.248 659.824 217.248H663.106L663.382 216.7C663.499 216.459 663.742 216.31 664.009 216.31H667.359C667.625 216.31 667.869 216.459 667.989 216.7L668.264 217.248H671.547C671.937 217.248 672.25 217.561 672.25 217.951V218.771C672.25 218.964 672.092 219.123 671.898 219.123H659.472C659.278 219.123 659.12 218.964 659.12 218.771ZM671.289 220.432L670.691 229.992C670.644 230.733 670.029 231.31 669.287 231.31H662.083C661.342 231.31 660.726 230.733 660.679 229.992L660.081 220.432C660.07 220.23 660.231 220.06 660.433 220.06H670.94C671.139 220.06 671.301 220.23 671.289 220.432Z" fill="#363636"/>
</g>
<defs>
<filter id="filter0_d_159_1293" x="0" y="0" width="730" height="302" filterUnits="userSpaceOnUse" color-interpolation-filters="sRGB">
<feFlood flood-opacity="0" result="BackgroundImageFix"/>
<feColorMatrix in="SourceAlpha" type="matrix" values="0 0 0 0 0 0 0 0 0 0 0 0 0 0 0 0 0 0 127 0" result="hardAlpha"/>
<feOffset dy="2"/>
<feGaussianBlur stdDeviation="3"/>
<feComposite in2="hardAlpha" operator="out"/>
<feColorMatrix type="matrix" values="0 0 0 0 0 0 0 0 0 0 0 0 0 0 0 0 0 0 0.04 0"/>
<feBlend mode="normal" in2="BackgroundImageFix" result="effect1_dropShadow_159_1293"/>
<feBlend mode="normal" in="SourceGraphic" in2="effect1_dropShadow_159_1293" result="shape"/>
</filter>
</defs>
</svg>
