<svg width="671" height="303" viewBox="0 0 671 303" fill="none" xmlns="http://www.w3.org/2000/svg">
<g filter="url(#filter0_d_159_1330)">
<rect x="6" y="4.08496" width="658.5" height="290" rx="14" fill="white" shape-rendering="crispEdges"/>
<g filter="url(#filter1_d_159_1330)">
<path d="M41.3281 34.71H26.4219C26.1898 34.71 26 34.5201 26 34.2881V33.0225C26 32.0908 26.7559 31.335 27.6875 31.335H29.375V29.5068C29.375 29.2748 29.5648 29.085 29.7969 29.085H31.2031C31.4352 29.085 31.625 29.2748 31.625 29.5068V31.335H36.125V29.5068C36.125 29.2748 36.3148 29.085 36.5469 29.085H37.9531C38.1852 29.085 38.375 29.2748 38.375 29.5068V31.335H40.0625C40.9941 31.335 41.75 32.0908 41.75 33.0225V34.2881C41.75 34.5201 41.5602 34.71 41.3281 34.71ZM26.4219 35.835H41.3281C41.5602 35.835 41.75 36.0248 41.75 36.2568V45.3975C41.75 46.3291 40.9941 47.085 40.0625 47.085H27.6875C26.7559 47.085 26 46.3291 26 45.3975V36.2568C26 36.0248 26.1898 35.835 26.4219 35.835ZM37.5312 40.7568C37.5312 40.5248 37.3414 40.335 37.1094 40.335H35V38.2256C35 37.9936 34.8102 37.8037 34.5781 37.8037H33.1719C32.9398 37.8037 32.75 37.9936 32.75 38.2256V40.335H30.6406C30.4086 40.335 30.2188 40.5248 30.2188 40.7568V42.1631C30.2188 42.3951 30.4086 42.585 30.6406 42.585H32.75V44.6943C32.75 44.9264 32.9398 45.1162 33.1719 45.1162H34.5781C34.8102 45.1162 35 44.9264 35 44.6943V42.585H37.1094C37.3414 42.585 37.5312 42.3951 37.5312 42.1631V40.7568Z" fill="#239B95"/>
<path d="M57.1426 44.2686H54.9277V33.4932C54.9277 33.1299 54.8984 32.8896 54.8398 32.7725C54.7812 32.6553 54.7051 32.5791 54.6113 32.5439C54.4121 32.4619 54.2305 32.3975 54.0664 32.3506C53.9023 32.292 53.8203 32.1514 53.8203 31.9287C53.8203 31.5303 54.0664 31.3311 54.5586 31.3311H56.4219C56.9023 31.3311 57.1426 31.5244 57.1426 31.9111V36.6748H61.3262V31.3135H63.541V44.2686H61.3262V38.1865H57.1426V44.2686ZM67.6543 44.2686H65.457V37.2197C65.457 36.8564 65.4277 36.6104 65.3691 36.4814C65.3105 36.3525 65.2461 36.2705 65.1758 36.2354C64.9648 36.1768 64.8066 36.1064 64.7012 36.0244C64.5957 35.9424 64.543 35.8193 64.543 35.6553C64.543 35.2568 64.7949 35.0576 65.2988 35.0576H66.8984C67.4023 35.0576 67.6543 35.2686 67.6543 35.6904V44.2686ZM67.7246 32.333C67.7246 32.708 67.5898 33.0303 67.3203 33.2998C67.0625 33.5576 66.7461 33.6865 66.3711 33.6865C65.9961 33.6865 65.6797 33.5576 65.4219 33.2998C65.1641 33.0303 65.0352 32.708 65.0352 32.333C65.0352 31.958 65.1641 31.6357 65.4219 31.3662C65.6797 31.085 65.9961 30.9443 66.3711 30.9443C66.7461 30.9443 67.0625 31.085 67.3203 31.3662C67.5898 31.6357 67.7246 31.958 67.7246 32.333ZM71.7148 40.1377C70.8594 39.8447 70.168 39.4756 69.6406 39.0303C69.125 38.5732 68.8672 38.0225 68.8672 37.3779C68.8672 36.5928 69.1484 35.9658 69.7109 35.4971C70.2734 35.0166 71.1055 34.7588 72.207 34.7236C72.6875 34.7002 73.1621 34.7412 73.6309 34.8467C74.1113 34.9404 74.5801 35.0986 75.0371 35.3213V37.4482C74.3574 36.8623 73.8066 36.5049 73.3848 36.376C72.9746 36.2354 72.6055 36.1709 72.2773 36.1826C71.8906 36.1826 71.5801 36.2646 71.3457 36.4287C71.123 36.5928 71 36.8447 70.9766 37.1846C70.9648 37.4775 71.1289 37.7471 71.4688 37.9932C71.8203 38.2275 72.3125 38.4678 72.9453 38.7139C73.8945 39.0654 74.5742 39.4639 74.9844 39.9092C75.4062 40.3545 75.6172 40.876 75.6172 41.4736C75.6172 42.376 75.2891 43.0908 74.6328 43.6182C73.9883 44.1338 73.0801 44.3916 71.9082 44.3916C71.334 44.3916 70.7949 44.3154 70.291 44.1631C69.7988 43.999 69.4297 43.8057 69.1836 43.583C68.9258 43.3604 68.791 43.1611 68.7793 42.9854C68.7676 42.7979 68.8027 42.6396 68.8848 42.5107C69.0605 42.2646 69.2832 42.1357 69.5527 42.124C69.8223 42.1006 70.0742 42.1943 70.3086 42.4053C70.5195 42.5576 70.7773 42.6865 71.082 42.792C71.3867 42.8857 71.6621 42.9326 71.9082 42.9326C72.4824 42.9092 72.8984 42.7568 73.1562 42.4756C73.4258 42.1943 73.5254 41.8486 73.4551 41.4385C73.4316 41.2393 73.3027 41.0283 73.0684 40.8057C72.834 40.583 72.3828 40.3604 71.7148 40.1377ZM79.1504 31.4893V35.0576H81.5234V36.4814H79.168V41.9307C79.168 42.3525 79.2383 42.6279 79.3789 42.7568C79.5312 42.8857 79.7598 42.9502 80.0645 42.9502C80.2285 42.9502 80.3867 42.9502 80.5391 42.9502C80.7031 42.9385 81.084 42.8564 81.6816 42.7041V44.1807C81.2832 44.3096 80.8965 44.3857 80.5215 44.4092C80.1582 44.4326 79.877 44.4443 79.6777 44.4443C79.0801 44.4443 78.5879 44.3799 78.2012 44.251C77.8145 44.1104 77.5391 43.9111 77.375 43.6533C77.1875 43.4189 77.0762 43.126 77.041 42.7744C77.0176 42.4111 77.0059 42.0361 77.0059 41.6494V36.4814H75.7402V35.0576H77.0059V33.7041L79.1504 31.4893ZM81.752 39.6279C81.752 38.2217 82.1152 37.0732 82.8418 36.1826C83.5801 35.2803 84.6465 34.8291 86.041 34.8291C87.4473 34.8291 88.5195 35.2803 89.2578 36.1826C89.9961 37.0732 90.3652 38.2217 90.3652 39.6279C90.3652 41.0225 89.9961 42.165 89.2578 43.0557C88.5195 43.9463 87.4473 44.3916 86.041 44.3916C84.6465 44.3916 83.5801 43.9463 82.8418 43.0557C82.1152 42.165 81.752 41.0225 81.752 39.6279ZM84.0547 39.6279C84.0547 40.7764 84.2598 41.6201 84.6699 42.1592C85.0801 42.6865 85.5371 42.9502 86.041 42.9502C86.5566 42.9502 87.0195 42.6865 87.4297 42.1592C87.8516 41.6201 88.0625 40.7764 88.0625 39.6279C88.0625 38.4678 87.8516 37.6182 87.4297 37.0791C87.0195 36.54 86.5566 36.2705 86.041 36.2705C85.5371 36.2705 85.0801 36.54 84.6699 37.0791C84.2598 37.6182 84.0547 38.4678 84.0547 39.6279ZM91.6309 37.2197C91.6309 36.8447 91.6016 36.5986 91.543 36.4814C91.4961 36.3525 91.4316 36.2705 91.3496 36.2354C91.1621 36.1885 91.0039 36.124 90.875 36.042C90.7578 35.9482 90.6992 35.8076 90.6992 35.6201C90.6992 35.2451 90.9512 35.0576 91.4551 35.0576H93.002C93.5176 35.0576 93.7754 35.2686 93.7754 35.6904V35.8311C93.8574 35.749 93.9453 35.6729 94.0391 35.6025C94.5664 35.1455 95.2578 34.917 96.1133 34.917H97.0098V36.8857C95.8848 36.6396 94.9824 36.7744 94.3027 37.29C94.1035 37.4307 93.9277 37.6299 93.7754 37.8877V44.2686H91.6309V37.2197ZM100.121 44.2686H97.9238V37.2197C97.9238 36.8564 97.8945 36.6104 97.8359 36.4814C97.7773 36.3525 97.7129 36.2705 97.6426 36.2354C97.4316 36.1768 97.2734 36.1064 97.168 36.0244C97.0625 35.9424 97.0098 35.8193 97.0098 35.6553C97.0098 35.2568 97.2617 35.0576 97.7656 35.0576H99.3652C99.8691 35.0576 100.121 35.2686 100.121 35.6904V44.2686ZM100.191 32.333C100.191 32.708 100.057 33.0303 99.7871 33.2998C99.5293 33.5576 99.2129 33.6865 98.8379 33.6865C98.4629 33.6865 98.1465 33.5576 97.8887 33.2998C97.6309 33.0303 97.502 32.708 97.502 32.333C97.502 31.958 97.6309 31.6357 97.8887 31.3662C98.1465 31.085 98.4629 30.9443 98.8379 30.9443C99.2129 30.9443 99.5293 31.085 99.7871 31.3662C100.057 31.6357 100.191 31.958 100.191 32.333ZM106.713 43.6533C106.561 43.7705 106.291 43.9229 105.904 44.1104C105.518 44.2979 104.973 44.3916 104.27 44.3916C103.438 44.3916 102.752 44.1514 102.213 43.6709C101.674 43.1787 101.404 42.5518 101.404 41.79C101.404 40.7588 101.861 39.9326 102.775 39.3115C103.701 38.6904 104.82 38.3799 106.133 38.3799H106.695V38.0107C106.695 37.4717 106.543 37.0498 106.238 36.7451C105.934 36.4287 105.57 36.2705 105.148 36.2705C104.773 36.2705 104.451 36.3701 104.182 36.5693C103.924 36.7686 103.795 37.1553 103.795 37.7295H101.51C101.51 36.8037 101.844 36.0889 102.512 35.585C103.18 35.0811 104.076 34.8291 105.201 34.8291C106.396 34.8291 107.305 35.1279 107.926 35.7256C108.559 36.3115 108.875 37.1025 108.875 38.0986V44.2686H106.713V43.6533ZM106.695 39.874C105.746 39.8506 104.99 39.9971 104.428 40.3135C103.865 40.6299 103.584 41.0635 103.584 41.6143C103.584 42.083 103.695 42.4053 103.918 42.5811C104.141 42.7451 104.393 42.8271 104.674 42.8271C105.166 42.8271 105.623 42.6455 106.045 42.2822C106.479 41.9189 106.695 41.4795 106.695 40.9639V39.874ZM112.654 44.2686H110.457V33.0713C110.457 32.708 110.428 32.4678 110.369 32.3506C110.322 32.2217 110.252 32.1396 110.158 32.1045C109.971 32.0342 109.818 31.9639 109.701 31.8936C109.596 31.8115 109.543 31.665 109.543 31.4541C109.543 31.0908 109.795 30.9092 110.299 30.9092H111.898C112.402 30.9092 112.654 31.1025 112.654 31.4893V44.2686ZM121.303 39.7158C121.303 40.7705 121.496 41.5732 121.883 42.124C122.27 42.6631 122.674 42.9326 123.096 42.9326C123.564 42.9326 123.969 42.6865 124.309 42.1943C124.648 41.7021 124.818 40.9346 124.818 39.8916V38.7666C124.818 37.9814 124.648 37.3838 124.309 36.9736C123.969 36.5635 123.541 36.3584 123.025 36.3584C122.604 36.3584 122.211 36.6338 121.848 37.1846C121.484 37.7236 121.303 38.5674 121.303 39.7158ZM124.836 43.7236C124.355 44.1689 123.752 44.3916 123.025 44.3916C121.725 44.3916 120.746 43.9404 120.09 43.0381C119.434 42.1357 119.105 41.0107 119.105 39.6631C119.105 38.21 119.434 37.0439 120.09 36.165C120.746 35.2744 121.672 34.8291 122.867 34.8291C123.676 34.8291 124.332 35.0107 124.836 35.374V33.0713C124.836 32.7197 124.807 32.4795 124.748 32.3506C124.689 32.21 124.625 32.1279 124.555 32.1045C124.355 32.0576 124.197 31.999 124.08 31.9287C123.975 31.8467 123.922 31.6943 123.922 31.4717C123.922 31.0967 124.174 30.9092 124.678 30.9092H126.242C126.746 30.9092 126.998 31.1025 126.998 31.4893V44.2686H124.836V43.7236ZM130.373 40.0674C130.42 40.7705 130.678 41.415 131.146 42.001C131.615 42.5752 132.225 42.8916 132.975 42.9502C133.232 42.9736 133.508 42.9678 133.801 42.9326C134.094 42.8857 134.381 42.792 134.662 42.6514C135.014 42.4873 135.277 42.4404 135.453 42.5107C135.641 42.5693 135.781 42.6924 135.875 42.8799C135.922 43.0322 135.916 43.1963 135.857 43.3721C135.811 43.5361 135.705 43.6709 135.541 43.7764C135.225 43.9639 134.797 44.1221 134.258 44.251C133.73 44.3799 133.139 44.4268 132.482 44.3916C131.252 44.3096 130.215 43.8291 129.371 42.9502C128.527 42.0713 128.105 40.8584 128.105 39.3115C128.105 37.9287 128.486 36.8389 129.248 36.042C130.01 35.2334 131.047 34.8291 132.359 34.8291C133.484 34.8291 134.398 35.1982 135.102 35.9365C135.805 36.6748 136.156 37.7998 136.156 39.3115V40.0674H130.373ZM130.373 38.5908H133.959C133.959 37.8057 133.783 37.2256 133.432 36.8506C133.092 36.4639 132.717 36.2705 132.307 36.2705C131.838 36.2705 131.404 36.4873 131.006 36.9209C130.619 37.3545 130.408 37.9111 130.373 38.5908ZM147.529 43.6533C147.377 43.7705 147.107 43.9229 146.721 44.1104C146.334 44.2979 145.789 44.3916 145.086 44.3916C144.254 44.3916 143.568 44.1514 143.029 43.6709C142.49 43.1787 142.221 42.5518 142.221 41.79C142.221 40.7588 142.678 39.9326 143.592 39.3115C144.518 38.6904 145.637 38.3799 146.949 38.3799H147.512V38.0107C147.512 37.4717 147.359 37.0498 147.055 36.7451C146.75 36.4287 146.387 36.2705 145.965 36.2705C145.59 36.2705 145.268 36.3701 144.998 36.5693C144.74 36.7686 144.611 37.1553 144.611 37.7295H142.326C142.326 36.8037 142.66 36.0889 143.328 35.585C143.996 35.0811 144.893 34.8291 146.018 34.8291C147.213 34.8291 148.121 35.1279 148.742 35.7256C149.375 36.3115 149.691 37.1025 149.691 38.0986V44.2686H147.529V43.6533ZM147.512 39.874C146.562 39.8506 145.807 39.9971 145.244 40.3135C144.682 40.6299 144.4 41.0635 144.4 41.6143C144.4 42.083 144.512 42.4053 144.734 42.5811C144.957 42.7451 145.209 42.8271 145.49 42.8271C145.982 42.8271 146.439 42.6455 146.861 42.2822C147.295 41.9189 147.512 41.4795 147.512 40.9639V39.874ZM153.576 31.4893V35.0576H155.949V36.4814H153.594V41.9307C153.594 42.3525 153.664 42.6279 153.805 42.7568C153.957 42.8857 154.186 42.9502 154.49 42.9502C154.654 42.9502 154.812 42.9502 154.965 42.9502C155.129 42.9385 155.51 42.8564 156.107 42.7041V44.1807C155.709 44.3096 155.322 44.3857 154.947 44.4092C154.584 44.4326 154.303 44.4443 154.104 44.4443C153.506 44.4443 153.014 44.3799 152.627 44.251C152.24 44.1104 151.965 43.9111 151.801 43.6533C151.613 43.4189 151.502 43.126 151.467 42.7744C151.443 42.4111 151.432 42.0361 151.432 41.6494V36.4814H150.166V35.0576H151.432V33.7041L153.576 31.4893ZM158.48 40.0674C158.527 40.7705 158.785 41.415 159.254 42.001C159.723 42.5752 160.332 42.8916 161.082 42.9502C161.34 42.9736 161.615 42.9678 161.908 42.9326C162.201 42.8857 162.488 42.792 162.77 42.6514C163.121 42.4873 163.385 42.4404 163.561 42.5107C163.748 42.5693 163.889 42.6924 163.982 42.8799C164.029 43.0322 164.023 43.1963 163.965 43.3721C163.918 43.5361 163.812 43.6709 163.648 43.7764C163.332 43.9639 162.904 44.1221 162.365 44.251C161.838 44.3799 161.246 44.4268 160.59 44.3916C159.359 44.3096 158.322 43.8291 157.479 42.9502C156.635 42.0713 156.213 40.8584 156.213 39.3115C156.213 37.9287 156.594 36.8389 157.355 36.042C158.117 35.2334 159.154 34.8291 160.467 34.8291C161.592 34.8291 162.506 35.1982 163.209 35.9365C163.912 36.6748 164.264 37.7998 164.264 39.3115V40.0674H158.48ZM158.48 38.5908H162.066C162.066 37.8057 161.891 37.2256 161.539 36.8506C161.199 36.4639 160.824 36.2705 160.414 36.2705C159.945 36.2705 159.512 36.4873 159.113 36.9209C158.727 37.3545 158.516 37.9111 158.48 38.5908ZM167.516 44.2686H165.371V37.2197C165.371 36.8447 165.348 36.6045 165.301 36.499C165.266 36.3818 165.201 36.3057 165.107 36.2705C164.896 36.1885 164.727 36.1123 164.598 36.042C164.469 35.9717 164.404 35.8311 164.404 35.6201C164.404 35.2451 164.65 35.0576 165.143 35.0576H166.76C167.264 35.0576 167.516 35.2686 167.516 35.6904V36.0068C167.645 35.8662 167.797 35.7314 167.973 35.6025C168.523 35.1455 169.186 34.917 169.959 34.917C170.803 34.917 171.482 35.2041 171.998 35.7783C172.525 36.3525 172.789 37.3193 172.789 38.6787V44.2686H170.609V38.6436C170.609 37.8232 170.504 37.2783 170.293 37.0088C170.082 36.7275 169.848 36.5869 169.59 36.5869C169.062 36.5986 168.541 36.9326 168.025 37.5889C167.826 37.8467 167.656 38.1396 167.516 38.4678V44.2686ZM181.156 43.7236C180.875 43.9346 180.471 44.1104 179.943 44.251C179.428 44.3799 178.807 44.4268 178.08 44.3916C176.85 44.3213 175.812 43.8467 174.969 42.9678C174.125 42.0771 173.703 40.8584 173.703 39.3115C173.703 37.9521 174.084 36.8682 174.846 36.0596C175.607 35.2393 176.656 34.8291 177.992 34.8291C179.07 34.8291 179.932 35.0928 180.576 35.6201C181.232 36.1357 181.584 36.833 181.631 37.7119H179.398C179.398 37.1963 179.264 36.8271 178.994 36.6045C178.725 36.3818 178.361 36.2705 177.904 36.2705C177.436 36.2705 176.996 36.5342 176.586 37.0615C176.176 37.5771 175.971 38.3271 175.971 39.3115C175.971 40.3896 176.217 41.251 176.709 41.8955C177.201 42.54 177.822 42.8916 178.572 42.9502C178.83 42.9736 179.105 42.9678 179.398 42.9326C179.691 42.8857 179.984 42.792 180.277 42.6514C180.582 42.499 180.828 42.4463 181.016 42.4932C181.215 42.54 181.361 42.6455 181.455 42.8096C181.514 42.9736 181.514 43.1436 181.455 43.3193C181.408 43.4834 181.309 43.6182 181.156 43.7236ZM185.182 44.2686H182.984V37.2197C182.984 36.8564 182.955 36.6104 182.896 36.4814C182.838 36.3525 182.773 36.2705 182.703 36.2354C182.492 36.1768 182.334 36.1064 182.229 36.0244C182.123 35.9424 182.07 35.8193 182.07 35.6553C182.07 35.2568 182.322 35.0576 182.826 35.0576H184.426C184.93 35.0576 185.182 35.2686 185.182 35.6904V44.2686ZM185.252 32.333C185.252 32.708 185.117 33.0303 184.848 33.2998C184.59 33.5576 184.273 33.6865 183.898 33.6865C183.523 33.6865 183.207 33.5576 182.949 33.2998C182.691 33.0303 182.562 32.708 182.562 32.333C182.562 31.958 182.691 31.6357 182.949 31.3662C183.207 31.085 183.523 30.9443 183.898 30.9443C184.273 30.9443 184.59 31.085 184.848 31.3662C185.117 31.6357 185.252 31.958 185.252 32.333ZM186.201 39.6279C186.201 38.2217 186.564 37.0732 187.291 36.1826C188.029 35.2803 189.096 34.8291 190.49 34.8291C191.896 34.8291 192.969 35.2803 193.707 36.1826C194.445 37.0732 194.814 38.2217 194.814 39.6279C194.814 41.0225 194.445 42.165 193.707 43.0557C192.969 43.9463 191.896 44.3916 190.49 44.3916C189.096 44.3916 188.029 43.9463 187.291 43.0557C186.564 42.165 186.201 41.0225 186.201 39.6279ZM188.504 39.6279C188.504 40.7764 188.709 41.6201 189.119 42.1592C189.529 42.6865 189.986 42.9502 190.49 42.9502C191.006 42.9502 191.469 42.6865 191.879 42.1592C192.301 41.6201 192.512 40.7764 192.512 39.6279C192.512 38.4678 192.301 37.6182 191.879 37.0791C191.469 36.54 191.006 36.2705 190.49 36.2705C189.986 36.2705 189.529 36.54 189.119 37.0791C188.709 37.6182 188.504 38.4678 188.504 39.6279ZM198.049 44.2686H195.904V37.2197C195.904 36.8447 195.881 36.6045 195.834 36.499C195.799 36.3818 195.734 36.3057 195.641 36.2705C195.43 36.1885 195.26 36.1123 195.131 36.042C195.002 35.9717 194.938 35.8311 194.938 35.6201C194.938 35.2451 195.184 35.0576 195.676 35.0576H197.293C197.797 35.0576 198.049 35.2686 198.049 35.6904V36.0068C198.178 35.8662 198.33 35.7314 198.506 35.6025C199.057 35.1455 199.719 34.917 200.492 34.917C201.336 34.917 202.016 35.2041 202.531 35.7783C203.059 36.3525 203.322 37.3193 203.322 38.6787V44.2686H201.143V38.6436C201.143 37.8232 201.037 37.2783 200.826 37.0088C200.615 36.7275 200.381 36.5869 200.123 36.5869C199.596 36.5986 199.074 36.9326 198.559 37.5889C198.359 37.8467 198.189 38.1396 198.049 38.4678V44.2686ZM206.504 40.0674C206.551 40.7705 206.809 41.415 207.277 42.001C207.746 42.5752 208.355 42.8916 209.105 42.9502C209.363 42.9736 209.639 42.9678 209.932 42.9326C210.225 42.8857 210.512 42.792 210.793 42.6514C211.145 42.4873 211.408 42.4404 211.584 42.5107C211.771 42.5693 211.912 42.6924 212.006 42.8799C212.053 43.0322 212.047 43.1963 211.988 43.3721C211.941 43.5361 211.836 43.6709 211.672 43.7764C211.355 43.9639 210.928 44.1221 210.389 44.251C209.861 44.3799 209.27 44.4268 208.613 44.3916C207.383 44.3096 206.346 43.8291 205.502 42.9502C204.658 42.0713 204.236 40.8584 204.236 39.3115C204.236 37.9287 204.617 36.8389 205.379 36.042C206.141 35.2334 207.178 34.8291 208.49 34.8291C209.615 34.8291 210.529 35.1982 211.232 35.9365C211.936 36.6748 212.287 37.7998 212.287 39.3115V40.0674H206.504ZM206.504 38.5908H210.09C210.09 37.8057 209.914 37.2256 209.562 36.8506C209.223 36.4639 208.848 36.2705 208.438 36.2705C207.969 36.2705 207.535 36.4873 207.137 36.9209C206.75 37.3545 206.539 37.9111 206.504 38.5908ZM215.732 40.1377C214.877 39.8447 214.186 39.4756 213.658 39.0303C213.143 38.5732 212.885 38.0225 212.885 37.3779C212.885 36.5928 213.166 35.9658 213.729 35.4971C214.291 35.0166 215.123 34.7588 216.225 34.7236C216.705 34.7002 217.18 34.7412 217.648 34.8467C218.129 34.9404 218.598 35.0986 219.055 35.3213V37.4482C218.375 36.8623 217.824 36.5049 217.402 36.376C216.992 36.2354 216.623 36.1709 216.295 36.1826C215.908 36.1826 215.598 36.2646 215.363 36.4287C215.141 36.5928 215.018 36.8447 214.994 37.1846C214.982 37.4775 215.146 37.7471 215.486 37.9932C215.838 38.2275 216.33 38.4678 216.963 38.7139C217.912 39.0654 218.592 39.4639 219.002 39.9092C219.424 40.3545 219.635 40.876 219.635 41.4736C219.635 42.376 219.307 43.0908 218.65 43.6182C218.006 44.1338 217.098 44.3916 215.926 44.3916C215.352 44.3916 214.812 44.3154 214.309 44.1631C213.816 43.999 213.447 43.8057 213.201 43.583C212.943 43.3604 212.809 43.1611 212.797 42.9854C212.785 42.7979 212.82 42.6396 212.902 42.5107C213.078 42.2646 213.301 42.1357 213.57 42.124C213.84 42.1006 214.092 42.1943 214.326 42.4053C214.537 42.5576 214.795 42.6865 215.1 42.792C215.404 42.8857 215.68 42.9326 215.926 42.9326C216.5 42.9092 216.916 42.7568 217.174 42.4756C217.443 42.1943 217.543 41.8486 217.473 41.4385C217.449 41.2393 217.32 41.0283 217.086 40.8057C216.852 40.583 216.4 40.3604 215.732 40.1377Z" fill="#363636"/>
<path d="M642.766 39.0147L635.329 46.4522C634.815 46.9663 633.984 46.9663 633.475 46.4522L632.239 45.2163C631.725 44.7022 631.725 43.8709 632.239 43.3624L637.511 38.0905L632.239 32.8186C631.725 32.3045 631.725 31.4733 632.239 30.9647L633.47 29.7178C633.984 29.2038 634.815 29.2038 635.323 29.7178L642.761 37.1553C643.28 37.6694 643.28 38.5006 642.766 39.0147Z" fill="#239B95"/>
<path d="M644.5 67.085H26V69.085H644.5V67.085Z" fill="#BCBCBD" mask="url(#path-2-inside-1_159_1330)"/>
</g>
<path d="M33.6303 103.676V114.585H31.3239V105.865H31.2599L28.7617 107.431V105.386L31.4624 103.676H33.6303ZM40.5004 114.825C39.5843 114.821 38.7959 114.596 38.1354 114.148C37.4784 113.701 36.9724 113.053 36.6173 112.204C36.2657 111.355 36.0917 110.334 36.0953 109.141C36.0953 107.951 36.271 106.938 36.6226 106.1C36.9777 105.261 37.4838 104.624 38.1407 104.187C38.8012 103.747 39.5878 103.527 40.5004 103.527C41.4131 103.527 42.1979 103.747 42.8548 104.187C43.5154 104.628 44.0232 105.267 44.3783 106.105C44.7334 106.939 44.9092 107.951 44.9056 109.141C44.9056 110.338 44.7281 111.361 44.373 112.209C44.0214 113.058 43.5171 113.706 42.8602 114.153C42.2032 114.601 41.4166 114.825 40.5004 114.825ZM40.5004 112.912C41.1254 112.912 41.6244 112.598 41.9972 111.97C42.3701 111.341 42.5548 110.398 42.5512 109.141C42.5512 108.314 42.466 107.625 42.2955 107.074C42.1286 106.524 41.8907 106.11 41.5818 105.833C41.2764 105.556 40.9159 105.418 40.5004 105.418C39.879 105.418 39.3818 105.728 39.009 106.35C38.6361 106.971 38.4479 107.902 38.4443 109.141C38.4443 109.979 38.5278 110.679 38.6947 111.24C38.8651 111.797 39.1048 112.216 39.4138 112.497C39.7227 112.774 40.085 112.912 40.5004 112.912ZM51.323 103.165L47.8074 116.226H45.8525L49.3681 103.165H51.323ZM56.6723 114.825C55.7561 114.821 54.9678 114.596 54.3073 114.148C53.6503 113.701 53.1443 113.053 52.7892 112.204C52.4376 111.355 52.2636 110.334 52.2671 109.141C52.2671 107.951 52.4429 106.938 52.7945 106.1C53.1496 105.261 53.6556 104.624 54.3126 104.187C54.9731 103.747 55.7597 103.527 56.6723 103.527C57.585 103.527 58.3698 103.747 59.0267 104.187C59.6872 104.628 60.195 105.267 60.5502 106.105C60.9053 106.939 61.0811 107.951 61.0775 109.141C61.0775 110.338 60.8999 111.361 60.5448 112.209C60.1933 113.058 59.689 113.706 59.032 114.153C58.3751 114.601 57.5885 114.825 56.6723 114.825ZM56.6723 112.912C57.2973 112.912 57.7963 112.598 58.1691 111.97C58.542 111.341 58.7267 110.398 58.7231 109.141C58.7231 108.314 58.6379 107.625 58.4674 107.074C58.3005 106.524 58.0626 106.11 57.7536 105.833C57.4482 105.556 57.0878 105.418 56.6723 105.418C56.0509 105.418 55.5537 105.728 55.1808 106.35C54.808 106.971 54.6198 107.902 54.6162 109.141C54.6162 109.979 54.6997 110.679 54.8666 111.24C55.037 111.797 55.2767 112.216 55.5857 112.497C55.8946 112.774 56.2568 112.912 56.6723 112.912ZM66.7917 114.734C65.9714 114.734 65.2417 114.601 64.6025 114.335C63.9668 114.065 63.4679 113.697 63.1056 113.232C62.7434 112.767 62.5623 112.239 62.5623 111.65C62.5623 111.195 62.6653 110.778 62.8713 110.398C63.0808 110.015 63.3649 109.697 63.7235 109.445C64.0822 109.189 64.4835 109.026 64.9274 108.955V108.88C64.345 108.763 63.8727 108.481 63.5105 108.033C63.1483 107.582 62.9672 107.058 62.9672 106.462C62.9672 105.897 63.1323 105.395 63.4625 104.954C63.7928 104.51 64.2456 104.162 64.8208 103.91C65.3997 103.655 66.0566 103.527 66.7917 103.527C67.5268 103.527 68.182 103.655 68.7573 103.91C69.3361 104.166 69.7907 104.516 70.1209 104.96C70.4512 105.4 70.6181 105.901 70.6216 106.462C70.6181 107.062 70.4334 107.586 70.0676 108.033C69.7019 108.481 69.2331 108.763 68.6614 108.88V108.955C69.0982 109.026 69.4941 109.189 69.8493 109.445C70.2079 109.697 70.492 110.015 70.7015 110.398C70.9146 110.778 71.0229 111.195 71.0265 111.65C71.0229 112.239 70.84 112.767 70.4778 113.232C70.1156 113.697 69.6149 114.065 68.9757 114.335C68.34 114.601 67.612 114.734 66.7917 114.734ZM66.7917 113.04C67.1575 113.04 67.4771 112.975 67.7505 112.843C68.024 112.708 68.237 112.524 68.3897 112.289C68.546 112.051 68.6241 111.778 68.6241 111.469C68.6241 111.153 68.5442 110.874 68.3844 110.633C68.2246 110.388 68.008 110.196 67.7346 110.057C67.4611 109.915 67.1468 109.844 66.7917 109.844C66.4402 109.844 66.1259 109.915 65.8489 110.057C65.5719 110.196 65.3535 110.388 65.1937 110.633C65.0375 110.874 64.9593 111.153 64.9593 111.469C64.9593 111.778 65.0357 112.051 65.1884 112.289C65.3411 112.524 65.5559 112.708 65.8329 112.843C66.1099 112.975 66.4295 113.04 66.7917 113.04ZM66.7917 108.166C67.0971 108.166 67.3688 108.104 67.6067 107.98C67.8446 107.856 68.0311 107.683 68.166 107.463C68.301 107.243 68.3684 106.989 68.3684 106.701C68.3684 106.417 68.301 106.169 68.166 105.956C68.0311 105.739 67.8464 105.57 67.612 105.45C67.3777 105.325 67.1042 105.263 66.7917 105.263C66.4828 105.263 66.2093 105.325 65.9714 105.45C65.7335 105.57 65.5471 105.739 65.4121 105.956C65.2807 106.169 65.215 106.417 65.215 106.701C65.215 106.989 65.2825 107.243 65.4174 107.463C65.5524 107.683 65.7388 107.856 65.9767 107.98C66.2147 108.104 66.4863 108.166 66.7917 108.166ZM77.4118 103.165L73.8962 116.226H71.9413L75.4569 103.165H77.4118ZM78.4838 114.585V112.923L82.367 109.328C82.6973 109.008 82.9743 108.72 83.198 108.465C83.4252 108.209 83.5975 107.959 83.7147 107.714C83.8319 107.465 83.8904 107.197 83.8904 106.909C83.8904 106.59 83.8176 106.314 83.6721 106.084C83.5265 105.849 83.3276 105.67 83.0755 105.546C82.8233 105.418 82.5375 105.354 82.2179 105.354C81.8841 105.354 81.5929 105.421 81.3443 105.556C81.0957 105.691 80.9039 105.885 80.769 106.137C80.6341 106.389 80.5666 106.689 80.5666 107.037H78.3773C78.3773 106.323 78.5389 105.704 78.862 105.178C79.1852 104.652 79.638 104.246 80.2203 103.958C80.8027 103.671 81.4739 103.527 82.2338 103.527C83.0151 103.527 83.6951 103.665 84.274 103.942C84.8564 104.216 85.3091 104.596 85.6323 105.082C85.9554 105.569 86.117 106.126 86.117 106.755C86.117 107.167 86.0353 107.573 85.872 107.975C85.7122 108.376 85.4263 108.821 85.0144 109.312C84.6025 109.798 84.0218 110.382 83.2725 111.064L81.6799 112.625V112.699H86.2608V114.585H78.4838ZM92.2094 114.825C91.2932 114.821 90.5049 114.596 89.8444 114.148C89.1874 113.701 88.6814 113.053 88.3263 112.204C87.9747 111.355 87.8007 110.334 87.8042 109.141C87.8042 107.951 87.98 106.938 88.3316 106.1C88.6867 105.261 89.1927 104.624 89.8497 104.187C90.5102 103.747 91.2968 103.527 92.2094 103.527C93.1221 103.527 93.9069 103.747 94.5638 104.187C95.2243 104.628 95.7322 105.267 96.0873 106.105C96.4424 106.939 96.6182 107.951 96.6146 109.141C96.6146 110.338 96.4371 111.361 96.0819 112.209C95.7304 113.058 95.2261 113.706 94.5692 114.153C93.9122 114.601 93.1256 114.825 92.2094 114.825ZM92.2094 112.912C92.8344 112.912 93.3334 112.598 93.7062 111.97C94.0791 111.341 94.2638 110.398 94.2602 109.141C94.2602 108.314 94.175 107.625 94.0045 107.074C93.8376 106.524 93.5997 106.11 93.2907 105.833C92.9854 105.556 92.6249 105.418 92.2094 105.418C91.588 105.418 91.0908 105.728 90.718 106.35C90.3451 106.971 90.1569 107.902 90.1533 109.141C90.1533 109.979 90.2368 110.679 90.4037 111.24C90.5741 111.797 90.8138 112.216 91.1228 112.497C91.4317 112.774 91.7939 112.912 92.2094 112.912ZM98.2592 114.585V112.923L102.142 109.328C102.473 109.008 102.75 108.72 102.973 108.465C103.201 108.209 103.373 107.959 103.49 107.714C103.607 107.465 103.666 107.197 103.666 106.909C103.666 106.59 103.593 106.314 103.447 106.084C103.302 105.849 103.103 105.67 102.851 105.546C102.599 105.418 102.313 105.354 101.993 105.354C101.659 105.354 101.368 105.421 101.12 105.556C100.871 105.691 100.679 105.885 100.544 106.137C100.409 106.389 100.342 106.689 100.342 107.037H98.1527C98.1527 106.323 98.3143 105.704 98.6374 105.178C98.9606 104.652 99.4134 104.246 99.9957 103.958C100.578 103.671 101.249 103.527 102.009 103.527C102.79 103.527 103.471 103.665 104.049 103.942C104.632 104.216 105.085 104.596 105.408 105.082C105.731 105.569 105.892 106.126 105.892 106.755C105.892 107.167 105.811 107.573 105.647 107.975C105.488 108.376 105.202 108.821 104.79 109.312C104.378 109.798 103.797 110.382 103.048 111.064L101.455 112.625V112.699H106.036V114.585H98.2592ZM111.74 114.734C110.944 114.734 110.236 114.597 109.614 114.324C108.997 114.047 108.508 113.667 108.15 113.184C107.794 112.698 107.612 112.136 107.601 111.501H109.923C109.938 111.767 110.025 112.002 110.184 112.204C110.348 112.403 110.564 112.557 110.834 112.667C111.104 112.777 111.408 112.832 111.745 112.832C112.097 112.832 112.407 112.77 112.677 112.646C112.947 112.522 113.158 112.35 113.311 112.129C113.464 111.909 113.54 111.655 113.54 111.368C113.54 111.076 113.459 110.819 113.295 110.595C113.135 110.368 112.905 110.19 112.603 110.063C112.304 109.935 111.949 109.871 111.537 109.871H110.52V108.177H111.537C111.885 108.177 112.193 108.117 112.459 107.996C112.729 107.875 112.938 107.708 113.087 107.495C113.237 107.278 113.311 107.026 113.311 106.739C113.311 106.465 113.245 106.226 113.114 106.02C112.986 105.81 112.805 105.647 112.571 105.53C112.34 105.412 112.07 105.354 111.761 105.354C111.449 105.354 111.163 105.411 110.903 105.524C110.644 105.634 110.437 105.792 110.28 105.998C110.124 106.204 110.041 106.446 110.03 106.723H107.819C107.83 106.094 108.009 105.54 108.357 105.061C108.705 104.581 109.174 104.207 109.764 103.937C110.357 103.663 111.026 103.527 111.772 103.527C112.525 103.527 113.183 103.663 113.748 103.937C114.313 104.21 114.751 104.58 115.064 105.045C115.38 105.506 115.536 106.025 115.532 106.6C115.536 107.211 115.346 107.721 114.962 108.129C114.582 108.537 114.087 108.797 113.476 108.907V108.992C114.279 109.095 114.89 109.374 115.309 109.828C115.731 110.279 115.941 110.844 115.937 111.522C115.941 112.144 115.761 112.696 115.399 113.179C115.041 113.662 114.545 114.042 113.913 114.319C113.281 114.596 112.557 114.734 111.74 114.734Z" fill="#363636"/>
<path d="M37.9716 126.176V137.085H36.6932L30.7486 128.52H30.642V137.085H29.321V126.176H30.5994L36.5653 134.763H36.6719V126.176H37.9716ZM45.6008 133.74V128.903H46.8579V137.085H45.6008V135.7H45.5155C45.3238 136.116 45.0255 136.469 44.6207 136.76C44.2158 137.048 43.7045 137.191 43.0866 137.191C42.5752 137.191 42.1206 137.08 41.7229 136.856C41.3252 136.629 41.0127 136.288 40.7854 135.833C40.5581 135.375 40.4445 134.798 40.4445 134.102V128.903H41.7016V134.017C41.7016 134.613 41.8685 135.089 42.2023 135.444C42.5397 135.799 42.9694 135.977 43.4914 135.977C43.8039 135.977 44.1217 135.897 44.4449 135.737C44.7716 135.578 45.045 135.332 45.2652 135.002C45.4889 134.672 45.6008 134.251 45.6008 133.74ZM52.7186 128.903V129.968H48.4785V128.903H52.7186ZM49.7143 126.943H50.9714V134.741C50.9714 135.096 51.0229 135.363 51.1259 135.54C51.2324 135.714 51.3674 135.831 51.5307 135.892C51.6976 135.949 51.8734 135.977 52.0581 135.977C52.1966 135.977 52.3102 135.97 52.399 135.956C52.4877 135.938 52.5588 135.924 52.612 135.913L52.8677 137.042C52.7825 137.074 52.6635 137.106 52.5108 137.138C52.3581 137.174 52.1646 137.191 51.9302 137.191C51.5751 137.191 51.2271 137.115 50.8862 136.962C50.5488 136.81 50.2683 136.577 50.0446 136.265C49.8244 135.952 49.7143 135.558 49.7143 135.082V126.943ZM54.6096 137.085V128.903H55.824V130.139H55.9093C56.0584 129.734 56.3283 129.406 56.7189 129.153C57.1096 128.901 57.5499 128.775 58.04 128.775C58.1323 128.775 58.2477 128.777 58.3862 128.781C58.5247 128.784 58.6294 128.79 58.7005 128.797V130.075C58.6578 130.064 58.5602 130.048 58.4075 130.027C58.2583 130.002 58.1003 129.99 57.9334 129.99C57.5357 129.99 57.1806 130.073 56.8681 130.24C56.5591 130.403 56.3141 130.631 56.133 130.922C55.9554 131.21 55.8667 131.538 55.8667 131.907V137.085H54.6096ZM60.1906 137.085V128.903H61.4477V137.085H60.1906ZM60.8298 127.54C60.5848 127.54 60.3735 127.456 60.1959 127.289C60.0219 127.122 59.9349 126.922 59.9349 126.687C59.9349 126.453 60.0219 126.252 60.1959 126.085C60.3735 125.918 60.5848 125.835 60.8298 125.835C61.0748 125.835 61.2844 125.918 61.4584 126.085C61.6359 126.252 61.7247 126.453 61.7247 126.687C61.7247 126.922 61.6359 127.122 61.4584 127.289C61.2844 127.456 61.0748 127.54 60.8298 127.54ZM67.074 137.255C66.307 137.255 65.6465 137.074 65.0925 136.712C64.5385 136.35 64.1124 135.851 63.8141 135.215C63.5158 134.58 63.3667 133.853 63.3667 133.037C63.3667 132.206 63.5194 131.472 63.8248 130.837C64.1337 130.198 64.5634 129.699 65.1138 129.34C65.6678 128.978 66.3141 128.797 67.0527 128.797C67.628 128.797 68.1465 128.903 68.6081 129.116C69.0698 129.329 69.448 129.628 69.7427 130.011C70.0375 130.395 70.2203 130.842 70.2914 131.353H69.0343C68.9384 130.981 68.7253 130.65 68.3951 130.363C68.0684 130.071 67.628 129.926 67.074 129.926C66.584 129.926 66.1543 130.054 65.785 130.309C65.4192 130.562 65.1333 130.918 64.9274 131.38C64.725 131.838 64.6238 132.376 64.6238 132.994C64.6238 133.626 64.7232 134.177 64.9221 134.645C65.1245 135.114 65.4086 135.478 65.7743 135.737C66.1436 135.997 66.5769 136.126 67.074 136.126C67.4007 136.126 67.6973 136.069 67.9636 135.956C68.2299 135.842 68.4554 135.679 68.6401 135.466C68.8248 135.253 68.9561 134.997 69.0343 134.699H70.2914C70.2203 135.182 70.0446 135.617 69.764 136.004C69.487 136.387 69.1195 136.693 68.6614 136.92C68.2069 137.144 67.6777 137.255 67.074 137.255ZM72.1291 137.085V128.903H73.3862V137.085H72.1291ZM72.7683 127.54C72.5233 127.54 72.312 127.456 72.1344 127.289C71.9604 127.122 71.8734 126.922 71.8734 126.687C71.8734 126.453 71.9604 126.252 72.1344 126.085C72.312 125.918 72.5233 125.835 72.7683 125.835C73.0133 125.835 73.2228 125.918 73.3968 126.085C73.5744 126.252 73.6632 126.453 73.6632 126.687C73.6632 126.922 73.5744 127.122 73.3968 127.289C73.2228 127.456 73.0133 127.54 72.7683 127.54ZM79.0125 137.255C78.2739 137.255 77.6258 137.08 77.0683 136.728C76.5143 136.377 76.0811 135.885 75.7686 135.253C75.4596 134.62 75.3051 133.882 75.3051 133.037C75.3051 132.184 75.4596 131.44 75.7686 130.805C76.0811 130.169 76.5143 129.676 77.0683 129.324C77.6258 128.972 78.2739 128.797 79.0125 128.797C79.7512 128.797 80.3975 128.972 80.9514 129.324C81.509 129.676 81.9422 130.169 82.2512 130.805C82.5637 131.44 82.7199 132.184 82.7199 133.037C82.7199 133.882 82.5637 134.62 82.2512 135.253C81.9422 135.885 81.509 136.377 80.9514 136.728C80.3975 137.08 79.7512 137.255 79.0125 137.255ZM79.0125 136.126C79.5736 136.126 80.0352 135.982 80.3975 135.695C80.7597 135.407 81.0278 135.029 81.2018 134.56C81.3758 134.091 81.4628 133.584 81.4628 133.037C81.4628 132.49 81.3758 131.98 81.2018 131.508C81.0278 131.036 80.7597 130.654 80.3975 130.363C80.0352 130.071 79.5736 129.926 79.0125 129.926C78.4514 129.926 77.9898 130.071 77.6276 130.363C77.2654 130.654 76.9972 131.036 76.8232 131.508C76.6492 131.98 76.5622 132.49 76.5622 133.037C76.5622 133.584 76.6492 134.091 76.8232 134.56C76.9972 135.029 77.2654 135.407 77.6276 135.695C77.9898 135.982 78.4514 136.126 79.0125 136.126ZM85.896 132.163V137.085H84.6388V128.903H85.8533V130.182H85.9599C86.1516 129.766 86.4428 129.432 86.8335 129.18C87.2241 128.924 87.7283 128.797 88.3462 128.797C88.9002 128.797 89.3849 128.91 89.8004 129.138C90.2159 129.361 90.5391 129.702 90.7699 130.16C91.0007 130.615 91.1161 131.19 91.1161 131.886V137.085H89.859V131.971C89.859 131.329 89.6921 130.828 89.3583 130.469C89.0245 130.107 88.5664 129.926 87.984 129.926C87.5827 129.926 87.2241 130.013 86.908 130.187C86.5955 130.361 86.3487 130.615 86.1676 130.949C85.9865 131.282 85.896 131.687 85.896 132.163Z" fill="#797979"/>
<path d="M33.3161 148.676H35.5959V156.282C35.5959 156.986 35.4379 157.596 35.1218 158.115C34.8093 158.633 34.3743 159.033 33.8168 159.313C33.2592 159.594 32.6112 159.734 31.8725 159.734C31.2156 159.734 30.619 159.619 30.0827 159.388C29.5501 159.153 29.1275 158.798 28.815 158.323C28.5025 157.843 28.348 157.241 28.3516 156.517H30.6474C30.6545 156.804 30.7131 157.051 30.8232 157.257C30.9368 157.46 31.0913 157.616 31.2866 157.726C31.4854 157.832 31.7198 157.886 31.9897 157.886C32.2738 157.886 32.5135 157.825 32.7088 157.705C32.9077 157.58 33.0586 157.399 33.1616 157.161C33.2646 156.923 33.3161 156.63 33.3161 156.282V148.676ZM42.707 156.101V151.403H44.9762V159.585H42.7976V158.099H42.7124C42.5277 158.578 42.2205 158.964 41.7908 159.255C41.3647 159.546 40.8445 159.691 40.2301 159.691C39.6832 159.691 39.2021 159.567 38.7866 159.319C38.3711 159.07 38.0462 158.717 37.8118 158.259C37.581 157.801 37.4638 157.252 37.4602 156.613V151.403H39.7294V156.208C39.733 156.691 39.8626 157.073 40.1183 157.353C40.3739 157.634 40.7166 157.774 41.1463 157.774C41.4197 157.774 41.6754 157.712 41.9134 157.587C42.1513 157.46 42.343 157.271 42.4886 157.023C42.6378 156.774 42.7106 156.467 42.707 156.101ZM49.1244 159.739C48.6024 159.739 48.1372 159.649 47.7288 159.468C47.3204 159.283 46.9972 159.011 46.7593 158.653C46.5249 158.291 46.4078 157.84 46.4078 157.3C46.4078 156.845 46.4912 156.464 46.6581 156.155C46.825 155.846 47.0523 155.597 47.3399 155.409C47.6276 155.221 47.9543 155.079 48.32 154.983C48.6894 154.887 49.0764 154.819 49.4813 154.78C49.9571 154.731 50.3406 154.684 50.6318 154.642C50.923 154.596 51.1343 154.528 51.2657 154.439C51.3971 154.351 51.4628 154.219 51.4628 154.045V154.013C51.4628 153.676 51.3563 153.415 51.1432 153.23C50.9337 153.046 50.6354 152.953 50.2483 152.953C49.8399 152.953 49.515 153.044 49.2735 153.225C49.032 153.402 48.8722 153.626 48.7941 153.896L46.6954 153.726C46.8019 153.228 47.0115 152.799 47.324 152.437C47.6365 152.071 48.0395 151.79 48.5331 151.595C49.0303 151.396 49.6056 151.297 50.259 151.297C50.7135 151.297 51.1485 151.35 51.564 151.456C51.983 151.563 52.3541 151.728 52.6773 151.952C53.004 152.176 53.2615 152.463 53.4497 152.815C53.6379 153.163 53.732 153.58 53.732 154.066V159.585H51.58V158.45H51.5161C51.3847 158.706 51.2089 158.932 50.9887 159.127C50.7686 159.319 50.504 159.47 50.195 159.58C49.8861 159.686 49.5292 159.739 49.1244 159.739ZM49.7742 158.173C50.108 158.173 50.4028 158.108 50.6585 157.976C50.9142 157.841 51.1148 157.66 51.2604 157.433C51.406 157.206 51.4788 156.948 51.4788 156.661V155.792C51.4078 155.839 51.3101 155.881 51.1858 155.92C51.0651 155.956 50.9284 155.989 50.7757 156.021C50.623 156.05 50.4703 156.076 50.3176 156.101C50.1649 156.123 50.0264 156.142 49.9021 156.16C49.6357 156.199 49.4031 156.261 49.2043 156.346C49.0054 156.432 48.8509 156.547 48.7409 156.693C48.6308 156.835 48.5757 157.012 48.5757 157.225C48.5757 157.534 48.6876 157.77 48.9113 157.934C49.1386 158.093 49.4262 158.173 49.7742 158.173ZM57.7616 154.855V159.585H55.4925V151.403H57.6551V152.847H57.751C57.9321 152.371 58.2357 151.994 58.6618 151.717C59.088 151.437 59.6047 151.297 60.2119 151.297C60.7801 151.297 61.2755 151.421 61.6981 151.669C62.1207 151.918 62.4491 152.273 62.6835 152.735C62.9179 153.193 63.0351 153.74 63.0351 154.375V159.585H60.7659V154.78C60.7694 154.28 60.6416 153.889 60.3824 153.608C60.1231 153.324 59.7662 153.182 59.3117 153.182C59.0063 153.182 58.7364 153.248 58.502 153.379C58.2712 153.511 58.0901 153.703 57.9587 153.955C57.8309 154.203 57.7652 154.503 57.7616 154.855ZM67.2898 158.093L67.2312 158.679C67.185 159.148 67.0962 159.615 66.9648 160.08C66.837 160.549 66.7021 160.973 66.56 161.353C66.4215 161.733 66.3097 162.032 66.2244 162.248H64.7543C64.8075 162.039 64.8803 161.746 64.9727 161.369C65.065 160.997 65.152 160.578 65.2337 160.112C65.3153 159.647 65.3668 159.173 65.3881 158.69L65.4148 158.093H67.2898ZM72.3661 159.585V148.676H76.6701C77.4975 148.676 78.2024 148.834 78.7848 149.15C79.3672 149.462 79.8111 149.897 80.1165 150.455C80.4254 151.009 80.5799 151.648 80.5799 152.373C80.5799 153.097 80.4237 153.736 80.1112 154.29C79.7987 154.844 79.3459 155.276 78.7528 155.585C78.1634 155.894 77.4496 156.048 76.6115 156.048H73.8683V154.2H76.2386C76.6825 154.2 77.0483 154.123 77.3359 153.971C77.6271 153.814 77.8438 153.6 77.9858 153.326C78.1314 153.049 78.2042 152.731 78.2042 152.373C78.2042 152.01 78.1314 151.694 77.9858 151.424C77.8438 151.151 77.6271 150.94 77.3359 150.791C77.0447 150.638 76.6754 150.562 76.228 150.562H74.6726V159.585H72.3661ZM85.6323 159.745C84.7907 159.745 84.0662 159.574 83.459 159.233C82.8553 158.889 82.3901 158.402 82.0634 157.774C81.7367 157.142 81.5733 156.394 81.5733 155.531C81.5733 154.69 81.7367 153.951 82.0634 153.315C82.3901 152.68 82.85 152.184 83.443 151.829C84.0396 151.474 84.7392 151.297 85.5417 151.297C86.0815 151.297 86.584 151.384 87.0492 151.558C87.5179 151.728 87.9263 151.986 88.2743 152.33C88.6259 152.674 88.8993 153.108 89.0946 153.63C89.29 154.148 89.3876 154.755 89.3876 155.451V156.075H82.4789V154.668H87.2516C87.2516 154.342 87.1806 154.052 87.0385 153.8C86.8965 153.548 86.6994 153.351 86.4473 153.209C86.1987 153.063 85.9093 152.991 85.579 152.991C85.2346 152.991 84.9292 153.07 84.6628 153.23C84.4 153.386 84.1941 153.598 84.0449 153.864C83.8958 154.127 83.8194 154.42 83.8159 154.743V156.08C83.8159 156.485 83.8904 156.835 84.0396 157.129C84.1923 157.424 84.4071 157.651 84.6841 157.811C84.9611 157.971 85.2896 158.051 85.6696 158.051C85.9217 158.051 86.1525 158.015 86.362 157.944C86.5716 157.873 86.7509 157.767 86.9 157.625C87.0492 157.483 87.1628 157.309 87.2409 157.103L89.3397 157.241C89.2331 157.745 89.0147 158.186 88.6845 158.562C88.3578 158.935 87.9352 159.226 87.4167 159.436C86.9018 159.642 86.307 159.745 85.6323 159.745ZM90.8684 159.585V151.403H93.0684V152.831H93.1536C93.3027 152.323 93.5531 151.939 93.9047 151.68C94.2562 151.417 94.661 151.286 95.1191 151.286C95.2328 151.286 95.3553 151.293 95.4867 151.307C95.6181 151.321 95.7335 151.341 95.8329 151.366V153.379C95.7264 153.347 95.579 153.319 95.3908 153.294C95.2026 153.269 95.0304 153.257 94.8741 153.257C94.5403 153.257 94.242 153.33 93.9792 153.475C93.72 153.617 93.514 153.816 93.3613 154.072C93.2122 154.328 93.1376 154.622 93.1376 154.956V159.585H90.8684ZM100.354 159.745C99.5123 159.745 98.7879 159.574 98.1807 159.233C97.577 158.889 97.1118 158.402 96.7851 157.774C96.4584 157.142 96.295 156.394 96.295 155.531C96.295 154.69 96.4584 153.951 96.7851 153.315C97.1118 152.68 97.5716 152.184 98.1647 151.829C98.7613 151.474 99.4608 151.297 100.263 151.297C100.803 151.297 101.306 151.384 101.771 151.558C102.24 151.728 102.648 151.986 102.996 152.33C103.348 152.674 103.621 153.108 103.816 153.63C104.012 154.148 104.109 154.755 104.109 155.451V156.075H97.2006V154.668H101.973C101.973 154.342 101.902 154.052 101.76 153.8C101.618 153.548 101.421 153.351 101.169 153.209C100.92 153.063 100.631 152.991 100.301 152.991C99.9562 152.991 99.6508 153.07 99.3845 153.23C99.1217 153.386 98.9157 153.598 98.7666 153.864C98.6175 154.127 98.5411 154.42 98.5376 154.743V156.08C98.5376 156.485 98.6121 156.835 98.7613 157.129C98.914 157.424 99.1288 157.651 99.4058 157.811C99.6828 157.971 100.011 158.051 100.391 158.051C100.643 158.051 100.874 158.015 101.084 157.944C101.293 157.873 101.473 157.767 101.622 157.625C101.771 157.483 101.884 157.309 101.963 157.103L104.061 157.241C103.955 157.745 103.736 158.186 103.406 158.562C103.079 158.935 102.657 159.226 102.138 159.436C101.623 159.642 101.029 159.745 100.354 159.745ZM105.547 159.585V158.232L109.553 153.273V153.214H105.686V151.403H112.286V152.879L108.525 157.715V157.774H112.424V159.585H105.547Z" fill="#797979"/>
<path d="M637.419 126.333L640.062 128.975C640.173 129.086 640.173 129.268 640.062 129.379L633.662 135.778L630.942 136.08C630.579 136.121 630.271 135.813 630.312 135.45L630.614 132.731L637.014 126.333C637.125 126.221 637.307 126.221 637.419 126.333ZM642.166 125.662L640.736 124.232C640.29 123.787 639.567 123.787 639.118 124.232L638.081 125.269C637.969 125.38 637.969 125.562 638.081 125.673L640.724 128.316C640.836 128.427 641.017 128.427 641.129 128.316L642.166 127.279C642.611 126.831 642.611 126.107 642.166 125.662ZM636.873 134.038V137.02H627.496V127.645H634.23C634.324 127.645 634.412 127.607 634.479 127.542L635.651 126.371C635.874 126.148 635.716 125.77 635.402 125.77H627.027C626.25 125.77 625.62 126.4 625.62 127.176V137.489C625.62 138.265 626.25 138.895 627.027 138.895H637.342C638.119 138.895 638.749 138.265 638.749 137.489V132.866C638.749 132.552 638.371 132.397 638.148 132.617L636.976 133.789C636.912 133.856 636.873 133.944 636.873 134.038Z" fill="#6C757D"/>
<path d="M654.5 176.585H16V178.585H654.5V176.585Z" fill="#E8E9EC" mask="url(#path-7-inside-2_159_1330)"/>
<path d="M33.1616 207.325C32.2454 207.321 31.457 207.096 30.7965 206.648C30.1396 206.201 29.6335 205.553 29.2784 204.704C28.9268 203.855 28.7528 202.834 28.7564 201.641C28.7564 200.451 28.9322 199.438 29.2837 198.6C29.6388 197.761 30.1449 197.124 30.8018 196.687C31.4624 196.247 32.2489 196.027 33.1616 196.027C34.0742 196.027 34.859 196.247 35.516 196.687C36.1765 197.128 36.6843 197.767 37.0394 198.605C37.3945 199.439 37.5703 200.451 37.5668 201.641C37.5668 202.838 37.3892 203.861 37.0341 204.709C36.6825 205.558 36.1783 206.206 35.5213 206.653C34.8643 207.101 34.0778 207.325 33.1616 207.325ZM33.1616 205.412C33.7866 205.412 34.2855 205.098 34.6584 204.47C35.0313 203.841 35.2159 202.898 35.2124 201.641C35.2124 200.814 35.1271 200.125 34.9567 199.574C34.7898 199.024 34.5518 198.61 34.2429 198.333C33.9375 198.056 33.5771 197.918 33.1616 197.918C32.5401 197.918 32.043 198.228 31.6701 198.85C31.2972 199.471 31.109 200.402 31.1055 201.641C31.1055 202.479 31.1889 203.179 31.3558 203.74C31.5263 204.297 31.766 204.716 32.0749 204.997C32.3839 205.274 32.7461 205.412 33.1616 205.412ZM43.2437 207.234C42.4482 207.234 41.7398 207.097 41.1183 206.824C40.5004 206.547 40.0122 206.167 39.6535 205.684C39.2984 205.198 39.1155 204.636 39.1048 204.001H41.4273C41.4415 204.267 41.5285 204.502 41.6883 204.704C41.8517 204.903 42.0683 205.057 42.3382 205.167C42.608 205.277 42.9117 205.332 43.249 205.332C43.6006 205.332 43.9113 205.27 44.1812 205.146C44.4511 205.022 44.6624 204.85 44.8151 204.629C44.9678 204.409 45.0441 204.155 45.0441 203.868C45.0441 203.576 44.9624 203.319 44.7991 203.095C44.6393 202.868 44.4085 202.69 44.1066 202.563C43.8083 202.435 43.4532 202.371 43.0413 202.371H42.0239V200.677H43.0413C43.3893 200.677 43.6965 200.617 43.9628 200.496C44.2327 200.375 44.4422 200.208 44.5914 199.995C44.7405 199.778 44.8151 199.526 44.8151 199.239C44.8151 198.965 44.7494 198.726 44.618 198.52C44.4901 198.31 44.309 198.147 44.0747 198.03C43.8438 197.912 43.574 197.854 43.265 197.854C42.9525 197.854 42.6666 197.911 42.4074 198.024C42.1482 198.134 41.9404 198.292 41.7842 198.498C41.6279 198.704 41.5445 198.946 41.5338 199.223H39.3232C39.3339 198.594 39.5132 198.04 39.8612 197.561C40.2093 197.081 40.678 196.707 41.2675 196.437C41.8605 196.163 42.5299 196.027 43.2757 196.027C44.0285 196.027 44.6872 196.163 45.2519 196.437C45.8165 196.71 46.2551 197.08 46.5676 197.545C46.8836 198.006 47.0399 198.525 47.0363 199.1C47.0399 199.711 46.8499 200.221 46.4664 200.629C46.0864 201.037 45.591 201.297 44.9802 201.407V201.492C45.7828 201.595 46.3936 201.874 46.8126 202.328C47.2352 202.779 47.4447 203.344 47.4411 204.022C47.4447 204.644 47.2654 205.196 46.9031 205.679C46.5445 206.162 46.0491 206.542 45.417 206.819C44.7849 207.096 44.0605 207.234 43.2437 207.234ZM53.8718 195.665L50.3562 208.726H48.4013L51.9169 195.665H53.8718ZM59.2211 207.325C58.305 207.321 57.5166 207.096 56.8561 206.648C56.1991 206.201 55.6931 205.553 55.338 204.704C54.9864 203.855 54.8124 202.834 54.816 201.641C54.816 200.451 54.9917 199.438 55.3433 198.6C55.6984 197.761 56.2045 197.124 56.8614 196.687C57.5219 196.247 58.3085 196.027 59.2211 196.027C60.1338 196.027 60.9186 196.247 61.5756 196.687C62.2361 197.128 62.7439 197.767 63.099 198.605C63.4541 199.439 63.6299 200.451 63.6263 201.641C63.6263 202.838 63.4488 203.861 63.0937 204.709C62.7421 205.558 62.2378 206.206 61.5809 206.653C60.9239 207.101 60.1373 207.325 59.2211 207.325ZM59.2211 205.412C59.8461 205.412 60.3451 205.098 60.718 204.47C61.0908 203.841 61.2755 202.898 61.2719 201.641C61.2719 200.814 61.1867 200.125 61.0162 199.574C60.8493 199.024 60.6114 198.61 60.3025 198.333C59.9971 198.056 59.6366 197.918 59.2211 197.918C58.5997 197.918 58.1025 198.228 57.7297 198.85C57.3568 199.471 57.1686 200.402 57.165 201.641C57.165 202.479 57.2485 203.179 57.4154 203.74C57.5858 204.297 57.8256 204.716 58.1345 204.997C58.4434 205.274 58.8057 205.412 59.2211 205.412ZM69.3406 207.234C68.5202 207.234 67.7905 207.101 67.1513 206.835C66.5156 206.565 66.0167 206.197 65.6545 205.732C65.2923 205.267 65.1112 204.739 65.1112 204.15C65.1112 203.695 65.2141 203.278 65.4201 202.898C65.6296 202.515 65.9137 202.197 66.2724 201.945C66.631 201.689 67.0323 201.526 67.4762 201.455V201.38C66.8938 201.263 66.4215 200.981 66.0593 200.533C65.6971 200.082 65.516 199.558 65.516 198.962C65.516 198.397 65.6811 197.895 66.0114 197.454C66.3416 197.01 66.7944 196.662 67.3697 196.41C67.9485 196.155 68.6055 196.027 69.3406 196.027C70.0756 196.027 70.7308 196.155 71.3061 196.41C71.8849 196.666 72.3395 197.016 72.6697 197.46C73 197.9 73.1669 198.401 73.1705 198.962C73.1669 199.562 72.9822 200.086 72.6165 200.533C72.2507 200.981 71.782 201.263 71.2102 201.38V201.455C71.647 201.526 72.043 201.689 72.3981 201.945C72.7567 202.197 73.0408 202.515 73.2504 202.898C73.4634 203.278 73.5717 203.695 73.5753 204.15C73.5717 204.739 73.3888 205.267 73.0266 205.732C72.6644 206.197 72.1637 206.565 71.5245 206.835C70.8888 207.101 70.1609 207.234 69.3406 207.234ZM69.3406 205.54C69.7063 205.54 70.0259 205.475 70.2994 205.343C70.5728 205.208 70.7859 205.024 70.9386 204.789C71.0948 204.551 71.1729 204.278 71.1729 203.969C71.1729 203.653 71.093 203.374 70.9332 203.133C70.7734 202.888 70.5568 202.696 70.2834 202.557C70.0099 202.415 69.6957 202.344 69.3406 202.344C68.989 202.344 68.6747 202.415 68.3977 202.557C68.1207 202.696 67.9023 202.888 67.7425 203.133C67.5863 203.374 67.5082 203.653 67.5082 203.969C67.5082 204.278 67.5845 204.551 67.7372 204.789C67.8899 205.024 68.1048 205.208 68.3817 205.343C68.6587 205.475 68.9783 205.54 69.3406 205.54ZM69.3406 200.666C69.646 200.666 69.9176 200.604 70.1555 200.48C70.3935 200.356 70.5799 200.183 70.7148 199.963C70.8498 199.743 70.9173 199.489 70.9173 199.201C70.9173 198.917 70.8498 198.669 70.7148 198.456C70.5799 198.239 70.3952 198.07 70.1609 197.95C69.9265 197.825 69.6531 197.763 69.3406 197.763C69.0316 197.763 68.7582 197.825 68.5202 197.95C68.2823 198.07 68.0959 198.239 67.9609 198.456C67.8295 198.669 67.7638 198.917 67.7638 199.201C67.7638 199.489 67.8313 199.743 67.9663 199.963C68.1012 200.183 68.2876 200.356 68.5256 200.48C68.7635 200.604 69.0352 200.666 69.3406 200.666ZM79.9607 195.665L76.445 208.726H74.4901L78.0058 195.665H79.9607ZM81.0327 207.085V205.423L84.9158 201.828C85.2461 201.508 85.5231 201.22 85.7468 200.965C85.9741 200.709 86.1463 200.459 86.2635 200.214C86.3807 199.965 86.4393 199.697 86.4393 199.409C86.4393 199.09 86.3665 198.814 86.2209 198.584C86.0753 198.349 85.8764 198.17 85.6243 198.046C85.3722 197.918 85.0863 197.854 84.7667 197.854C84.4329 197.854 84.1417 197.921 83.8931 198.056C83.6445 198.191 83.4528 198.385 83.3178 198.637C83.1829 198.889 83.1154 199.189 83.1154 199.537H80.9261C80.9261 198.823 81.0877 198.204 81.4109 197.678C81.734 197.152 82.1868 196.746 82.7692 196.458C83.3516 196.171 84.0227 196.027 84.7827 196.027C85.5639 196.027 86.244 196.165 86.8228 196.442C87.4052 196.716 87.858 197.096 88.1811 197.582C88.5043 198.069 88.6658 198.626 88.6658 199.255C88.6658 199.667 88.5842 200.073 88.4208 200.475C88.261 200.876 87.9751 201.321 87.5632 201.812C87.1513 202.298 86.5707 202.882 85.8214 203.564L84.2287 205.125V205.199H88.8097V207.085H81.0327ZM94.7583 207.325C93.8421 207.321 93.0537 207.096 92.3932 206.648C91.7362 206.201 91.2302 205.553 90.8751 204.704C90.5235 203.855 90.3495 202.834 90.3531 201.641C90.3531 200.451 90.5289 199.438 90.8804 198.6C91.2355 197.761 91.7416 197.124 92.3985 196.687C93.059 196.247 93.8456 196.027 94.7583 196.027C95.6709 196.027 96.4557 196.247 97.1127 196.687C97.7732 197.128 98.281 197.767 98.6361 198.605C98.9912 199.439 99.167 200.451 99.1634 201.641C99.1634 202.838 98.9859 203.861 98.6308 204.709C98.2792 205.558 97.7749 206.206 97.118 206.653C96.461 207.101 95.6744 207.325 94.7583 207.325ZM94.7583 205.412C95.3833 205.412 95.8822 205.098 96.2551 204.47C96.6279 203.841 96.8126 202.898 96.809 201.641C96.809 200.814 96.7238 200.125 96.5534 199.574C96.3865 199.024 96.1485 198.61 95.8396 198.333C95.5342 198.056 95.1737 197.918 94.7583 197.918C94.1368 197.918 93.6396 198.228 93.2668 198.85C92.8939 199.471 92.7057 200.402 92.7021 201.641C92.7021 202.479 92.7856 203.179 92.9525 203.74C93.123 204.297 93.3627 204.716 93.6716 204.997C93.9806 205.274 94.3428 205.412 94.7583 205.412ZM100.808 207.085V205.423L104.691 201.828C105.021 201.508 105.298 201.22 105.522 200.965C105.749 200.709 105.922 200.459 106.039 200.214C106.156 199.965 106.215 199.697 106.215 199.409C106.215 199.09 106.142 198.814 105.996 198.584C105.851 198.349 105.652 198.17 105.4 198.046C105.148 197.918 104.862 197.854 104.542 197.854C104.208 197.854 103.917 197.921 103.669 198.056C103.42 198.191 103.228 198.385 103.093 198.637C102.958 198.889 102.891 199.189 102.891 199.537H100.702C100.702 198.823 100.863 198.204 101.186 197.678C101.509 197.152 101.962 196.746 102.545 196.458C103.127 196.171 103.798 196.027 104.558 196.027C105.339 196.027 106.019 196.165 106.598 196.442C107.181 196.716 107.633 197.096 107.956 197.582C108.28 198.069 108.441 198.626 108.441 199.255C108.441 199.667 108.36 200.073 108.196 200.475C108.036 200.876 107.751 201.321 107.339 201.812C106.927 202.298 106.346 202.882 105.597 203.564L104.004 205.125V205.199H108.585V207.085H100.808ZM114.289 207.234C113.493 207.234 112.785 207.097 112.163 206.824C111.545 206.547 111.057 206.167 110.698 205.684C110.343 205.198 110.16 204.636 110.15 204.001H112.472C112.486 204.267 112.573 204.502 112.733 204.704C112.897 204.903 113.113 205.057 113.383 205.167C113.653 205.277 113.957 205.332 114.294 205.332C114.646 205.332 114.956 205.27 115.226 205.146C115.496 205.022 115.707 204.85 115.86 204.629C116.013 204.409 116.089 204.155 116.089 203.868C116.089 203.576 116.007 203.319 115.844 203.095C115.684 202.868 115.453 202.69 115.152 202.563C114.853 202.435 114.498 202.371 114.086 202.371H113.069V200.677H114.086C114.434 200.677 114.741 200.617 115.008 200.496C115.278 200.375 115.487 200.208 115.636 199.995C115.785 199.778 115.86 199.526 115.86 199.239C115.86 198.965 115.794 198.726 115.663 198.52C115.535 198.31 115.354 198.147 115.12 198.03C114.889 197.912 114.619 197.854 114.31 197.854C113.997 197.854 113.712 197.911 113.452 198.024C113.193 198.134 112.985 198.292 112.829 198.498C112.673 198.704 112.589 198.946 112.579 199.223H110.368C110.379 198.594 110.558 198.04 110.906 197.561C111.254 197.081 111.723 196.707 112.312 196.437C112.905 196.163 113.575 196.027 114.321 196.027C115.073 196.027 115.732 196.163 116.297 196.437C116.861 196.71 117.3 197.08 117.612 197.545C117.929 198.006 118.085 198.525 118.081 199.1C118.085 199.711 117.895 200.221 117.511 200.629C117.131 201.037 116.636 201.297 116.025 201.407V201.492C116.828 201.595 117.438 201.874 117.858 202.328C118.28 202.779 118.49 203.344 118.486 204.022C118.49 204.644 118.31 205.196 117.948 205.679C117.589 206.162 117.094 206.542 116.462 206.819C115.83 207.096 115.105 207.234 114.289 207.234Z" fill="#363636"/>
<path d="M38.0994 222.085H36.7784C36.7003 221.705 36.5636 221.371 36.3683 221.084C36.1765 220.796 35.9421 220.554 35.6651 220.359C35.3917 220.16 35.0881 220.011 34.7543 219.912C34.4205 219.812 34.0724 219.763 33.7102 219.763C33.0497 219.763 32.4513 219.929 31.9151 220.263C31.3825 220.597 30.9581 221.089 30.642 221.739C30.3295 222.389 30.1733 223.186 30.1733 224.13C30.1733 225.075 30.3295 225.872 30.642 226.522C30.9581 227.172 31.3825 227.664 31.9151 227.998C32.4513 228.331 33.0497 228.498 33.7102 228.498C34.0724 228.498 34.4205 228.449 34.7543 228.349C35.0881 228.25 35.3917 228.102 35.6651 227.907C35.9421 227.708 36.1765 227.465 36.3683 227.177C36.5636 226.886 36.7003 226.552 36.7784 226.176H38.0994C38 226.733 37.8189 227.232 37.5561 227.673C37.2933 228.113 36.9666 228.488 36.576 228.797C36.1854 229.102 35.7468 229.335 35.2603 229.494C34.7773 229.654 34.2607 229.734 33.7102 229.734C32.7798 229.734 31.9524 229.507 31.228 229.052C30.5036 228.598 29.9336 227.951 29.5181 227.113C29.1026 226.275 28.8949 225.281 28.8949 224.13C28.8949 222.98 29.1026 221.986 29.5181 221.147C29.9336 220.309 30.5036 219.663 31.228 219.209C31.9524 218.754 32.7798 218.527 33.7102 218.527C34.2607 218.527 34.7773 218.607 35.2603 218.766C35.7468 218.926 36.1854 219.161 36.576 219.47C36.9666 219.775 37.2933 220.148 37.5561 220.588C37.8189 221.025 38 221.524 38.0994 222.085ZM43.3875 229.755C42.6489 229.755 42.0008 229.58 41.4433 229.228C40.8893 228.877 40.4561 228.385 40.1436 227.753C39.8346 227.12 39.6801 226.382 39.6801 225.537C39.6801 224.684 39.8346 223.94 40.1436 223.305C40.4561 222.669 40.8893 222.176 41.4433 221.824C42.0008 221.472 42.6489 221.297 43.3875 221.297C44.1262 221.297 44.7725 221.472 45.3264 221.824C45.884 222.176 46.3172 222.669 46.6262 223.305C46.9387 223.94 47.0949 224.684 47.0949 225.537C47.0949 226.382 46.9387 227.12 46.6262 227.753C46.3172 228.385 45.884 228.877 45.3264 229.228C44.7725 229.58 44.1262 229.755 43.3875 229.755ZM43.3875 228.626C43.9486 228.626 44.4102 228.482 44.7725 228.195C45.1347 227.907 45.4028 227.529 45.5768 227.06C45.7508 226.591 45.8378 226.084 45.8378 225.537C45.8378 224.99 45.7508 224.48 45.5768 224.008C45.4028 223.536 45.1347 223.154 44.7725 222.863C44.4102 222.571 43.9486 222.426 43.3875 222.426C42.8264 222.426 42.3648 222.571 42.0026 222.863C41.6404 223.154 41.3722 223.536 41.1982 224.008C41.0242 224.48 40.9372 224.99 40.9372 225.537C40.9372 226.084 41.0242 226.591 41.1982 227.06C41.3722 227.529 41.6404 227.907 42.0026 228.195C42.3648 228.482 42.8264 228.626 43.3875 228.626ZM50.271 224.663V229.585H49.0138V221.403H50.2283V222.682H50.3349C50.5266 222.266 50.8178 221.932 51.2085 221.68C51.5991 221.424 52.1033 221.297 52.7212 221.297C53.2752 221.297 53.7599 221.41 54.1754 221.638C54.5909 221.861 54.9141 222.202 55.1449 222.66C55.3757 223.115 55.4911 223.69 55.4911 224.386V229.585H54.234V224.471C54.234 223.829 54.0671 223.328 53.7333 222.969C53.3995 222.607 52.9414 222.426 52.359 222.426C51.9577 222.426 51.5991 222.513 51.283 222.687C50.9705 222.861 50.7237 223.115 50.5426 223.449C50.3615 223.782 50.271 224.187 50.271 224.663ZM63.5837 223.236L62.4545 223.555C62.3834 223.367 62.2787 223.184 62.1402 223.006C62.0052 222.825 61.8206 222.676 61.5862 222.559C61.3518 222.442 61.0518 222.383 60.686 222.383C60.1853 222.383 59.768 222.499 59.4342 222.729C59.104 222.957 58.9388 223.246 58.9388 223.598C58.9388 223.91 59.0525 224.157 59.2797 224.338C59.507 224.519 59.8621 224.67 60.3451 224.791L61.5596 225.089C62.2911 225.267 62.8362 225.538 63.1949 225.904C63.5535 226.266 63.7329 226.733 63.7329 227.305C63.7329 227.774 63.5979 228.193 63.328 228.562C63.0617 228.932 62.6888 229.223 62.2094 229.436C61.73 229.649 61.1725 229.755 60.5368 229.755C59.7023 229.755 59.0116 229.574 58.4648 229.212C57.9179 228.85 57.5716 228.321 57.426 227.625L58.6192 227.326C58.7329 227.767 58.9477 228.097 59.2638 228.317C59.5834 228.537 60.0006 228.647 60.5155 228.647C61.1015 228.647 61.5667 228.523 61.9111 228.275C62.2591 228.022 62.4332 227.721 62.4332 227.369C62.4332 227.085 62.3337 226.847 62.1349 226.655C61.936 226.46 61.6306 226.314 61.2187 226.218L59.855 225.899C59.1057 225.721 58.5553 225.446 58.2037 225.073C57.8557 224.697 57.6817 224.226 57.6817 223.662C57.6817 223.2 57.8113 222.792 58.0706 222.437C58.3334 222.081 58.6903 221.803 59.1412 221.6C59.5958 221.398 60.1107 221.297 60.686 221.297C61.4956 221.297 62.1313 221.474 62.593 221.829C63.0581 222.184 63.3884 222.653 63.5837 223.236ZM70.7814 226.24V221.403H72.0385V229.585H70.7814V228.2H70.6962C70.5044 228.616 70.2061 228.969 69.8013 229.26C69.3965 229.548 68.8851 229.691 68.2672 229.691C67.7559 229.691 67.3013 229.58 66.9036 229.356C66.5059 229.129 66.1934 228.788 65.9661 228.333C65.7388 227.875 65.6252 227.298 65.6252 226.602V221.403H66.8823V226.517C66.8823 227.113 67.0492 227.589 67.383 227.944C67.7203 228.299 68.15 228.477 68.6721 228.477C68.9846 228.477 69.3024 228.397 69.6255 228.237C69.9522 228.078 70.2257 227.832 70.4458 227.502C70.6696 227.172 70.7814 226.751 70.7814 226.24ZM75.5981 218.676V229.585H74.341V218.676H75.5981ZM81.4588 221.403V222.468H77.2188V221.403H81.4588ZM78.4545 219.443H79.7116V227.241C79.7116 227.596 79.7631 227.863 79.8661 228.04C79.9727 228.214 80.1076 228.331 80.271 228.392C80.4379 228.449 80.6136 228.477 80.7983 228.477C80.9368 228.477 81.0504 228.47 81.1392 228.456C81.228 228.438 81.299 228.424 81.3523 228.413L81.608 229.542C81.5227 229.574 81.4038 229.606 81.2511 229.638C81.0984 229.674 80.9048 229.691 80.6705 229.691C80.3153 229.691 79.9673 229.615 79.6264 229.462C79.2891 229.31 79.0085 229.077 78.7848 228.765C78.5646 228.452 78.4545 228.058 78.4545 227.582V219.443ZM85.7575 229.777C85.239 229.777 84.7685 229.679 84.3459 229.484C83.9233 229.285 83.5877 228.999 83.3391 228.626C83.0906 228.25 82.9663 227.795 82.9663 227.263C82.9663 226.794 83.0586 226.414 83.2433 226.123C83.4279 225.828 83.6747 225.597 83.9837 225.43C84.2926 225.263 84.6335 225.139 85.0064 225.057C85.3828 224.972 85.761 224.905 86.141 224.855C86.6381 224.791 87.0412 224.743 87.3501 224.711C87.6626 224.676 87.8899 224.617 88.032 224.535C88.1776 224.454 88.2504 224.312 88.2504 224.109V224.066C88.2504 223.541 88.1065 223.133 87.8189 222.841C87.5348 222.55 87.1033 222.405 86.5245 222.405C85.9244 222.405 85.4538 222.536 85.1129 222.799C84.772 223.062 84.5323 223.342 84.3938 223.64L83.2006 223.214C83.4137 222.717 83.6978 222.33 84.0529 222.053C84.4116 221.772 84.8022 221.577 85.2248 221.467C85.6509 221.353 86.07 221.297 86.4819 221.297C86.7447 221.297 87.0465 221.329 87.3874 221.392C87.7319 221.453 88.0639 221.579 88.3835 221.771C88.7067 221.962 88.9748 222.252 89.1879 222.639C89.4009 223.026 89.5075 223.544 89.5075 224.194V229.585H88.2504V228.477H88.1864C88.1012 228.655 87.9592 228.845 87.7603 229.047C87.5614 229.249 87.2969 229.422 86.9666 229.564C86.6364 229.706 86.2333 229.777 85.7575 229.777ZM85.9492 228.647C86.4464 228.647 86.8654 228.55 87.2063 228.354C87.5508 228.159 87.81 227.907 87.984 227.598C88.1616 227.289 88.2504 226.964 88.2504 226.623V225.473C88.1971 225.537 88.0799 225.595 87.8988 225.649C87.7212 225.698 87.5153 225.743 87.2809 225.782C87.0501 225.817 86.8246 225.849 86.6044 225.878C86.3878 225.902 86.212 225.924 86.0771 225.941C85.7504 225.984 85.445 226.053 85.1609 226.149C84.8803 226.242 84.6531 226.382 84.479 226.57C84.3086 226.755 84.2234 227.007 84.2234 227.326C84.2234 227.763 84.3849 228.093 84.7081 228.317C85.0348 228.537 85.4485 228.647 85.9492 228.647Z" fill="#797979"/>
<path d="M33.3161 241.176H35.5959V248.782C35.5959 249.486 35.4379 250.096 35.1218 250.615C34.8093 251.133 34.3743 251.533 33.8168 251.813C33.2592 252.094 32.6112 252.234 31.8725 252.234C31.2156 252.234 30.619 252.119 30.0827 251.888C29.5501 251.653 29.1275 251.298 28.815 250.823C28.5025 250.343 28.348 249.741 28.3516 249.017H30.6474C30.6545 249.304 30.7131 249.551 30.8232 249.757C30.9368 249.96 31.0913 250.116 31.2866 250.226C31.4854 250.332 31.7198 250.386 31.9897 250.386C32.2738 250.386 32.5135 250.325 32.7088 250.205C32.9077 250.08 33.0586 249.899 33.1616 249.661C33.2646 249.423 33.3161 249.13 33.3161 248.782V241.176ZM42.707 248.601V243.903H44.9762V252.085H42.7976V250.599H42.7124C42.5277 251.078 42.2205 251.464 41.7908 251.755C41.3647 252.046 40.8445 252.191 40.2301 252.191C39.6832 252.191 39.2021 252.067 38.7866 251.819C38.3711 251.57 38.0462 251.217 37.8118 250.759C37.581 250.301 37.4638 249.752 37.4602 249.113V243.903H39.7294V248.708C39.733 249.191 39.8626 249.573 40.1183 249.853C40.3739 250.134 40.7166 250.274 41.1463 250.274C41.4197 250.274 41.6754 250.212 41.9134 250.087C42.1513 249.96 42.343 249.771 42.4886 249.523C42.6378 249.274 42.7106 248.967 42.707 248.601ZM49.1244 252.239C48.6024 252.239 48.1372 252.149 47.7288 251.968C47.3204 251.783 46.9972 251.511 46.7593 251.153C46.5249 250.791 46.4078 250.34 46.4078 249.8C46.4078 249.345 46.4912 248.964 46.6581 248.655C46.825 248.346 47.0523 248.097 47.3399 247.909C47.6276 247.721 47.9543 247.579 48.32 247.483C48.6894 247.387 49.0764 247.319 49.4813 247.28C49.9571 247.231 50.3406 247.184 50.6318 247.142C50.923 247.096 51.1343 247.028 51.2657 246.939C51.3971 246.851 51.4628 246.719 51.4628 246.545V246.513C51.4628 246.176 51.3563 245.915 51.1432 245.73C50.9337 245.546 50.6354 245.453 50.2483 245.453C49.8399 245.453 49.515 245.544 49.2735 245.725C49.032 245.902 48.8722 246.126 48.7941 246.396L46.6954 246.226C46.8019 245.728 47.0115 245.299 47.324 244.937C47.6365 244.571 48.0395 244.29 48.5331 244.095C49.0303 243.896 49.6056 243.797 50.259 243.797C50.7135 243.797 51.1485 243.85 51.564 243.956C51.983 244.063 52.3541 244.228 52.6773 244.452C53.004 244.676 53.2615 244.963 53.4497 245.315C53.6379 245.663 53.732 246.08 53.732 246.566V252.085H51.58V250.95H51.5161C51.3847 251.206 51.2089 251.432 50.9887 251.627C50.7686 251.819 50.504 251.97 50.195 252.08C49.8861 252.186 49.5292 252.239 49.1244 252.239ZM49.7742 250.673C50.108 250.673 50.4028 250.608 50.6585 250.476C50.9142 250.341 51.1148 250.16 51.2604 249.933C51.406 249.706 51.4788 249.448 51.4788 249.161V248.292C51.4078 248.339 51.3101 248.381 51.1858 248.42C51.0651 248.456 50.9284 248.489 50.7757 248.521C50.623 248.55 50.4703 248.576 50.3176 248.601C50.1649 248.623 50.0264 248.642 49.9021 248.66C49.6357 248.699 49.4031 248.761 49.2043 248.846C49.0054 248.932 48.8509 249.047 48.7409 249.193C48.6308 249.335 48.5757 249.512 48.5757 249.725C48.5757 250.034 48.6876 250.27 48.9113 250.434C49.1386 250.593 49.4262 250.673 49.7742 250.673ZM57.7616 247.355V252.085H55.4925V243.903H57.6551V245.347H57.751C57.9321 244.871 58.2357 244.494 58.6618 244.217C59.088 243.937 59.6047 243.797 60.2119 243.797C60.7801 243.797 61.2755 243.921 61.6981 244.169C62.1207 244.418 62.4491 244.773 62.6835 245.235C62.9179 245.693 63.0351 246.24 63.0351 246.875V252.085H60.7659V247.28C60.7694 246.78 60.6416 246.389 60.3824 246.108C60.1231 245.824 59.7662 245.682 59.3117 245.682C59.0063 245.682 58.7364 245.748 58.502 245.879C58.2712 246.011 58.0901 246.203 57.9587 246.455C57.8309 246.703 57.7652 247.003 57.7616 247.355ZM66.7378 250.305L66.7305 251.719C66.7305 252.261 66.5938 252.808 66.3203 253.359C66.0518 253.911 65.71 254.363 65.2949 254.714L64.1963 254.15C64.3184 253.926 64.438 253.701 64.5552 253.477C64.6724 253.252 64.77 253.005 64.8481 252.737C64.9263 252.468 64.9653 252.163 64.9653 251.821V250.305H66.7378ZM76.4497 248.284H73.7324V246.57H76.4497C76.8696 246.57 77.2114 246.501 77.4751 246.365C77.7388 246.223 77.9316 246.028 78.0537 245.779C78.1758 245.53 78.2368 245.249 78.2368 244.937C78.2368 244.619 78.1758 244.324 78.0537 244.05C77.9316 243.777 77.7388 243.557 77.4751 243.391C77.2114 243.225 76.8696 243.142 76.4497 243.142H74.4941V252.085H72.2969V241.421H76.4497C77.2847 241.421 78 241.572 78.5957 241.875C79.1963 242.173 79.6553 242.585 79.9727 243.113C80.29 243.64 80.4487 244.243 80.4487 244.922C80.4487 245.61 80.29 246.206 79.9727 246.709C79.6553 247.212 79.1963 247.6 78.5957 247.874C78 248.147 77.2847 248.284 76.4497 248.284ZM85.3779 252.231C84.7627 252.231 84.2109 252.134 83.7227 251.938C83.2344 251.738 82.8193 251.462 82.4775 251.111C82.1406 250.759 81.8818 250.352 81.7012 249.888C81.5205 249.419 81.4302 248.921 81.4302 248.394V248.101C81.4302 247.5 81.5156 246.951 81.6865 246.453C81.8574 245.955 82.1016 245.522 82.4189 245.156C82.7412 244.79 83.1318 244.509 83.5908 244.314C84.0498 244.114 84.5674 244.014 85.1436 244.014C85.7051 244.014 86.2031 244.106 86.6377 244.292C87.0723 244.478 87.436 244.741 87.729 245.083C88.0269 245.425 88.2515 245.835 88.4028 246.313C88.5542 246.787 88.6299 247.314 88.6299 247.896V248.774H82.3311V247.368H86.5571V247.207C86.5571 246.914 86.5034 246.653 86.396 246.423C86.2935 246.189 86.1372 246.003 85.9272 245.867C85.7173 245.73 85.4487 245.662 85.1216 245.662C84.8433 245.662 84.604 245.723 84.4038 245.845C84.2036 245.967 84.04 246.138 83.9131 246.357C83.791 246.577 83.6982 246.836 83.6348 247.134C83.5762 247.427 83.5469 247.749 83.5469 248.101V248.394C83.5469 248.711 83.5908 249.004 83.6787 249.272C83.7715 249.541 83.9009 249.773 84.0669 249.968C84.2378 250.164 84.4429 250.315 84.6821 250.422C84.9263 250.53 85.2021 250.583 85.5098 250.583C85.8906 250.583 86.2446 250.51 86.5718 250.364C86.9038 250.212 87.1895 249.985 87.4287 249.683L88.4541 250.796C88.2881 251.035 88.061 251.265 87.7729 251.484C87.4897 251.704 87.1479 251.885 86.7476 252.026C86.3472 252.163 85.8906 252.231 85.3779 252.231ZM91.9404 245.889V252.085H89.8311V244.16H91.8159L91.9404 245.889ZM94.3281 244.109L94.2915 246.064C94.189 246.05 94.0645 246.038 93.918 246.028C93.7764 246.013 93.647 246.006 93.5298 246.006C93.2319 246.006 92.9731 246.045 92.7534 246.123C92.5386 246.196 92.3579 246.306 92.2114 246.453C92.0698 246.599 91.9624 246.777 91.8892 246.987C91.8208 247.197 91.7817 247.437 91.772 247.705L91.3472 247.573C91.3472 247.061 91.3984 246.589 91.501 246.16C91.6035 245.725 91.7524 245.347 91.9478 245.024C92.1479 244.702 92.3921 244.453 92.6802 244.277C92.9683 244.102 93.2979 244.014 93.6689 244.014C93.7861 244.014 93.9058 244.023 94.0278 244.043C94.1499 244.058 94.25 244.08 94.3281 244.109ZM98.8252 252.231C98.21 252.231 97.6582 252.134 97.1699 251.938C96.6816 251.738 96.2666 251.462 95.9248 251.111C95.5879 250.759 95.3291 250.352 95.1484 249.888C94.9678 249.419 94.8774 248.921 94.8774 248.394V248.101C94.8774 247.5 94.9629 246.951 95.1338 246.453C95.3047 245.955 95.5488 245.522 95.8662 245.156C96.1885 244.79 96.5791 244.509 97.0381 244.314C97.4971 244.114 98.0146 244.014 98.5908 244.014C99.1523 244.014 99.6504 244.106 100.085 244.292C100.52 244.478 100.883 244.741 101.176 245.083C101.474 245.425 101.699 245.835 101.85 246.313C102.001 246.787 102.077 247.314 102.077 247.896V248.774H95.7783V247.368H100.004V247.207C100.004 246.914 99.9507 246.653 99.8433 246.423C99.7407 246.189 99.5845 246.003 99.3745 245.867C99.1646 245.73 98.896 245.662 98.5688 245.662C98.2905 245.662 98.0513 245.723 97.8511 245.845C97.6509 245.967 97.4873 246.138 97.3604 246.357C97.2383 246.577 97.1455 246.836 97.082 247.134C97.0234 247.427 96.9941 247.749 96.9941 248.101V248.394C96.9941 248.711 97.0381 249.004 97.126 249.272C97.2188 249.541 97.3481 249.773 97.5142 249.968C97.6851 250.164 97.8901 250.315 98.1294 250.422C98.3735 250.53 98.6494 250.583 98.957 250.583C99.3379 250.583 99.6919 250.51 100.019 250.364C100.351 250.212 100.637 249.985 100.876 249.683L101.901 250.796C101.735 251.035 101.508 251.265 101.22 251.484C100.937 251.704 100.595 251.885 100.195 252.026C99.7944 252.163 99.3379 252.231 98.8252 252.231ZM109.584 250.437V252.085H103.564V250.437H109.584ZM109.467 245.376L104.414 252.085H103V250.833L108.032 244.16H109.467V245.376ZM108.72 244.16V245.815H103.117V244.16H108.72Z" fill="#797979"/>
<path d="M637.419 218.833L640.062 221.475C640.173 221.586 640.173 221.768 640.062 221.879L633.662 228.278L630.942 228.58C630.579 228.621 630.271 228.313 630.312 227.95L630.614 225.231L637.014 218.833C637.125 218.721 637.307 218.721 637.419 218.833ZM642.166 218.162L640.736 216.732C640.29 216.287 639.567 216.287 639.118 216.732L638.081 217.769C637.969 217.88 637.969 218.062 638.081 218.173L640.724 220.816C640.836 220.927 641.017 220.927 641.129 220.816L642.166 219.779C642.611 219.331 642.611 218.607 642.166 218.162ZM636.873 226.538V229.52H627.496V220.145H634.23C634.324 220.145 634.412 220.107 634.479 220.042L635.651 218.871C635.874 218.648 635.716 218.27 635.402 218.27H627.027C626.25 218.27 625.62 218.9 625.62 219.676V229.989C625.62 230.765 626.25 231.395 627.027 231.395H637.342C638.119 231.395 638.749 230.765 638.749 229.989V225.366C638.749 225.052 638.371 224.897 638.148 225.117L636.976 226.289C636.912 226.356 636.873 226.444 636.873 226.538Z" fill="#6C757D"/>
</g>
<defs>
<filter id="filter0_d_159_1330" x="0" y="0.0849609" width="670.5" height="302" filterUnits="userSpaceOnUse" color-interpolation-filters="sRGB">
<feFlood flood-opacity="0" result="BackgroundImageFix"/>
<feColorMatrix in="SourceAlpha" type="matrix" values="0 0 0 0 0 0 0 0 0 0 0 0 0 0 0 0 0 0 127 0" result="hardAlpha"/>
<feOffset dy="2"/>
<feGaussianBlur stdDeviation="3"/>
<feComposite in2="hardAlpha" operator="out"/>
<feColorMatrix type="matrix" values="0 0 0 0 0 0 0 0 0 0 0 0 0 0 0 0 0 0 0.04 0"/>
<feBlend mode="normal" in2="BackgroundImageFix" result="effect1_dropShadow_159_1330"/>
<feBlend mode="normal" in="SourceGraphic" in2="effect1_dropShadow_159_1330" result="shape"/>
</filter>
<filter id="filter1_d_159_1330" x="22" y="24.085" width="626.5" height="52" filterUnits="userSpaceOnUse" color-interpolation-filters="sRGB">
<feFlood flood-opacity="0" result="BackgroundImageFix"/>
<feColorMatrix in="SourceAlpha" type="matrix" values="0 0 0 0 0 0 0 0 0 0 0 0 0 0 0 0 0 0 127 0" result="hardAlpha"/>
<feOffset dy="4"/>
<feGaussianBlur stdDeviation="2"/>
<feComposite in2="hardAlpha" operator="out"/>
<feColorMatrix type="matrix" values="0 0 0 0 0 0 0 0 0 0 0 0 0 0 0 0 0 0 0.25 0"/>
<feBlend mode="normal" in2="BackgroundImageFix" result="effect1_dropShadow_159_1330"/>
<feBlend mode="normal" in="SourceGraphic" in2="effect1_dropShadow_159_1330" result="shape"/>
</filter>
</defs>
</svg>
