<svg width="671" height="222" viewBox="0 0 671 222" fill="none" xmlns="http://www.w3.org/2000/svg">
<g filter="url(#filter0_d_159_1116)">
<rect x="6" y="4" width="658.5" height="210" rx="8" fill="white" shape-rendering="crispEdges"/>
<path d="M30.5 35.4688C30.5 34.3832 31.3832 33.5 32.4688 33.5H37.25V30.9688C37.25 30.5028 36.8722 30.125 36.4062 30.125H33.5723C33.1826 29.4532 32.456 29 31.625 29C30.794 29 30.0674 29.4532 29.6777 30.125H26.8438C26.3778 30.125 26 30.5028 26 30.9688V42.7812C26 43.2472 26.3778 43.625 26.8438 43.625H30.5V35.4688ZM31.625 30.4062C32.091 30.4062 32.4688 30.784 32.4688 31.25C32.4688 31.716 32.091 32.0938 31.625 32.0938C31.159 32.0938 30.7812 31.716 30.7812 31.25C30.7812 30.784 31.159 30.4062 31.625 30.4062ZM38.0938 39.125H41.75V46.1562C41.75 46.6222 41.3722 47 40.9062 47H32.4688C32.0028 47 31.625 46.6222 31.625 46.1562V35.4688C31.625 35.0028 32.0028 34.625 32.4688 34.625H37.25V38.2812C37.25 38.7453 37.6297 39.125 38.0938 39.125ZM41.75 37.787V38H38.375V34.625H38.588C38.8118 34.625 39.0264 34.7139 39.1846 34.8721L41.5029 37.1904C41.6611 37.3486 41.75 37.5632 41.75 37.787Z" fill="#239B95"/>
<path d="M54.6113 32.4414C54.3535 32.3711 54.166 32.2891 54.0488 32.1953C53.9434 32.1016 53.8906 31.9609 53.8906 31.7734C53.8906 31.4102 54.0664 31.2285 54.418 31.2285H58.6543C60.0488 31.2285 61.1328 31.5684 61.9062 32.248C62.6797 32.9277 63.0664 33.8125 63.0664 34.9023C63.0664 36.1445 62.6445 37.0938 61.8008 37.75C60.9688 38.4062 59.7852 38.7344 58.25 38.7344H57.6348C57.3418 38.7344 57.1953 38.4883 57.1953 37.9961C57.1953 37.5039 57.3242 37.2578 57.582 37.2578H58.0391C58.918 37.2578 59.5977 37.0645 60.0781 36.6777C60.5586 36.291 60.7988 35.6934 60.7988 34.8848C60.8105 34.1934 60.5879 33.6543 60.1309 33.2676C59.6738 32.8691 59.1641 32.6699 58.6016 32.6699H57.7578C57.2773 32.6699 57.0371 32.8984 57.0371 33.3555V44.1836H54.9277V33.3906C54.9277 33.0156 54.8926 32.7695 54.8223 32.6523C54.752 32.5352 54.6816 32.4648 54.6113 32.4414ZM64.0508 37.1348C64.0508 36.7598 64.0215 36.5137 63.9629 36.3965C63.916 36.2676 63.8516 36.1855 63.7695 36.1504C63.582 36.1035 63.4238 36.0391 63.2949 35.957C63.1777 35.8633 63.1191 35.7227 63.1191 35.5352C63.1191 35.1602 63.3711 34.9727 63.875 34.9727H65.4219C65.9375 34.9727 66.1953 35.1836 66.1953 35.6055V35.7461C66.2773 35.6641 66.3652 35.5879 66.459 35.5176C66.9863 35.0605 67.6777 34.832 68.5332 34.832H69.4297V36.8008C68.3047 36.5547 67.4023 36.6895 66.7227 37.2051C66.5234 37.3457 66.3477 37.5449 66.1953 37.8027V44.1836H64.0508V37.1348ZM71.5566 39.9824C71.6035 40.6855 71.8613 41.3301 72.3301 41.916C72.7988 42.4902 73.4082 42.8066 74.1582 42.8652C74.416 42.8887 74.6914 42.8828 74.9844 42.8477C75.2773 42.8008 75.5645 42.707 75.8457 42.5664C76.1973 42.4023 76.4609 42.3555 76.6367 42.4258C76.8242 42.4844 76.9648 42.6074 77.0586 42.7949C77.1055 42.9473 77.0996 43.1113 77.041 43.2871C76.9941 43.4512 76.8887 43.5859 76.7246 43.6914C76.4082 43.8789 75.9805 44.0371 75.4414 44.166C74.9141 44.2949 74.3223 44.3418 73.666 44.3066C72.4355 44.2246 71.3984 43.7441 70.5547 42.8652C69.7109 41.9863 69.2891 40.7734 69.2891 39.2266C69.2891 37.8438 69.6699 36.7539 70.4316 35.957C71.1934 35.1484 72.2305 34.7441 73.543 34.7441C74.668 34.7441 75.582 35.1133 76.2852 35.8516C76.9883 36.5898 77.3398 37.7148 77.3398 39.2266V39.9824H71.5566ZM71.5566 38.5059H75.1426C75.1426 37.7207 74.9668 37.1406 74.6152 36.7656C74.2754 36.3789 73.9004 36.1855 73.4902 36.1855C73.0215 36.1855 72.5879 36.4023 72.1895 36.8359C71.8027 37.2695 71.5918 37.8262 71.5566 38.5059ZM80.7852 40.0527C79.9297 39.7598 79.2383 39.3906 78.7109 38.9453C78.1953 38.4883 77.9375 37.9375 77.9375 37.293C77.9375 36.5078 78.2188 35.8809 78.7812 35.4121C79.3438 34.9316 80.1758 34.6738 81.2773 34.6387C81.7578 34.6152 82.2324 34.6562 82.7012 34.7617C83.1816 34.8555 83.6504 35.0137 84.1074 35.2363V37.3633C83.4277 36.7773 82.877 36.4199 82.4551 36.291C82.0449 36.1504 81.6758 36.0859 81.3477 36.0977C80.9609 36.0977 80.6504 36.1797 80.416 36.3438C80.1934 36.5078 80.0703 36.7598 80.0469 37.0996C80.0352 37.3926 80.1992 37.6621 80.5391 37.9082C80.8906 38.1426 81.3828 38.3828 82.0156 38.6289C82.9648 38.9805 83.6445 39.3789 84.0547 39.8242C84.4766 40.2695 84.6875 40.791 84.6875 41.3887C84.6875 42.291 84.3594 43.0059 83.7031 43.5332C83.0586 44.0488 82.1504 44.3066 80.9785 44.3066C80.4043 44.3066 79.8652 44.2305 79.3613 44.0781C78.8691 43.9141 78.5 43.7207 78.2539 43.498C77.9961 43.2754 77.8613 43.0762 77.8496 42.9004C77.8379 42.7129 77.873 42.5547 77.9551 42.4258C78.1309 42.1797 78.3535 42.0508 78.623 42.0391C78.8926 42.0156 79.1445 42.1094 79.3789 42.3203C79.5898 42.4727 79.8477 42.6016 80.1523 42.707C80.457 42.8008 80.7324 42.8477 80.9785 42.8477C81.5527 42.8242 81.9688 42.6719 82.2266 42.3906C82.4961 42.1094 82.5957 41.7637 82.5254 41.3535C82.502 41.1543 82.373 40.9434 82.1387 40.7207C81.9043 40.498 81.4531 40.2754 80.7852 40.0527ZM93.1777 44.1836H90.998V43.2871L90.8223 43.4629C90.248 44.0254 89.5098 44.3066 88.6074 44.3066C87.7988 44.3066 87.125 44.0254 86.5859 43.4629C86.0469 42.8887 85.7773 41.9688 85.7773 40.7031V37.1172C85.7773 36.7539 85.748 36.5137 85.6895 36.3965C85.6426 36.2793 85.5898 36.209 85.5312 36.1855C85.3438 36.1152 85.1855 36.0449 85.0566 35.9746C84.9395 35.8926 84.8809 35.7461 84.8809 35.5352C84.8809 35.1602 85.127 34.9727 85.6191 34.9727H87.2012C87.7051 34.9727 87.957 35.166 87.957 35.5527V40.5977C87.957 41.418 88.0625 41.9688 88.2734 42.25C88.4844 42.5195 88.7422 42.6543 89.0469 42.6543C89.6094 42.6543 90.125 42.373 90.5938 41.8105C90.7461 41.623 90.8809 41.377 90.998 41.0723V37.1348C90.998 36.7598 90.9746 36.5137 90.9277 36.3965C90.8809 36.2793 90.793 36.1914 90.6641 36.1328C90.4883 36.0859 90.3477 36.0215 90.2422 35.9395C90.1367 35.8574 90.084 35.7344 90.084 35.5703C90.084 35.1719 90.3359 34.9727 90.8398 34.9727H92.4219C92.9258 34.9727 93.1777 35.1836 93.1777 35.6055V44.1836ZM94.7773 37.1348C94.7773 36.7715 94.748 36.5312 94.6895 36.4141C94.6309 36.2852 94.5605 36.1973 94.4785 36.1504C94.291 36.0918 94.1445 36.0215 94.0391 35.9395C93.9336 35.8574 93.8809 35.7285 93.8809 35.5527C93.8809 35.166 94.127 34.9727 94.6191 34.9727H96.1836C96.6289 34.9727 96.875 35.1191 96.9219 35.4121C97.4258 34.9668 98.0762 34.7441 98.873 34.7441C100.115 34.7441 101.059 35.1895 101.703 36.0801C102.348 36.959 102.67 38.125 102.67 39.5781C102.67 40.9258 102.33 42.0508 101.65 42.9531C100.971 43.8555 99.9922 44.3066 98.7148 44.3066C97.9883 44.3066 97.3965 44.1367 96.9395 43.7969V47.1895H94.7773V37.1348ZM100.473 39.6309C100.473 38.5527 100.285 37.7266 99.9102 37.1523C99.5469 36.5664 99.1074 36.2734 98.5918 36.2734C98.1582 36.2734 97.7773 36.4902 97.4492 36.9238C97.1211 37.3457 96.957 37.9258 96.957 38.6641V40.334C96.957 41.248 97.1152 41.8984 97.4316 42.2852C97.7598 42.6719 98.1523 42.8652 98.6094 42.8652C99.0547 42.8652 99.4766 42.5898 99.875 42.0391C100.273 41.4883 100.473 40.6855 100.473 39.6309ZM111.178 44.1836H108.998V43.2871L108.822 43.4629C108.248 44.0254 107.51 44.3066 106.607 44.3066C105.799 44.3066 105.125 44.0254 104.586 43.4629C104.047 42.8887 103.777 41.9688 103.777 40.7031V37.1172C103.777 36.7539 103.748 36.5137 103.689 36.3965C103.643 36.2793 103.59 36.209 103.531 36.1855C103.344 36.1152 103.186 36.0449 103.057 35.9746C102.939 35.8926 102.881 35.7461 102.881 35.5352C102.881 35.1602 103.127 34.9727 103.619 34.9727H105.201C105.705 34.9727 105.957 35.166 105.957 35.5527V40.5977C105.957 41.418 106.062 41.9688 106.273 42.25C106.484 42.5195 106.742 42.6543 107.047 42.6543C107.609 42.6543 108.125 42.373 108.594 41.8105C108.746 41.623 108.881 41.377 108.998 41.0723V37.1348C108.998 36.7598 108.975 36.5137 108.928 36.3965C108.881 36.2793 108.793 36.1914 108.664 36.1328C108.488 36.0859 108.348 36.0215 108.242 35.9395C108.137 35.8574 108.084 35.7344 108.084 35.5703C108.084 35.1719 108.336 34.9727 108.84 34.9727H110.422C110.926 34.9727 111.178 35.1836 111.178 35.6055V44.1836ZM114.395 39.9824C114.441 40.6855 114.699 41.3301 115.168 41.916C115.637 42.4902 116.246 42.8066 116.996 42.8652C117.254 42.8887 117.529 42.8828 117.822 42.8477C118.115 42.8008 118.402 42.707 118.684 42.5664C119.035 42.4023 119.299 42.3555 119.475 42.4258C119.662 42.4844 119.803 42.6074 119.896 42.7949C119.943 42.9473 119.938 43.1113 119.879 43.2871C119.832 43.4512 119.727 43.5859 119.562 43.6914C119.246 43.8789 118.818 44.0371 118.279 44.166C117.752 44.2949 117.16 44.3418 116.504 44.3066C115.273 44.2246 114.236 43.7441 113.393 42.8652C112.549 41.9863 112.127 40.7734 112.127 39.2266C112.127 37.8438 112.508 36.7539 113.27 35.957C114.031 35.1484 115.068 34.7441 116.381 34.7441C117.506 34.7441 118.42 35.1133 119.123 35.8516C119.826 36.5898 120.178 37.7148 120.178 39.2266V39.9824H114.395ZM114.395 38.5059H117.98C117.98 37.7207 117.805 37.1406 117.453 36.7656C117.113 36.3789 116.738 36.1855 116.328 36.1855C115.859 36.1855 115.426 36.4023 115.027 36.8359C114.641 37.2695 114.43 37.8262 114.395 38.5059ZM123.623 40.0527C122.768 39.7598 122.076 39.3906 121.549 38.9453C121.033 38.4883 120.775 37.9375 120.775 37.293C120.775 36.5078 121.057 35.8809 121.619 35.4121C122.182 34.9316 123.014 34.6738 124.115 34.6387C124.596 34.6152 125.07 34.6562 125.539 34.7617C126.02 34.8555 126.488 35.0137 126.945 35.2363V37.3633C126.266 36.7773 125.715 36.4199 125.293 36.291C124.883 36.1504 124.514 36.0859 124.186 36.0977C123.799 36.0977 123.488 36.1797 123.254 36.3438C123.031 36.5078 122.908 36.7598 122.885 37.0996C122.873 37.3926 123.037 37.6621 123.377 37.9082C123.729 38.1426 124.221 38.3828 124.854 38.6289C125.803 38.9805 126.482 39.3789 126.893 39.8242C127.314 40.2695 127.525 40.791 127.525 41.3887C127.525 42.291 127.197 43.0059 126.541 43.5332C125.896 44.0488 124.988 44.3066 123.816 44.3066C123.242 44.3066 122.703 44.2305 122.199 44.0781C121.707 43.9141 121.338 43.7207 121.092 43.498C120.834 43.2754 120.699 43.0762 120.688 42.9004C120.676 42.7129 120.711 42.5547 120.793 42.4258C120.969 42.1797 121.191 42.0508 121.461 42.0391C121.73 42.0156 121.982 42.1094 122.217 42.3203C122.428 42.4727 122.686 42.6016 122.99 42.707C123.295 42.8008 123.57 42.8477 123.816 42.8477C124.391 42.8242 124.807 42.6719 125.064 42.3906C125.334 42.1094 125.434 41.7637 125.363 41.3535C125.34 41.1543 125.211 40.9434 124.977 40.7207C124.742 40.498 124.291 40.2754 123.623 40.0527ZM131.059 31.4043V34.9727H133.432V36.3965H131.076V41.8457C131.076 42.2676 131.146 42.543 131.287 42.6719C131.439 42.8008 131.668 42.8652 131.973 42.8652C132.137 42.8652 132.295 42.8652 132.447 42.8652C132.611 42.8535 132.992 42.7715 133.59 42.6191V44.0957C133.191 44.2246 132.805 44.3008 132.43 44.3242C132.066 44.3477 131.785 44.3594 131.586 44.3594C130.988 44.3594 130.496 44.2949 130.109 44.166C129.723 44.0254 129.447 43.8262 129.283 43.5684C129.096 43.334 128.984 43.041 128.949 42.6895C128.926 42.3262 128.914 41.9512 128.914 41.5645V36.3965H127.648V34.9727H128.914V33.6191L131.059 31.4043ZM133.66 39.543C133.66 38.1367 134.023 36.9883 134.75 36.0977C135.488 35.1953 136.555 34.7441 137.949 34.7441C139.355 34.7441 140.428 35.1953 141.166 36.0977C141.904 36.9883 142.273 38.1367 142.273 39.543C142.273 40.9375 141.904 42.0801 141.166 42.9707C140.428 43.8613 139.355 44.3066 137.949 44.3066C136.555 44.3066 135.488 43.8613 134.75 42.9707C134.023 42.0801 133.66 40.9375 133.66 39.543ZM135.963 39.543C135.963 40.6914 136.168 41.5352 136.578 42.0742C136.988 42.6016 137.445 42.8652 137.949 42.8652C138.465 42.8652 138.928 42.6016 139.338 42.0742C139.76 41.5352 139.971 40.6914 139.971 39.543C139.971 38.3828 139.76 37.5332 139.338 36.9941C138.928 36.4551 138.465 36.1855 137.949 36.1855C137.445 36.1855 136.988 36.4551 136.578 36.9941C136.168 37.5332 135.963 38.3828 135.963 39.543ZM145.701 40.0527C144.846 39.7598 144.154 39.3906 143.627 38.9453C143.111 38.4883 142.854 37.9375 142.854 37.293C142.854 36.5078 143.135 35.8809 143.697 35.4121C144.26 34.9316 145.092 34.6738 146.193 34.6387C146.674 34.6152 147.148 34.6562 147.617 34.7617C148.098 34.8555 148.566 35.0137 149.023 35.2363V37.3633C148.344 36.7773 147.793 36.4199 147.371 36.291C146.961 36.1504 146.592 36.0859 146.264 36.0977C145.877 36.0977 145.566 36.1797 145.332 36.3438C145.109 36.5078 144.986 36.7598 144.963 37.0996C144.951 37.3926 145.115 37.6621 145.455 37.9082C145.807 38.1426 146.299 38.3828 146.932 38.6289C147.881 38.9805 148.561 39.3789 148.971 39.8242C149.393 40.2695 149.604 40.791 149.604 41.3887C149.604 42.291 149.275 43.0059 148.619 43.5332C147.975 44.0488 147.066 44.3066 145.895 44.3066C145.32 44.3066 144.781 44.2305 144.277 44.0781C143.785 43.9141 143.416 43.7207 143.17 43.498C142.912 43.2754 142.777 43.0762 142.766 42.9004C142.754 42.7129 142.789 42.5547 142.871 42.4258C143.047 42.1797 143.27 42.0508 143.539 42.0391C143.809 42.0156 144.061 42.1094 144.295 42.3203C144.506 42.4727 144.764 42.6016 145.068 42.707C145.373 42.8008 145.648 42.8477 145.895 42.8477C146.469 42.8242 146.885 42.6719 147.143 42.3906C147.412 42.1094 147.512 41.7637 147.441 41.3535C147.418 41.1543 147.289 40.9434 147.055 40.7207C146.82 40.498 146.369 40.2754 145.701 40.0527Z" fill="#363636"/>
<path d="M642.766 38.9297L635.329 46.3672C634.815 46.8813 633.984 46.8813 633.475 46.3672L632.239 45.1313C631.725 44.6172 631.725 43.786 632.239 43.2774L637.511 38.0055L632.239 32.7336C631.725 32.2196 631.725 31.3883 632.239 30.8797L633.47 29.6329C633.984 29.1188 634.815 29.1188 635.323 29.6329L642.761 37.0704C643.28 37.5844 643.28 38.4157 642.766 38.9297Z" fill="#239B95"/>
<path d="M644.5 67H26V69H644.5V67Z" fill="#BCBCBD" mask="url(#path-2-inside-1_159_1116)"/>
<path d="M128.463 110.682V132.5H127.781L112.866 111.96H112.781V132.5H112.099V110.682H112.781L127.696 131.222H127.781V110.682H128.463ZM140.557 132.841C139.271 132.841 138.117 132.472 137.095 131.733C136.072 130.987 135.262 129.975 134.666 128.697C134.076 127.411 133.781 125.966 133.781 124.361C133.781 122.749 134.076 121.303 134.666 120.025C135.262 118.746 136.072 117.738 137.095 116.999C138.117 116.254 139.271 115.881 140.557 115.881C141.842 115.881 142.993 116.254 144.009 116.999C145.031 117.745 145.841 118.757 146.438 120.036C147.034 121.314 147.333 122.756 147.333 124.361C147.333 125.966 147.034 127.411 146.438 128.697C145.848 129.975 145.042 130.987 144.019 131.733C142.997 132.472 141.842 132.841 140.557 132.841ZM140.557 132.159C141.715 132.159 142.752 131.818 143.668 131.136C144.591 130.455 145.319 129.524 145.852 128.345C146.384 127.166 146.651 125.838 146.651 124.361C146.651 122.884 146.381 121.559 145.841 120.387C145.308 119.208 144.584 118.278 143.668 117.596C142.752 116.907 141.715 116.562 140.557 116.562C139.406 116.562 138.369 116.907 137.446 117.596C136.53 118.278 135.802 119.208 135.262 120.387C134.73 121.559 134.463 122.884 134.463 124.361C134.463 125.838 134.73 127.166 135.262 128.345C135.795 129.524 136.519 130.455 137.436 131.136C138.359 131.818 139.399 132.159 140.557 132.159ZM161.254 121.506V132.5H160.572V110.682H161.254V118.736H161.339C161.723 117.884 162.351 117.202 163.225 116.69C164.105 116.179 165.11 115.923 166.24 115.923C167.333 115.923 168.299 116.161 169.137 116.637C169.975 117.113 170.632 117.77 171.108 118.608C171.584 119.446 171.822 120.412 171.822 121.506V132.5H171.14V121.506C171.14 120.057 170.686 118.878 169.777 117.969C168.867 117.06 167.689 116.605 166.24 116.605C165.274 116.605 164.414 116.815 163.662 117.234C162.916 117.653 162.326 118.232 161.893 118.97C161.467 119.709 161.254 120.554 161.254 121.506ZM181.714 132.841C180.819 132.841 179.991 132.656 179.231 132.287C178.479 131.918 177.871 131.378 177.41 130.668C176.955 129.957 176.728 129.091 176.728 128.068C176.728 127.514 176.817 126.996 176.994 126.513C177.172 126.023 177.484 125.579 177.932 125.181C178.379 124.783 179.004 124.442 179.807 124.158C180.616 123.874 181.65 123.658 182.907 123.509C183.66 123.423 184.37 123.324 185.038 123.21C185.705 123.097 186.249 122.926 186.668 122.699C187.087 122.472 187.296 122.145 187.296 121.719V120.739C187.296 119.482 186.874 118.473 186.028 117.713C185.183 116.946 184.057 116.562 182.651 116.562C181.501 116.562 180.496 116.818 179.636 117.33C178.777 117.834 178.177 118.544 177.836 119.46L177.197 119.205C177.452 118.523 177.847 117.933 178.379 117.436C178.912 116.939 179.544 116.555 180.276 116.286C181.007 116.016 181.799 115.881 182.651 115.881C183.482 115.881 184.224 116.005 184.878 116.254C185.538 116.495 186.099 116.836 186.561 117.276C187.023 117.71 187.374 118.221 187.616 118.81C187.857 119.4 187.978 120.043 187.978 120.739V132.5H187.296V129.176H187.211C186.87 129.915 186.426 130.561 185.879 131.115C185.339 131.662 184.714 132.088 184.004 132.393C183.301 132.692 182.538 132.841 181.714 132.841ZM181.714 132.159C182.751 132.159 183.692 131.882 184.537 131.328C185.382 130.767 186.053 129.989 186.55 128.995C187.048 127.994 187.296 126.832 187.296 125.511V123.04C187.097 123.189 186.856 123.32 186.572 123.434C186.295 123.548 185.979 123.651 185.624 123.743C185.276 123.828 184.896 123.903 184.484 123.967C184.072 124.031 183.631 124.091 183.163 124.148C181.7 124.318 180.549 124.577 179.711 124.925C178.873 125.273 178.28 125.71 177.932 126.236C177.584 126.761 177.41 127.372 177.41 128.068C177.41 129.304 177.822 130.295 178.646 131.04C179.477 131.786 180.499 132.159 181.714 132.159ZM194.013 138.636C193.736 138.636 193.441 138.597 193.129 138.519C192.816 138.448 192.5 138.345 192.181 138.21L192.436 137.614C193.14 137.912 193.779 138.018 194.354 137.933C194.936 137.855 195.448 137.589 195.888 137.134C196.336 136.68 196.705 136.044 196.996 135.227L197.87 132.798L191.904 116.136H192.628L198.168 131.648H198.253L203.793 116.136H204.517L197.635 135.483C197.394 136.165 197.092 136.74 196.73 137.209C196.367 137.678 195.956 138.033 195.494 138.274C195.039 138.516 194.546 138.636 194.013 138.636ZM217.379 138.636V116.136H218.061V120.312H218.146C218.444 119.403 218.86 118.619 219.392 117.958C219.925 117.298 220.553 116.786 221.278 116.424C222.009 116.062 222.812 115.881 223.686 115.881C224.978 115.881 226.093 116.254 227.031 116.999C227.975 117.738 228.703 118.746 229.215 120.025C229.733 121.303 229.992 122.749 229.992 124.361C229.992 125.966 229.733 127.408 229.215 128.686C228.696 129.964 227.965 130.977 227.02 131.722C226.075 132.468 224.964 132.841 223.686 132.841C222.819 132.841 222.02 132.663 221.288 132.308C220.557 131.946 219.921 131.435 219.382 130.774C218.842 130.107 218.43 129.318 218.146 128.409H218.061V138.636H217.379ZM218.061 124.361C218.061 125.838 218.288 127.166 218.742 128.345C219.204 129.517 219.854 130.447 220.692 131.136C221.537 131.818 222.535 132.159 223.686 132.159C224.836 132.159 225.83 131.818 226.668 131.136C227.514 130.447 228.163 129.517 228.618 128.345C229.08 127.166 229.311 125.838 229.311 124.361C229.311 122.884 229.083 121.559 228.629 120.387C228.174 119.208 227.524 118.278 226.679 117.596C225.841 116.907 224.843 116.562 223.686 116.562C222.528 116.562 221.526 116.907 220.681 117.596C219.843 118.278 219.197 119.208 218.742 120.387C218.288 121.559 218.061 122.884 218.061 124.361ZM234.81 132.5V116.136H235.492V118.736H235.577C235.961 117.884 236.589 117.202 237.463 116.69C238.344 116.179 239.349 115.923 240.478 115.923C240.563 115.923 240.62 115.923 240.648 115.923C240.677 115.923 240.734 115.923 240.819 115.923V116.605C240.734 116.605 240.677 116.605 240.648 116.605C240.62 116.605 240.563 116.605 240.478 116.605C239.512 116.605 238.653 116.815 237.9 117.234C237.154 117.653 236.565 118.232 236.131 118.97C235.705 119.709 235.492 120.554 235.492 121.506V132.5H234.81ZM250.205 132.841C248.777 132.841 247.527 132.468 246.455 131.722C245.389 130.977 244.562 129.964 243.972 128.686C243.383 127.408 243.088 125.966 243.088 124.361C243.088 122.756 243.383 121.314 243.972 120.036C244.569 118.757 245.379 117.745 246.401 116.999C247.424 116.254 248.578 115.881 249.864 115.881C250.815 115.881 251.696 116.083 252.506 116.488C253.322 116.893 254.033 117.454 254.636 118.171C255.24 118.888 255.709 119.716 256.043 120.653C256.383 121.584 256.554 122.578 256.554 123.636V124.318H243.429V123.636H255.872C255.872 122.322 255.602 121.133 255.062 120.067C254.523 118.995 253.798 118.143 252.889 117.511C251.98 116.879 250.972 116.562 249.864 116.562C248.741 116.562 247.726 116.896 246.817 117.564C245.908 118.232 245.18 119.141 244.633 120.291C244.086 121.442 243.798 122.741 243.77 124.19V124.276C243.77 125.703 244.018 127.017 244.516 128.217C245.02 129.411 245.751 130.366 246.71 131.083C247.669 131.8 248.834 132.159 250.205 132.159C251.213 132.159 252.058 131.982 252.74 131.626C253.429 131.271 253.979 130.863 254.391 130.401C254.81 129.94 255.119 129.545 255.318 129.219L255.872 129.602C255.631 130.014 255.268 130.472 254.785 130.977C254.303 131.481 253.685 131.918 252.932 132.287C252.179 132.656 251.27 132.841 250.205 132.841ZM271.184 119.588L270.502 119.759C270.282 119.048 269.973 118.459 269.575 117.99C269.184 117.514 268.705 117.159 268.137 116.925C267.569 116.683 266.908 116.562 266.155 116.562C264.848 116.562 263.79 116.896 262.981 117.564C262.171 118.224 261.766 119.098 261.766 120.185C261.766 121.044 262.04 121.765 262.586 122.347C263.14 122.93 263.975 123.359 265.09 123.636L267.647 124.276C268.847 124.574 269.756 125.078 270.374 125.788C270.999 126.499 271.312 127.358 271.312 128.366C271.312 129.254 271.077 130.036 270.608 130.71C270.147 131.385 269.508 131.911 268.691 132.287C267.874 132.656 266.929 132.841 265.857 132.841C264.401 132.841 263.211 132.486 262.288 131.776C261.365 131.065 260.765 130.057 260.488 128.75L261.17 128.58C261.411 129.737 261.926 130.625 262.714 131.243C263.51 131.854 264.557 132.159 265.857 132.159C267.277 132.159 268.428 131.811 269.309 131.115C270.189 130.419 270.63 129.503 270.63 128.366C270.63 127.521 270.367 126.808 269.841 126.225C269.316 125.643 268.527 125.22 267.476 124.957L264.92 124.318C263.662 124.006 262.707 123.494 262.054 122.784C261.407 122.074 261.084 121.207 261.084 120.185C261.084 119.325 261.297 118.576 261.723 117.937C262.157 117.29 262.753 116.786 263.513 116.424C264.28 116.062 265.161 115.881 266.155 115.881C267.42 115.881 268.474 116.193 269.319 116.818C270.165 117.436 270.786 118.359 271.184 119.588ZM286.746 127.131V116.136H287.428V132.5H286.746V129.901H286.66C286.277 130.753 285.645 131.435 284.764 131.946C283.891 132.457 282.889 132.713 281.76 132.713C280.666 132.713 279.7 132.475 278.862 131.999C278.024 131.523 277.367 130.866 276.891 130.028C276.415 129.19 276.178 128.224 276.178 127.131V116.136H276.859V127.131C276.859 128.58 277.314 129.759 278.223 130.668C279.132 131.577 280.311 132.031 281.76 132.031C282.726 132.031 283.582 131.822 284.327 131.403C285.08 130.984 285.67 130.405 286.096 129.666C286.529 128.928 286.746 128.082 286.746 127.131ZM293.228 138.636V116.136H293.91V120.312H293.995C294.294 119.403 294.709 118.619 295.242 117.958C295.774 117.298 296.403 116.786 297.127 116.424C297.859 116.062 298.662 115.881 299.535 115.881C300.828 115.881 301.943 116.254 302.88 116.999C303.825 117.738 304.553 118.746 305.064 120.025C305.583 121.303 305.842 122.749 305.842 124.361C305.842 125.966 305.583 127.408 305.064 128.686C304.546 129.964 303.814 130.977 302.87 131.722C301.925 132.468 300.814 132.841 299.535 132.841C298.669 132.841 297.87 132.663 297.138 132.308C296.407 131.946 295.771 131.435 295.231 130.774C294.691 130.107 294.279 129.318 293.995 128.409H293.91V138.636H293.228ZM293.91 124.361C293.91 125.838 294.137 127.166 294.592 128.345C295.054 129.517 295.703 130.447 296.542 131.136C297.387 131.818 298.385 132.159 299.535 132.159C300.686 132.159 301.68 131.818 302.518 131.136C303.363 130.447 304.013 129.517 304.468 128.345C304.929 127.166 305.16 125.838 305.16 124.361C305.16 122.884 304.933 121.559 304.478 120.387C304.024 119.208 303.374 118.278 302.529 117.596C301.691 116.907 300.693 116.562 299.535 116.562C298.377 116.562 297.376 116.907 296.531 117.596C295.693 118.278 295.046 119.208 294.592 120.387C294.137 121.559 293.91 122.884 293.91 124.361ZM321.228 127.131V116.136H321.91V132.5H321.228V129.901H321.143C320.759 130.753 320.127 131.435 319.247 131.946C318.373 132.457 317.372 132.713 316.242 132.713C315.149 132.713 314.183 132.475 313.345 131.999C312.507 131.523 311.85 130.866 311.374 130.028C310.898 129.19 310.66 128.224 310.66 127.131V116.136H311.342V127.131C311.342 128.58 311.796 129.759 312.705 130.668C313.614 131.577 314.793 132.031 316.242 132.031C317.208 132.031 318.064 131.822 318.81 131.403C319.563 130.984 320.152 130.405 320.578 129.666C321.011 128.928 321.228 128.082 321.228 127.131ZM333.847 132.841C332.42 132.841 331.17 132.468 330.097 131.722C329.032 130.977 328.204 129.964 327.615 128.686C327.025 127.408 326.731 125.966 326.731 124.361C326.731 122.756 327.025 121.314 327.615 120.036C328.211 118.757 329.021 117.745 330.044 116.999C331.067 116.254 332.221 115.881 333.506 115.881C334.458 115.881 335.339 116.083 336.148 116.488C336.965 116.893 337.675 117.454 338.279 118.171C338.883 118.888 339.351 119.716 339.685 120.653C340.026 121.584 340.197 122.578 340.197 123.636V124.318H327.072V123.636H339.515C339.515 122.322 339.245 121.133 338.705 120.067C338.165 118.995 337.441 118.143 336.532 117.511C335.623 116.879 334.614 116.562 333.506 116.562C332.384 116.562 331.368 116.896 330.459 117.564C329.55 118.232 328.822 119.141 328.275 120.291C327.728 121.442 327.441 122.741 327.412 124.19V124.276C327.412 125.703 327.661 127.017 328.158 128.217C328.662 129.411 329.394 130.366 330.353 131.083C331.312 131.8 332.476 132.159 333.847 132.159C334.856 132.159 335.701 131.982 336.383 131.626C337.072 131.271 337.622 130.863 338.034 130.401C338.453 129.94 338.762 129.545 338.961 129.219L339.515 129.602C339.273 130.014 338.911 130.472 338.428 130.977C337.945 131.481 337.327 131.918 336.574 132.287C335.822 132.656 334.912 132.841 333.847 132.841ZM354.826 119.588L354.144 119.759C353.924 119.048 353.615 118.459 353.218 117.99C352.827 117.514 352.348 117.159 351.779 116.925C351.211 116.683 350.551 116.562 349.798 116.562C348.491 116.562 347.433 116.896 346.623 117.564C345.814 118.224 345.409 119.098 345.409 120.185C345.409 121.044 345.682 121.765 346.229 122.347C346.783 122.93 347.617 123.359 348.733 123.636L351.289 124.276C352.49 124.574 353.399 125.078 354.017 125.788C354.642 126.499 354.954 127.358 354.954 128.366C354.954 129.254 354.72 130.036 354.251 130.71C353.789 131.385 353.15 131.911 352.333 132.287C351.517 132.656 350.572 132.841 349.5 132.841C348.044 132.841 346.854 132.486 345.931 131.776C345.007 131.065 344.407 130.057 344.13 128.75L344.812 128.58C345.054 129.737 345.568 130.625 346.357 131.243C347.152 131.854 348.2 132.159 349.5 132.159C350.92 132.159 352.071 131.811 352.951 131.115C353.832 130.419 354.272 129.503 354.272 128.366C354.272 127.521 354.01 126.808 353.484 126.225C352.958 125.643 352.17 125.22 351.119 124.957L348.562 124.318C347.305 124.006 346.35 123.494 345.696 122.784C345.05 122.074 344.727 121.207 344.727 120.185C344.727 119.325 344.94 118.576 345.366 117.937C345.799 117.29 346.396 116.786 347.156 116.424C347.923 116.062 348.804 115.881 349.798 115.881C351.062 115.881 352.117 116.193 352.962 116.818C353.807 117.436 354.429 118.359 354.826 119.588ZM364.934 116.136V116.818H358.456V116.136H364.934ZM360.843 112.216H361.525V129.048C361.525 129.687 361.667 130.238 361.951 130.7C362.235 131.154 362.611 131.506 363.08 131.754C363.549 131.996 364.053 132.116 364.593 132.116C364.799 132.116 364.987 132.099 365.157 132.063C365.335 132.028 365.516 131.974 365.701 131.903L365.914 132.543C365.701 132.621 365.491 132.681 365.285 132.724C365.079 132.773 364.848 132.798 364.593 132.798C363.925 132.798 363.304 132.646 362.728 132.34C362.16 132.035 361.702 131.602 361.354 131.04C361.013 130.479 360.843 129.815 360.843 129.048V112.216ZM375.869 132.841C374.584 132.841 373.43 132.472 372.407 131.733C371.384 130.987 370.575 129.975 369.978 128.697C369.389 127.411 369.094 125.966 369.094 124.361C369.094 122.749 369.389 121.303 369.978 120.025C370.575 118.746 371.384 117.738 372.407 116.999C373.43 116.254 374.584 115.881 375.869 115.881C377.155 115.881 378.306 116.254 379.321 116.999C380.344 117.745 381.154 118.757 381.75 120.036C382.347 121.314 382.645 122.756 382.645 124.361C382.645 125.966 382.347 127.411 381.75 128.697C381.161 129.975 380.355 130.987 379.332 131.733C378.309 132.472 377.155 132.841 375.869 132.841ZM375.869 132.159C377.027 132.159 378.064 131.818 378.98 131.136C379.904 130.455 380.632 129.524 381.164 128.345C381.697 127.166 381.963 125.838 381.963 124.361C381.963 122.884 381.693 121.559 381.154 120.387C380.621 119.208 379.896 118.278 378.98 117.596C378.064 116.907 377.027 116.562 375.869 116.562C374.719 116.562 373.682 116.907 372.759 117.596C371.842 118.278 371.114 119.208 370.575 120.387C370.042 121.559 369.776 122.884 369.776 124.361C369.776 125.838 370.042 127.166 370.575 128.345C371.107 129.524 371.832 130.455 372.748 131.136C373.671 131.818 374.712 132.159 375.869 132.159ZM397.248 119.588L396.566 119.759C396.346 119.048 396.037 118.459 395.64 117.99C395.249 117.514 394.769 117.159 394.201 116.925C393.633 116.683 392.973 116.562 392.22 116.562C390.913 116.562 389.855 116.896 389.045 117.564C388.235 118.224 387.831 119.098 387.831 120.185C387.831 121.044 388.104 121.765 388.651 122.347C389.205 122.93 390.039 123.359 391.154 123.636L393.711 124.276C394.912 124.574 395.821 125.078 396.439 125.788C397.064 126.499 397.376 127.358 397.376 128.366C397.376 129.254 397.142 130.036 396.673 130.71C396.211 131.385 395.572 131.911 394.755 132.287C393.939 132.656 392.994 132.841 391.921 132.841C390.466 132.841 389.276 132.486 388.353 131.776C387.429 131.065 386.829 130.057 386.552 128.75L387.234 128.58C387.475 129.737 387.99 130.625 388.779 131.243C389.574 131.854 390.622 132.159 391.921 132.159C393.342 132.159 394.492 131.811 395.373 131.115C396.254 130.419 396.694 129.503 396.694 128.366C396.694 127.521 396.431 126.808 395.906 126.225C395.38 125.643 394.592 125.22 393.541 124.957L390.984 124.318C389.727 124.006 388.772 123.494 388.118 122.784C387.472 122.074 387.149 121.207 387.149 120.185C387.149 119.325 387.362 118.576 387.788 117.937C388.221 117.29 388.818 116.786 389.578 116.424C390.345 116.062 391.225 115.881 392.22 115.881C393.484 115.881 394.539 116.193 395.384 116.818C396.229 117.436 396.85 118.359 397.248 119.588ZM416.006 132.841C414.714 132.841 413.595 132.472 412.65 131.733C411.706 130.987 410.978 129.975 410.466 128.697C409.955 127.418 409.699 125.973 409.699 124.361C409.699 122.756 409.959 121.314 410.477 120.036C410.996 118.757 411.727 117.745 412.672 116.999C413.616 116.254 414.728 115.881 416.006 115.881C416.873 115.881 417.672 116.062 418.403 116.424C419.135 116.779 419.77 117.29 420.31 117.958C420.85 118.619 421.262 119.403 421.546 120.312H421.631V110.682H422.313V132.5H421.631V128.409H421.546C421.248 129.311 420.832 130.096 420.299 130.763C419.767 131.424 419.135 131.935 418.403 132.298C417.679 132.66 416.88 132.841 416.006 132.841ZM416.006 132.159C417.164 132.159 418.162 131.818 419 131.136C419.845 130.447 420.495 129.517 420.949 128.345C421.404 127.166 421.631 125.838 421.631 124.361C421.631 122.884 421.4 121.559 420.939 120.387C420.484 119.208 419.834 118.278 418.989 117.596C418.151 116.907 417.157 116.562 416.006 116.562C414.856 116.562 413.858 116.907 413.013 117.596C412.174 118.278 411.525 119.208 411.063 120.387C410.608 121.559 410.381 122.884 410.381 124.361C410.381 125.838 410.608 127.166 411.063 128.345C411.518 129.517 412.164 130.447 413.002 131.136C413.847 131.818 414.849 132.159 416.006 132.159ZM428.694 132.5V116.136H429.376V132.5H428.694ZM429.035 113.153C428.851 113.153 428.691 113.086 428.556 112.951C428.421 112.816 428.353 112.656 428.353 112.472C428.353 112.287 428.421 112.127 428.556 111.992C428.691 111.857 428.851 111.79 429.035 111.79C429.22 111.79 429.38 111.857 429.515 111.992C429.65 112.127 429.717 112.287 429.717 112.472C429.717 112.656 429.65 112.816 429.515 112.951C429.38 113.086 429.22 113.153 429.035 113.153ZM445.061 119.588L444.379 119.759C444.159 119.048 443.85 118.459 443.452 117.99C443.061 117.514 442.582 117.159 442.014 116.925C441.446 116.683 440.785 116.562 440.032 116.562C438.725 116.562 437.667 116.896 436.858 117.564C436.048 118.224 435.643 119.098 435.643 120.185C435.643 121.044 435.917 121.765 436.463 122.347C437.017 122.93 437.852 123.359 438.967 123.636L441.524 124.276C442.724 124.574 443.633 125.078 444.251 125.788C444.876 126.499 445.189 127.358 445.189 128.366C445.189 129.254 444.954 130.036 444.485 130.71C444.024 131.385 443.385 131.911 442.568 132.287C441.751 132.656 440.806 132.841 439.734 132.841C438.278 132.841 437.088 132.486 436.165 131.776C435.242 131.065 434.642 130.057 434.365 128.75L435.046 128.58C435.288 129.737 435.803 130.625 436.591 131.243C437.387 131.854 438.434 132.159 439.734 132.159C441.154 132.159 442.305 131.811 443.186 131.115C444.066 130.419 444.507 129.503 444.507 128.366C444.507 127.521 444.244 126.808 443.718 126.225C443.193 125.643 442.404 125.22 441.353 124.957L438.796 124.318C437.539 124.006 436.584 123.494 435.931 122.784C435.284 122.074 434.961 121.207 434.961 120.185C434.961 119.325 435.174 118.576 435.6 117.937C436.034 117.29 436.63 116.786 437.39 116.424C438.157 116.062 439.038 115.881 440.032 115.881C441.296 115.881 442.351 116.193 443.196 116.818C444.042 117.436 444.663 118.359 445.061 119.588ZM450.054 138.636V116.136H450.736V120.312H450.822C451.12 119.403 451.535 118.619 452.068 117.958C452.601 117.298 453.229 116.786 453.954 116.424C454.685 116.062 455.488 115.881 456.361 115.881C457.654 115.881 458.769 116.254 459.706 116.999C460.651 117.738 461.379 118.746 461.89 120.025C462.409 121.303 462.668 122.749 462.668 124.361C462.668 125.966 462.409 127.408 461.89 128.686C461.372 129.964 460.64 130.977 459.696 131.722C458.751 132.468 457.64 132.841 456.361 132.841C455.495 132.841 454.696 132.663 453.964 132.308C453.233 131.946 452.597 131.435 452.057 130.774C451.518 130.107 451.106 129.318 450.822 128.409H450.736V138.636H450.054ZM450.736 124.361C450.736 125.838 450.964 127.166 451.418 128.345C451.88 129.517 452.53 130.447 453.368 131.136C454.213 131.818 455.211 132.159 456.361 132.159C457.512 132.159 458.506 131.818 459.344 131.136C460.189 130.447 460.839 129.517 461.294 128.345C461.755 127.166 461.986 125.838 461.986 124.361C461.986 122.884 461.759 121.559 461.304 120.387C460.85 119.208 460.2 118.278 459.355 117.596C458.517 116.907 457.519 116.562 456.361 116.562C455.204 116.562 454.202 116.907 453.357 117.596C452.519 118.278 451.873 119.208 451.418 120.387C450.964 121.559 450.736 122.884 450.736 124.361ZM473.282 132.841C471.996 132.841 470.842 132.472 469.819 131.733C468.796 130.987 467.987 129.975 467.39 128.697C466.801 127.411 466.506 125.966 466.506 124.361C466.506 122.749 466.801 121.303 467.39 120.025C467.987 118.746 468.796 117.738 469.819 116.999C470.842 116.254 471.996 115.881 473.282 115.881C474.567 115.881 475.718 116.254 476.733 116.999C477.756 117.745 478.566 118.757 479.162 120.036C479.759 121.314 480.057 122.756 480.057 124.361C480.057 125.966 479.759 127.411 479.162 128.697C478.573 129.975 477.767 130.987 476.744 131.733C475.721 132.472 474.567 132.841 473.282 132.841ZM473.282 132.159C474.439 132.159 475.476 131.818 476.392 131.136C477.316 130.455 478.044 129.524 478.576 128.345C479.109 127.166 479.375 125.838 479.375 124.361C479.375 122.884 479.105 121.559 478.566 120.387C478.033 119.208 477.309 118.278 476.392 117.596C475.476 116.907 474.439 116.562 473.282 116.562C472.131 116.562 471.094 116.907 470.171 117.596C469.255 118.278 468.527 119.208 467.987 120.387C467.454 121.559 467.188 122.884 467.188 124.361C467.188 125.838 467.454 127.166 467.987 128.345C468.519 129.524 469.244 130.455 470.16 131.136C471.083 131.818 472.124 132.159 473.282 132.159ZM485.541 121.506V132.5H484.859V116.136H485.541V118.736H485.626C486.01 117.884 486.638 117.202 487.512 116.69C488.393 116.179 489.398 115.923 490.527 115.923C491.621 115.923 492.586 116.161 493.424 116.637C494.263 117.113 494.92 117.77 495.395 118.608C495.871 119.446 496.109 120.412 496.109 121.506V132.5H495.427V121.506C495.427 120.057 494.973 118.878 494.064 117.969C493.155 117.06 491.976 116.605 490.527 116.605C489.561 116.605 488.701 116.815 487.949 117.234C487.203 117.653 486.613 118.232 486.18 118.97C485.754 119.709 485.541 120.554 485.541 121.506ZM501.995 132.5V116.136H502.677V132.5H501.995ZM502.336 113.153C502.151 113.153 501.992 113.086 501.857 112.951C501.722 112.816 501.654 112.656 501.654 112.472C501.654 112.287 501.722 112.127 501.857 111.992C501.992 111.857 502.151 111.79 502.336 111.79C502.521 111.79 502.681 111.857 502.815 111.992C502.95 112.127 503.018 112.287 503.018 112.472C503.018 112.656 502.95 112.816 502.815 112.951C502.681 113.086 502.521 113.153 502.336 113.153ZM509.072 132.5V110.682H509.754V120.312H509.839C510.123 119.403 510.535 118.619 511.075 117.958C511.614 117.29 512.25 116.779 512.981 116.424C513.713 116.062 514.512 115.881 515.379 115.881C516.657 115.881 517.768 116.254 518.713 116.999C519.658 117.745 520.389 118.757 520.908 120.036C521.426 121.314 521.685 122.756 521.685 124.361C521.685 125.973 521.426 127.418 520.908 128.697C520.396 129.975 519.668 130.987 518.724 131.733C517.786 132.472 516.671 132.841 515.379 132.841C514.505 132.841 513.702 132.66 512.971 132.298C512.246 131.935 511.618 131.424 511.085 130.763C510.553 130.096 510.137 129.311 509.839 128.409H509.754V132.5H509.072ZM509.754 124.361C509.754 125.838 509.981 127.166 510.435 128.345C510.89 129.517 511.536 130.447 512.374 131.136C513.219 131.818 514.221 132.159 515.379 132.159C516.536 132.159 517.534 131.818 518.372 131.136C519.217 130.447 519.867 129.517 520.322 128.345C520.776 127.166 521.004 125.838 521.004 124.361C521.004 122.884 520.773 121.559 520.311 120.387C519.856 119.208 519.207 118.278 518.361 117.596C517.523 116.907 516.529 116.562 515.379 116.562C514.228 116.562 513.23 116.907 512.385 117.596C511.547 118.278 510.897 119.208 510.435 120.387C509.981 121.559 509.754 122.884 509.754 124.361ZM527.172 110.682V132.5H526.49V110.682H527.172ZM539.101 132.841C537.673 132.841 536.423 132.468 535.351 131.722C534.286 130.977 533.458 129.964 532.869 128.686C532.279 127.408 531.985 125.966 531.985 124.361C531.985 122.756 532.279 121.314 532.869 120.036C533.465 118.757 534.275 117.745 535.298 116.999C536.32 116.254 537.475 115.881 538.76 115.881C539.712 115.881 540.592 116.083 541.402 116.488C542.219 116.893 542.929 117.454 543.533 118.171C544.136 118.888 544.605 119.716 544.939 120.653C545.28 121.584 545.45 122.578 545.45 123.636V124.318H532.325V123.636H544.769C544.769 122.322 544.499 121.133 543.959 120.067C543.419 118.995 542.695 118.143 541.786 117.511C540.877 116.879 539.868 116.562 538.76 116.562C537.638 116.562 536.622 116.896 535.713 117.564C534.804 118.232 534.076 119.141 533.529 120.291C532.982 121.442 532.695 122.741 532.666 124.19V124.276C532.666 125.703 532.915 127.017 533.412 128.217C533.916 129.411 534.648 130.366 535.607 131.083C536.565 131.8 537.73 132.159 539.101 132.159C540.11 132.159 540.955 131.982 541.636 131.626C542.325 131.271 542.876 130.863 543.288 130.401C543.707 129.94 544.016 129.545 544.215 129.219L544.769 129.602C544.527 130.014 544.165 130.472 543.682 130.977C543.199 131.481 542.581 131.918 541.828 132.287C541.075 132.656 540.166 132.841 539.101 132.841ZM560.08 119.588L559.398 119.759C559.178 119.048 558.869 118.459 558.472 117.99C558.081 117.514 557.602 117.159 557.033 116.925C556.465 116.683 555.805 116.562 555.052 116.562C553.745 116.562 552.687 116.896 551.877 117.564C551.067 118.224 550.663 119.098 550.663 120.185C550.663 121.044 550.936 121.765 551.483 122.347C552.037 122.93 552.871 123.359 553.986 123.636L556.543 124.276C557.744 124.574 558.653 125.078 559.271 125.788C559.896 126.499 560.208 127.358 560.208 128.366C560.208 129.254 559.974 130.036 559.505 130.71C559.043 131.385 558.404 131.911 557.587 132.287C556.771 132.656 555.826 132.841 554.754 132.841C553.298 132.841 552.108 132.486 551.185 131.776C550.261 131.065 549.661 130.057 549.384 128.75L550.066 128.58C550.307 129.737 550.822 130.625 551.611 131.243C552.406 131.854 553.454 132.159 554.754 132.159C556.174 132.159 557.325 131.811 558.205 131.115C559.086 130.419 559.526 129.503 559.526 128.366C559.526 127.521 559.263 126.808 558.738 126.225C558.212 125.643 557.424 125.22 556.373 124.957L553.816 124.318C552.559 124.006 551.604 123.494 550.95 122.784C550.304 122.074 549.981 121.207 549.981 120.185C549.981 119.325 550.194 118.576 550.62 117.937C551.053 117.29 551.65 116.786 552.41 116.424C553.177 116.062 554.057 115.881 555.052 115.881C556.316 115.881 557.371 116.193 558.216 116.818C559.061 117.436 559.682 118.359 560.08 119.588Z" fill="black"/>
<path d="M245.038 160.5C244.931 160.114 244.776 159.752 244.572 159.415C244.367 159.074 244.113 158.777 243.81 158.523C243.511 158.265 243.164 158.064 242.77 157.92C242.38 157.777 241.945 157.705 241.464 157.705C240.706 157.705 240.028 157.902 239.43 158.295C238.831 158.689 238.358 159.258 238.009 160C237.664 160.742 237.492 161.636 237.492 162.682C237.492 163.723 237.666 164.616 238.015 165.358C238.363 166.1 238.841 166.67 239.447 167.068C240.056 167.462 240.753 167.659 241.538 167.659C242.253 167.659 242.886 167.5 243.435 167.182C243.984 166.864 244.413 166.409 244.719 165.818C245.03 165.227 245.181 164.525 245.174 163.71L245.515 163.818H241.788V162.864H246.208V163.818C246.208 164.811 246.007 165.669 245.606 166.392C245.204 167.116 244.653 167.674 243.952 168.068C243.252 168.462 242.447 168.659 241.538 168.659C240.522 168.659 239.634 168.415 238.873 167.926C238.111 167.434 237.519 166.741 237.094 165.847C236.674 164.949 236.464 163.894 236.464 162.682C236.464 161.769 236.585 160.945 236.827 160.21C237.07 159.475 237.413 158.847 237.856 158.324C238.303 157.801 238.831 157.402 239.441 157.125C240.051 156.845 240.725 156.705 241.464 156.705C242.1 156.705 242.681 156.805 243.208 157.006C243.738 157.206 244.204 157.483 244.606 157.835C245.011 158.184 245.342 158.587 245.6 159.045C245.861 159.5 246.038 159.985 246.128 160.5H245.038ZM252.164 168.682C251.35 168.682 250.645 168.492 250.05 168.114C249.456 167.731 248.995 167.203 248.67 166.528C248.348 165.85 248.187 165.07 248.187 164.188C248.187 163.309 248.348 162.528 248.67 161.847C248.995 161.161 249.444 160.625 250.016 160.239C250.592 159.848 251.257 159.653 252.011 159.653C252.484 159.653 252.94 159.741 253.38 159.915C253.819 160.085 254.213 160.348 254.562 160.705C254.914 161.057 255.192 161.502 255.397 162.04C255.601 162.574 255.704 163.206 255.704 163.938V164.438H248.886V163.545H254.67C254.67 162.985 254.556 162.481 254.329 162.034C254.105 161.583 253.793 161.227 253.391 160.966C252.993 160.705 252.533 160.574 252.011 160.574C251.457 160.574 250.971 160.722 250.55 161.017C250.13 161.312 249.8 161.703 249.562 162.188C249.327 162.672 249.207 163.203 249.204 163.778V164.312C249.204 165.006 249.323 165.612 249.562 166.131C249.804 166.646 250.147 167.045 250.59 167.33C251.033 167.614 251.558 167.756 252.164 167.756C252.577 167.756 252.939 167.691 253.249 167.562C253.564 167.434 253.827 167.261 254.039 167.045C254.255 166.826 254.418 166.585 254.528 166.324L255.488 166.636C255.355 167.004 255.137 167.343 254.834 167.653C254.535 167.964 254.16 168.214 253.709 168.403C253.262 168.589 252.747 168.682 252.164 168.682ZM263.796 161.688L262.87 161.949C262.779 161.687 262.65 161.451 262.484 161.239C262.317 161.027 262.099 160.858 261.83 160.733C261.565 160.608 261.235 160.545 260.841 160.545C260.251 160.545 259.766 160.686 259.387 160.966C259.008 161.246 258.819 161.608 258.819 162.051C258.819 162.426 258.948 162.731 259.205 162.966C259.466 163.197 259.868 163.381 260.41 163.517L261.728 163.841C262.459 164.019 263.006 164.301 263.37 164.688C263.737 165.074 263.921 165.559 263.921 166.142C263.921 166.634 263.785 167.072 263.512 167.455C263.239 167.837 262.859 168.138 262.37 168.358C261.885 168.574 261.323 168.682 260.682 168.682C259.83 168.682 259.127 168.491 258.574 168.108C258.021 167.722 257.667 167.165 257.512 166.438L258.484 166.199C258.609 166.718 258.853 167.11 259.216 167.375C259.584 167.64 260.067 167.773 260.665 167.773C261.336 167.773 261.872 167.623 262.273 167.324C262.675 167.021 262.876 166.642 262.876 166.188C262.876 165.835 262.758 165.54 262.523 165.301C262.288 165.059 261.932 164.881 261.455 164.767L260.029 164.426C259.271 164.244 258.711 163.956 258.347 163.562C257.984 163.169 257.802 162.68 257.802 162.097C257.802 161.616 257.932 161.193 258.194 160.83C258.455 160.462 258.815 160.174 259.273 159.966C259.732 159.758 260.254 159.653 260.841 159.653C261.641 159.653 262.279 159.835 262.756 160.199C263.237 160.559 263.584 161.055 263.796 161.688ZM269.573 159.773V160.653H265.408V159.773H269.573ZM266.709 157.682H267.726V166.222C267.726 166.585 267.789 166.871 267.914 167.08C268.039 167.284 268.202 167.43 268.403 167.517C268.603 167.6 268.817 167.642 269.045 167.642C269.177 167.642 269.291 167.634 269.386 167.619C269.48 167.6 269.564 167.581 269.636 167.562L269.851 168.477C269.753 168.515 269.632 168.549 269.488 168.58C269.344 168.614 269.166 168.631 268.954 168.631C268.582 168.631 268.225 168.549 267.88 168.386C267.539 168.223 267.259 167.981 267.039 167.659C266.819 167.337 266.709 166.938 266.709 166.46V157.682ZM271.881 168.5V159.773H272.898V168.5H271.881ZM272.398 158.273C272.19 158.273 272.012 158.203 271.864 158.062C271.716 157.919 271.643 157.746 271.643 157.545C271.643 157.345 271.716 157.174 271.864 157.034C272.012 156.89 272.19 156.818 272.398 156.818C272.607 156.818 272.785 156.89 272.932 157.034C273.08 157.174 273.154 157.345 273.154 157.545C273.154 157.746 273.08 157.919 272.932 158.062C272.785 158.203 272.607 158.273 272.398 158.273ZM278.965 168.682C278.211 168.682 277.545 168.491 276.965 168.108C276.389 167.725 275.939 167.197 275.613 166.523C275.287 165.845 275.124 165.062 275.124 164.176C275.124 163.282 275.287 162.496 275.613 161.818C275.939 161.136 276.389 160.606 276.965 160.227C277.545 159.845 278.211 159.653 278.965 159.653C279.719 159.653 280.384 159.845 280.959 160.227C281.535 160.61 281.986 161.14 282.312 161.818C282.641 162.496 282.806 163.282 282.806 164.176C282.806 165.062 282.643 165.845 282.317 166.523C281.992 167.197 281.539 167.725 280.959 168.108C280.384 168.491 279.719 168.682 278.965 168.682ZM278.965 167.756C279.571 167.756 280.084 167.593 280.505 167.267C280.925 166.941 281.243 166.508 281.459 165.966C281.679 165.424 281.789 164.828 281.789 164.176C281.789 163.525 281.679 162.926 281.459 162.381C281.243 161.835 280.925 161.398 280.505 161.068C280.084 160.739 279.571 160.574 278.965 160.574C278.363 160.574 277.85 160.739 277.425 161.068C277.005 161.398 276.685 161.835 276.465 162.381C276.249 162.926 276.141 163.525 276.141 164.176C276.141 164.828 276.249 165.424 276.465 165.966C276.685 166.508 277.005 166.941 277.425 167.267C277.846 167.593 278.359 167.756 278.965 167.756ZM286.038 163.045V168.5H285.026V159.773H286.009V161.142H286.1C286.305 160.695 286.623 160.337 287.055 160.068C287.49 159.795 288.028 159.659 288.668 159.659C289.255 159.659 289.77 159.782 290.214 160.028C290.661 160.271 291.007 160.629 291.253 161.102C291.503 161.576 291.628 162.157 291.628 162.847V168.5H290.617V162.909C290.617 162.193 290.416 161.627 290.015 161.21C289.617 160.794 289.083 160.585 288.413 160.585C287.954 160.585 287.547 160.684 287.191 160.881C286.835 161.078 286.553 161.362 286.344 161.733C286.14 162.1 286.038 162.538 286.038 163.045ZM296.729 168.699C296.203 168.699 295.722 168.597 295.286 168.392C294.85 168.184 294.504 167.884 294.246 167.494C293.989 167.1 293.86 166.623 293.86 166.062C293.86 165.631 293.941 165.267 294.104 164.972C294.267 164.676 294.498 164.434 294.797 164.244C295.097 164.055 295.451 163.905 295.86 163.795C296.269 163.686 296.72 163.6 297.212 163.54C297.701 163.479 298.114 163.426 298.451 163.381C298.792 163.335 299.051 163.263 299.229 163.165C299.407 163.066 299.496 162.907 299.496 162.688V162.483C299.496 161.888 299.318 161.42 298.962 161.08C298.61 160.735 298.102 160.562 297.439 160.562C296.811 160.562 296.297 160.701 295.9 160.977C295.506 161.254 295.229 161.58 295.07 161.955L294.11 161.608C294.307 161.131 294.58 160.75 294.928 160.466C295.277 160.178 295.667 159.972 296.099 159.847C296.53 159.718 296.968 159.653 297.411 159.653C297.744 159.653 298.091 159.697 298.451 159.784C298.814 159.871 299.152 160.023 299.462 160.239C299.773 160.451 300.025 160.748 300.218 161.131C300.411 161.509 300.508 161.991 300.508 162.574V168.5H299.496V167.119H299.434C299.313 167.377 299.133 167.627 298.894 167.869C298.655 168.112 298.356 168.311 297.996 168.466C297.636 168.621 297.214 168.699 296.729 168.699ZM296.866 167.773C297.404 167.773 297.869 167.653 298.263 167.415C298.657 167.176 298.96 166.86 299.172 166.466C299.388 166.068 299.496 165.631 299.496 165.153V163.892C299.421 163.964 299.294 164.028 299.116 164.085C298.941 164.142 298.739 164.193 298.508 164.239C298.28 164.28 298.053 164.316 297.826 164.347C297.599 164.377 297.394 164.403 297.212 164.426C296.72 164.487 296.299 164.581 295.951 164.71C295.602 164.839 295.335 165.017 295.15 165.244C294.964 165.468 294.871 165.756 294.871 166.108C294.871 166.638 295.061 167.049 295.439 167.341C295.818 167.629 296.294 167.773 296.866 167.773ZM297.03 158.562L298.485 155.983H299.684L297.939 158.562H297.03ZM311.136 159.773V160.653H306.971V159.773H311.136ZM308.272 157.682H309.289V166.222C309.289 166.585 309.351 166.871 309.476 167.08C309.601 167.284 309.764 167.43 309.965 167.517C310.166 167.6 310.38 167.642 310.607 167.642C310.74 167.642 310.853 167.634 310.948 167.619C311.043 167.6 311.126 167.581 311.198 167.562L311.414 168.477C311.315 168.515 311.194 168.549 311.05 168.58C310.906 168.614 310.728 168.631 310.516 168.631C310.145 168.631 309.787 168.549 309.442 168.386C309.101 168.223 308.821 167.981 308.601 167.659C308.382 167.337 308.272 166.938 308.272 166.46V157.682ZM318.978 165.165V159.773H319.989V168.5H318.978V167.051H318.898C318.694 167.498 318.37 167.871 317.927 168.17C317.484 168.466 316.942 168.614 316.302 168.614C315.745 168.614 315.251 168.492 314.819 168.25C314.387 168.004 314.048 167.644 313.802 167.17C313.556 166.697 313.432 166.116 313.432 165.426V159.773H314.444V165.364C314.444 166.045 314.645 166.595 315.046 167.011C315.448 167.424 315.963 167.631 316.591 167.631C316.985 167.631 317.364 167.536 317.728 167.347C318.091 167.157 318.391 166.881 318.626 166.517C318.86 166.15 318.978 165.699 318.978 165.165ZM328.53 161.688L327.604 161.949C327.513 161.687 327.385 161.451 327.218 161.239C327.051 161.027 326.833 160.858 326.564 160.733C326.299 160.608 325.97 160.545 325.576 160.545C324.985 160.545 324.5 160.686 324.121 160.966C323.743 161.246 323.553 161.608 323.553 162.051C323.553 162.426 323.682 162.731 323.939 162.966C324.201 163.197 324.602 163.381 325.144 163.517L326.462 163.841C327.193 164.019 327.741 164.301 328.104 164.688C328.472 165.074 328.655 165.559 328.655 166.142C328.655 166.634 328.519 167.072 328.246 167.455C327.974 167.837 327.593 168.138 327.104 168.358C326.619 168.574 326.057 168.682 325.417 168.682C324.564 168.682 323.862 168.491 323.309 168.108C322.756 167.722 322.402 167.165 322.246 166.438L323.218 166.199C323.343 166.718 323.587 167.11 323.951 167.375C324.318 167.64 324.801 167.773 325.4 167.773C326.07 167.773 326.606 167.623 327.008 167.324C327.409 167.021 327.61 166.642 327.61 166.188C327.61 165.835 327.493 165.54 327.258 165.301C327.023 165.059 326.667 164.881 326.189 164.767L324.763 164.426C324.006 164.244 323.445 163.956 323.082 163.562C322.718 163.169 322.536 162.68 322.536 162.097C322.536 161.616 322.667 161.193 322.928 160.83C323.189 160.462 323.549 160.174 324.008 159.966C324.466 159.758 324.989 159.653 325.576 159.653C326.375 159.653 327.013 159.835 327.491 160.199C327.972 160.559 328.318 161.055 328.53 161.688ZM335.37 171.773V159.773H336.353V161.438H336.472C336.593 161.176 336.76 160.909 336.972 160.636C337.184 160.36 337.465 160.127 337.813 159.938C338.165 159.748 338.609 159.653 339.143 159.653C339.862 159.653 340.491 159.843 341.029 160.222C341.571 160.597 341.991 161.123 342.29 161.801C342.593 162.475 342.745 163.261 342.745 164.159C342.745 165.061 342.593 165.85 342.29 166.528C341.991 167.206 341.571 167.735 341.029 168.114C340.491 168.492 339.866 168.682 339.154 168.682C338.627 168.682 338.186 168.587 337.83 168.398C337.478 168.208 337.192 167.975 336.972 167.699C336.756 167.419 336.59 167.146 336.472 166.881H336.381V171.773H335.37ZM336.37 164.142C336.37 164.847 336.474 165.472 336.682 166.017C336.895 166.559 337.198 166.985 337.591 167.295C337.989 167.602 338.47 167.756 339.035 167.756C339.614 167.756 340.103 167.597 340.501 167.278C340.902 166.956 341.207 166.523 341.415 165.977C341.627 165.432 341.734 164.82 341.734 164.142C341.734 163.472 341.629 162.867 341.421 162.33C341.216 161.792 340.913 161.366 340.512 161.051C340.11 160.733 339.618 160.574 339.035 160.574C338.466 160.574 337.984 160.727 337.586 161.034C337.188 161.337 336.885 161.758 336.677 162.295C336.472 162.83 336.37 163.445 336.37 164.142ZM344.964 168.5V159.773H345.947V161.114H346.02C346.195 160.674 346.498 160.32 346.93 160.051C347.365 159.778 347.858 159.642 348.407 159.642C348.49 159.642 348.583 159.644 348.685 159.648C348.788 159.652 348.873 159.655 348.941 159.659V160.688C348.895 160.68 348.816 160.669 348.702 160.653C348.589 160.638 348.466 160.631 348.333 160.631C347.878 160.631 347.473 160.727 347.117 160.92C346.765 161.11 346.486 161.373 346.282 161.71C346.077 162.047 345.975 162.432 345.975 162.864V168.5H344.964ZM353.93 168.682C353.115 168.682 352.411 168.492 351.816 168.114C351.221 167.731 350.761 167.203 350.435 166.528C350.113 165.85 349.952 165.07 349.952 164.188C349.952 163.309 350.113 162.528 350.435 161.847C350.761 161.161 351.21 160.625 351.782 160.239C352.358 159.848 353.022 159.653 353.776 159.653C354.25 159.653 354.706 159.741 355.145 159.915C355.585 160.085 355.979 160.348 356.327 160.705C356.68 161.057 356.958 161.502 357.163 162.04C357.367 162.574 357.469 163.206 357.469 163.938V164.438H350.651V163.545H356.435C356.435 162.985 356.322 162.481 356.094 162.034C355.871 161.583 355.558 161.227 355.157 160.966C354.759 160.705 354.299 160.574 353.776 160.574C353.223 160.574 352.736 160.722 352.316 161.017C351.895 161.312 351.566 161.703 351.327 162.188C351.092 162.672 350.973 163.203 350.969 163.778V164.312C350.969 165.006 351.089 165.612 351.327 166.131C351.57 166.646 351.913 167.045 352.356 167.33C352.799 167.614 353.323 167.756 353.93 167.756C354.342 167.756 354.704 167.691 355.015 167.562C355.329 167.434 355.592 167.261 355.805 167.045C356.02 166.826 356.183 166.585 356.293 166.324L357.253 166.636C357.121 167.004 356.903 167.343 356.6 167.653C356.301 167.964 355.926 168.214 355.475 168.403C355.028 168.589 354.513 168.682 353.93 168.682ZM365.562 161.688L364.636 161.949C364.545 161.687 364.416 161.451 364.249 161.239C364.082 161.027 363.865 160.858 363.596 160.733C363.331 160.608 363.001 160.545 362.607 160.545C362.016 160.545 361.531 160.686 361.153 160.966C360.774 161.246 360.584 161.608 360.584 162.051C360.584 162.426 360.713 162.731 360.971 162.966C361.232 163.197 361.634 163.381 362.175 163.517L363.493 163.841C364.225 164.019 364.772 164.301 365.136 164.688C365.503 165.074 365.687 165.559 365.687 166.142C365.687 166.634 365.55 167.072 365.278 167.455C365.005 167.837 364.624 168.138 364.136 168.358C363.651 168.574 363.088 168.682 362.448 168.682C361.596 168.682 360.893 168.491 360.34 168.108C359.787 167.722 359.433 167.165 359.278 166.438L360.249 166.199C360.374 166.718 360.618 167.11 360.982 167.375C361.35 167.64 361.832 167.773 362.431 167.773C363.101 167.773 363.637 167.623 364.039 167.324C364.44 167.021 364.641 166.642 364.641 166.188C364.641 165.835 364.524 165.54 364.289 165.301C364.054 165.059 363.698 164.881 363.221 164.767L361.795 164.426C361.037 164.244 360.476 163.956 360.113 163.562C359.749 163.169 359.567 162.68 359.567 162.097C359.567 161.616 359.698 161.193 359.959 160.83C360.221 160.462 360.581 160.174 361.039 159.966C361.497 159.758 362.02 159.653 362.607 159.653C363.406 159.653 364.045 159.835 364.522 160.199C365.003 160.559 365.35 161.055 365.562 161.688ZM373.447 165.165V159.773H374.458V168.5H373.447V167.051H373.367C373.163 167.498 372.839 167.871 372.395 168.17C371.952 168.466 371.411 168.614 370.77 168.614C370.214 168.614 369.719 168.492 369.288 168.25C368.856 168.004 368.517 167.644 368.27 167.17C368.024 166.697 367.901 166.116 367.901 165.426V159.773H368.913V165.364C368.913 166.045 369.113 166.595 369.515 167.011C369.916 167.424 370.431 167.631 371.06 167.631C371.454 167.631 371.833 167.536 372.197 167.347C372.56 167.157 372.859 166.881 373.094 166.517C373.329 166.15 373.447 165.699 373.447 165.165ZM377.136 171.773V159.773H378.118V161.438H378.238C378.359 161.176 378.526 160.909 378.738 160.636C378.95 160.36 379.23 160.127 379.579 159.938C379.931 159.748 380.374 159.653 380.908 159.653C381.628 159.653 382.257 159.843 382.795 160.222C383.336 160.597 383.757 161.123 384.056 161.801C384.359 162.475 384.511 163.261 384.511 164.159C384.511 165.061 384.359 165.85 384.056 166.528C383.757 167.206 383.336 167.735 382.795 168.114C382.257 168.492 381.632 168.682 380.92 168.682C380.393 168.682 379.952 168.587 379.596 168.398C379.243 168.208 378.957 167.975 378.738 167.699C378.522 167.419 378.355 167.146 378.238 166.881H378.147V171.773H377.136ZM378.136 164.142C378.136 164.847 378.24 165.472 378.448 166.017C378.66 166.559 378.963 166.985 379.357 167.295C379.755 167.602 380.236 167.756 380.8 167.756C381.38 167.756 381.868 167.597 382.266 167.278C382.668 166.956 382.973 166.523 383.181 165.977C383.393 165.432 383.499 164.82 383.499 164.142C383.499 163.472 383.395 162.867 383.187 162.33C382.982 161.792 382.679 161.366 382.278 161.051C381.876 160.733 381.384 160.574 380.8 160.574C380.232 160.574 379.749 160.727 379.351 161.034C378.954 161.337 378.651 161.758 378.442 162.295C378.238 162.83 378.136 163.445 378.136 164.142ZM392.275 165.165V159.773H393.286V168.5H392.275V167.051H392.195C391.991 167.498 391.667 167.871 391.224 168.17C390.78 168.466 390.239 168.614 389.599 168.614C389.042 168.614 388.547 168.492 388.116 168.25C387.684 168.004 387.345 167.644 387.099 167.17C386.852 166.697 386.729 166.116 386.729 165.426V159.773H387.741V165.364C387.741 166.045 387.941 166.595 388.343 167.011C388.744 167.424 389.26 167.631 389.888 167.631C390.282 167.631 390.661 167.536 391.025 167.347C391.388 167.157 391.688 166.881 391.922 166.517C392.157 166.15 392.275 165.699 392.275 165.165ZM399.492 168.682C398.678 168.682 397.973 168.492 397.378 168.114C396.784 167.731 396.323 167.203 395.998 166.528C395.676 165.85 395.515 165.07 395.515 164.188C395.515 163.309 395.676 162.528 395.998 161.847C396.323 161.161 396.772 160.625 397.344 160.239C397.92 159.848 398.585 159.653 399.339 159.653C399.812 159.653 400.269 159.741 400.708 159.915C401.147 160.085 401.541 160.348 401.89 160.705C402.242 161.057 402.52 161.502 402.725 162.04C402.93 162.574 403.032 163.206 403.032 163.938V164.438H396.214V163.545H401.998C401.998 162.985 401.884 162.481 401.657 162.034C401.433 161.583 401.121 161.227 400.719 160.966C400.322 160.705 399.861 160.574 399.339 160.574C398.786 160.574 398.299 160.722 397.878 161.017C397.458 161.312 397.128 161.703 396.89 162.188C396.655 162.672 396.536 163.203 396.532 163.778V164.312C396.532 165.006 396.651 165.612 396.89 166.131C397.132 166.646 397.475 167.045 397.918 167.33C398.361 167.614 398.886 167.756 399.492 167.756C399.905 167.756 400.267 167.691 400.577 167.562C400.892 167.434 401.155 167.261 401.367 167.045C401.583 166.826 401.746 166.585 401.856 166.324L402.816 166.636C402.683 167.004 402.466 167.343 402.163 167.653C401.863 167.964 401.488 168.214 401.038 168.403C400.591 168.589 400.075 168.682 399.492 168.682ZM411.124 161.688L410.198 161.949C410.107 161.687 409.978 161.451 409.812 161.239C409.645 161.027 409.427 160.858 409.158 160.733C408.893 160.608 408.564 160.545 408.17 160.545C407.579 160.545 407.094 160.686 406.715 160.966C406.336 161.246 406.147 161.608 406.147 162.051C406.147 162.426 406.276 162.731 406.533 162.966C406.795 163.197 407.196 163.381 407.738 163.517L409.056 163.841C409.787 164.019 410.334 164.301 410.698 164.688C411.065 165.074 411.249 165.559 411.249 166.142C411.249 166.634 411.113 167.072 410.84 167.455C410.567 167.837 410.187 168.138 409.698 168.358C409.213 168.574 408.651 168.682 408.011 168.682C407.158 168.682 406.456 168.491 405.903 168.108C405.35 167.722 404.995 167.165 404.84 166.438L405.812 166.199C405.937 166.718 406.181 167.11 406.545 167.375C406.912 167.64 407.395 167.773 407.993 167.773C408.664 167.773 409.2 167.623 409.601 167.324C410.003 167.021 410.204 166.642 410.204 166.188C410.204 165.835 410.086 165.54 409.851 165.301C409.617 165.059 409.261 164.881 408.783 164.767L407.357 164.426C406.6 164.244 406.039 163.956 405.675 163.562C405.312 163.169 405.13 162.68 405.13 162.097C405.13 161.616 405.261 161.193 405.522 160.83C405.783 160.462 406.143 160.174 406.601 159.966C407.06 159.758 407.582 159.653 408.17 159.653C408.969 159.653 409.607 159.835 410.084 160.199C410.565 160.559 410.912 161.055 411.124 161.688ZM416.901 159.773V160.653H412.736V159.773H416.901ZM414.038 157.682H415.055V166.222C415.055 166.585 415.117 166.871 415.242 167.08C415.367 167.284 415.53 167.43 415.731 167.517C415.931 167.6 416.145 167.642 416.373 167.642C416.505 167.642 416.619 167.634 416.714 167.619C416.808 167.6 416.892 167.581 416.964 167.562L417.18 168.477C417.081 168.515 416.96 168.549 416.816 168.58C416.672 168.614 416.494 168.631 416.282 168.631C415.911 168.631 415.553 168.549 415.208 168.386C414.867 168.223 414.587 167.981 414.367 167.659C414.147 167.337 414.038 166.938 414.038 166.46V157.682ZM422.496 168.682C421.743 168.682 421.076 168.491 420.496 168.108C419.921 167.725 419.47 167.197 419.144 166.523C418.818 165.845 418.655 165.062 418.655 164.176C418.655 163.282 418.818 162.496 419.144 161.818C419.47 161.136 419.921 160.606 420.496 160.227C421.076 159.845 421.743 159.653 422.496 159.653C423.25 159.653 423.915 159.845 424.491 160.227C425.066 160.61 425.517 161.14 425.843 161.818C426.172 162.496 426.337 163.282 426.337 164.176C426.337 165.062 426.174 165.845 425.849 166.523C425.523 167.197 425.07 167.725 424.491 168.108C423.915 168.491 423.25 168.682 422.496 168.682ZM422.496 167.756C423.102 167.756 423.616 167.593 424.036 167.267C424.457 166.941 424.775 166.508 424.991 165.966C425.21 165.424 425.32 164.828 425.32 164.176C425.32 163.525 425.21 162.926 424.991 162.381C424.775 161.835 424.457 161.398 424.036 161.068C423.616 160.739 423.102 160.574 422.496 160.574C421.894 160.574 421.381 160.739 420.957 161.068C420.536 161.398 420.216 161.835 419.996 162.381C419.78 162.926 419.672 163.525 419.672 164.176C419.672 164.828 419.78 165.424 419.996 165.966C420.216 166.508 420.536 166.941 420.957 167.267C421.377 167.593 421.89 167.756 422.496 167.756ZM434.421 161.688L433.495 161.949C433.404 161.687 433.275 161.451 433.109 161.239C432.942 161.027 432.724 160.858 432.455 160.733C432.19 160.608 431.86 160.545 431.466 160.545C430.876 160.545 430.391 160.686 430.012 160.966C429.633 161.246 429.444 161.608 429.444 162.051C429.444 162.426 429.573 162.731 429.83 162.966C430.091 163.197 430.493 163.381 431.035 163.517L432.353 163.841C433.084 164.019 433.631 164.301 433.995 164.688C434.362 165.074 434.546 165.559 434.546 166.142C434.546 166.634 434.41 167.072 434.137 167.455C433.864 167.837 433.484 168.138 432.995 168.358C432.51 168.574 431.948 168.682 431.307 168.682C430.455 168.682 429.752 168.491 429.199 168.108C428.646 167.722 428.292 167.165 428.137 166.438L429.109 166.199C429.234 166.718 429.478 167.11 429.841 167.375C430.209 167.64 430.692 167.773 431.29 167.773C431.961 167.773 432.497 167.623 432.898 167.324C433.3 167.021 433.501 166.642 433.501 166.188C433.501 165.835 433.383 165.54 433.148 165.301C432.913 165.059 432.557 164.881 432.08 164.767L430.654 164.426C429.896 164.244 429.336 163.956 428.972 163.562C428.609 163.169 428.427 162.68 428.427 162.097C428.427 161.616 428.557 161.193 428.819 160.83C429.08 160.462 429.44 160.174 429.898 159.966C430.357 159.758 430.879 159.653 431.466 159.653C432.266 159.653 432.904 159.835 433.381 160.199C433.862 160.559 434.209 161.055 434.421 161.688Z" fill="#666666"/>
</g>
<defs>
<filter id="filter0_d_159_1116" x="0" y="0" width="670.5" height="222" filterUnits="userSpaceOnUse" color-interpolation-filters="sRGB">
<feFlood flood-opacity="0" result="BackgroundImageFix"/>
<feColorMatrix in="SourceAlpha" type="matrix" values="0 0 0 0 0 0 0 0 0 0 0 0 0 0 0 0 0 0 127 0" result="hardAlpha"/>
<feOffset dy="2"/>
<feGaussianBlur stdDeviation="3"/>
<feComposite in2="hardAlpha" operator="out"/>
<feColorMatrix type="matrix" values="0 0 0 0 0 0 0 0 0 0 0 0 0 0 0 0 0 0 0.04 0"/>
<feBlend mode="normal" in2="BackgroundImageFix" result="effect1_dropShadow_159_1116"/>
<feBlend mode="normal" in="SourceGraphic" in2="effect1_dropShadow_159_1116" result="shape"/>
</filter>
</defs>
</svg>
